%TF.GenerationSoftware,KiCad,Pcbnew,9.0.4*%
%TF.CreationDate,2026-02-14T22:35:10+05:30*%
%TF.ProjectId,Breadboard_PowerSupply,42726561-6462-46f6-9172-645f506f7765,rev?*%
%TF.SameCoordinates,Original*%
%TF.FileFunction,Plated,1,2,PTH,Mixed*%
%TF.FilePolarity,Positive*%
%FSLAX46Y46*%
G04 Gerber Fmt 4.6, Leading zero omitted, Abs format (unit mm)*
G04 Created by KiCad (PCBNEW 9.0.4) date 2026-02-14 22:35:10*
%MOMM*%
%LPD*%
G01*
G04 APERTURE LIST*
%TA.AperFunction,ViaDrill*%
%ADD10C,0.400000*%
%TD*%
%TA.AperFunction,ViaDrill*%
%ADD11C,0.500000*%
%TD*%
%TA.AperFunction,ComponentDrill*%
%ADD12C,0.700000*%
%TD*%
%TA.AperFunction,ComponentDrill*%
%ADD13C,0.800000*%
%TD*%
%TA.AperFunction,ComponentDrill*%
%ADD14C,0.900000*%
%TD*%
%TA.AperFunction,ComponentDrill*%
%ADD15C,1.000000*%
%TD*%
G04 aperture for slot hole*
%TA.AperFunction,ComponentDrill*%
%ADD16C,1.000000*%
%TD*%
%TA.AperFunction,ComponentDrill*%
%ADD17C,1.100000*%
%TD*%
%TA.AperFunction,ComponentDrill*%
%ADD18C,1.520000*%
%TD*%
G04 APERTURE END LIST*
D10*
X152670000Y-100584000D03*
D11*
X139700000Y-78720000D03*
X143051000Y-103124000D03*
D12*
%TO.C,R2*%
X144272000Y-80010000D03*
%TO.C,R3*%
X146050000Y-95250000D03*
%TO.C,R1*%
X146050000Y-100584000D03*
%TO.C,R2*%
X151892000Y-80010000D03*
%TO.C,R3*%
X153670000Y-95250000D03*
%TO.C,R1*%
X153670000Y-100584000D03*
D13*
%TO.C,C2*%
X133116000Y-66802000D03*
X135616000Y-66802000D03*
%TO.C,C3*%
X136438000Y-105918000D03*
X138938000Y-105918000D03*
%TO.C,C1*%
X140248000Y-66802000D03*
X142748000Y-66802000D03*
D14*
%TO.C,S1*%
X145950000Y-73660000D03*
X148450000Y-73660000D03*
X150950000Y-73660000D03*
%TO.C,D1*%
X151410000Y-86614000D03*
X151410000Y-89154000D03*
D15*
%TO.C,J3*%
X135636000Y-61722000D03*
%TO.C,J4*%
X136144000Y-110490000D03*
%TO.C,J3*%
X138176000Y-61722000D03*
%TO.C,J4*%
X138684000Y-110490000D03*
D16*
%TO.C,J6*%
X139446000Y-89900000D02*
X139446000Y-87900000D01*
D15*
%TO.C,J3*%
X140716000Y-61722000D03*
%TO.C,J4*%
X141224000Y-110490000D03*
D16*
%TO.C,J6*%
X143446000Y-93600000D02*
X141446000Y-93600000D01*
X145446000Y-89900000D02*
X145446000Y-87900000D01*
D15*
%TO.C,J1*%
X159004000Y-61778000D03*
X159004000Y-64318000D03*
%TO.C,J2*%
X159004000Y-108138000D03*
X159004000Y-110678000D03*
D17*
%TO.C,U2*%
X134366000Y-100076000D03*
%TO.C,U1*%
X134620000Y-75438000D03*
%TO.C,U2*%
X136906000Y-100076000D03*
%TO.C,U1*%
X137160000Y-75438000D03*
%TO.C,U2*%
X139446000Y-100076000D03*
%TO.C,U1*%
X139700000Y-75438000D03*
D18*
%TO.C,J5*%
X146812000Y-64008000D03*
%TO.C,J7*%
X146812000Y-108458000D03*
%TO.C,J5*%
X151892000Y-64008000D03*
%TO.C,J7*%
X151892000Y-108458000D03*
M02*
