%TF.GenerationSoftware,KiCad,Pcbnew,9.0.4*%
%TF.CreationDate,2026-02-14T22:34:29+05:30*%
%TF.ProjectId,Breadboard_PowerSupply,42726561-6462-46f6-9172-645f506f7765,rev?*%
%TF.SameCoordinates,Original*%
%TF.FileFunction,Legend,Bot*%
%TF.FilePolarity,Positive*%
%FSLAX46Y46*%
G04 Gerber Fmt 4.6, Leading zero omitted, Abs format (unit mm)*
G04 Created by KiCad (PCBNEW 9.0.4) date 2026-02-14 22:34:29*
%MOMM*%
%LPD*%
G01*
G04 APERTURE LIST*
%ADD10C,0.150000*%
%ADD11C,0.100000*%
%ADD12C,0.010000*%
G04 APERTURE END LIST*
D10*
X133555931Y-88474779D02*
X132555931Y-88474779D01*
X132555931Y-89617636D02*
X133555931Y-89855731D01*
X133555931Y-89855731D02*
X132841645Y-90046207D01*
X132841645Y-90046207D02*
X133555931Y-90236683D01*
X133555931Y-90236683D02*
X132555931Y-90474779D01*
X133555931Y-90855731D02*
X132889264Y-90855731D01*
X132555931Y-90855731D02*
X132603550Y-90808112D01*
X132603550Y-90808112D02*
X132651169Y-90855731D01*
X132651169Y-90855731D02*
X132603550Y-90903350D01*
X132603550Y-90903350D02*
X132555931Y-90855731D01*
X132555931Y-90855731D02*
X132651169Y-90855731D01*
X133555931Y-91474778D02*
X133508312Y-91379540D01*
X133508312Y-91379540D02*
X133413073Y-91331921D01*
X133413073Y-91331921D02*
X132555931Y-91331921D01*
X133555931Y-91998588D02*
X133508312Y-91903350D01*
X133508312Y-91903350D02*
X133413073Y-91855731D01*
X133413073Y-91855731D02*
X132555931Y-91855731D01*
X133508312Y-93093827D02*
X133555931Y-93236684D01*
X133555931Y-93236684D02*
X133555931Y-93474779D01*
X133555931Y-93474779D02*
X133508312Y-93570017D01*
X133508312Y-93570017D02*
X133460692Y-93617636D01*
X133460692Y-93617636D02*
X133365454Y-93665255D01*
X133365454Y-93665255D02*
X133270216Y-93665255D01*
X133270216Y-93665255D02*
X133174978Y-93617636D01*
X133174978Y-93617636D02*
X133127359Y-93570017D01*
X133127359Y-93570017D02*
X133079740Y-93474779D01*
X133079740Y-93474779D02*
X133032121Y-93284303D01*
X133032121Y-93284303D02*
X132984502Y-93189065D01*
X132984502Y-93189065D02*
X132936883Y-93141446D01*
X132936883Y-93141446D02*
X132841645Y-93093827D01*
X132841645Y-93093827D02*
X132746407Y-93093827D01*
X132746407Y-93093827D02*
X132651169Y-93141446D01*
X132651169Y-93141446D02*
X132603550Y-93189065D01*
X132603550Y-93189065D02*
X132555931Y-93284303D01*
X132555931Y-93284303D02*
X132555931Y-93522398D01*
X132555931Y-93522398D02*
X132603550Y-93665255D01*
X132889264Y-94522398D02*
X133555931Y-94522398D01*
X132889264Y-94093827D02*
X133413073Y-94093827D01*
X133413073Y-94093827D02*
X133508312Y-94141446D01*
X133508312Y-94141446D02*
X133555931Y-94236684D01*
X133555931Y-94236684D02*
X133555931Y-94379541D01*
X133555931Y-94379541D02*
X133508312Y-94474779D01*
X133508312Y-94474779D02*
X133460692Y-94522398D01*
X132889264Y-94998589D02*
X133889264Y-94998589D01*
X132936883Y-94998589D02*
X132889264Y-95093827D01*
X132889264Y-95093827D02*
X132889264Y-95284303D01*
X132889264Y-95284303D02*
X132936883Y-95379541D01*
X132936883Y-95379541D02*
X132984502Y-95427160D01*
X132984502Y-95427160D02*
X133079740Y-95474779D01*
X133079740Y-95474779D02*
X133365454Y-95474779D01*
X133365454Y-95474779D02*
X133460692Y-95427160D01*
X133460692Y-95427160D02*
X133508312Y-95379541D01*
X133508312Y-95379541D02*
X133555931Y-95284303D01*
X133555931Y-95284303D02*
X133555931Y-95093827D01*
X133555931Y-95093827D02*
X133508312Y-94998589D01*
X132889264Y-95903351D02*
X133889264Y-95903351D01*
X132936883Y-95903351D02*
X132889264Y-95998589D01*
X132889264Y-95998589D02*
X132889264Y-96189065D01*
X132889264Y-96189065D02*
X132936883Y-96284303D01*
X132936883Y-96284303D02*
X132984502Y-96331922D01*
X132984502Y-96331922D02*
X133079740Y-96379541D01*
X133079740Y-96379541D02*
X133365454Y-96379541D01*
X133365454Y-96379541D02*
X133460692Y-96331922D01*
X133460692Y-96331922D02*
X133508312Y-96284303D01*
X133508312Y-96284303D02*
X133555931Y-96189065D01*
X133555931Y-96189065D02*
X133555931Y-95998589D01*
X133555931Y-95998589D02*
X133508312Y-95903351D01*
X133555931Y-96950970D02*
X133508312Y-96855732D01*
X133508312Y-96855732D02*
X133413073Y-96808113D01*
X133413073Y-96808113D02*
X132555931Y-96808113D01*
X132889264Y-97236685D02*
X133555931Y-97474780D01*
X132889264Y-97712875D02*
X133555931Y-97474780D01*
X133555931Y-97474780D02*
X133794026Y-97379542D01*
X133794026Y-97379542D02*
X133841645Y-97331923D01*
X133841645Y-97331923D02*
X133889264Y-97236685D01*
X134689684Y-88665255D02*
X135165875Y-88665255D01*
X134165875Y-88331922D02*
X134689684Y-88665255D01*
X134689684Y-88665255D02*
X134165875Y-88998588D01*
X135165875Y-89474779D02*
X135118256Y-89379541D01*
X135118256Y-89379541D02*
X135070636Y-89331922D01*
X135070636Y-89331922D02*
X134975398Y-89284303D01*
X134975398Y-89284303D02*
X134689684Y-89284303D01*
X134689684Y-89284303D02*
X134594446Y-89331922D01*
X134594446Y-89331922D02*
X134546827Y-89379541D01*
X134546827Y-89379541D02*
X134499208Y-89474779D01*
X134499208Y-89474779D02*
X134499208Y-89617636D01*
X134499208Y-89617636D02*
X134546827Y-89712874D01*
X134546827Y-89712874D02*
X134594446Y-89760493D01*
X134594446Y-89760493D02*
X134689684Y-89808112D01*
X134689684Y-89808112D02*
X134975398Y-89808112D01*
X134975398Y-89808112D02*
X135070636Y-89760493D01*
X135070636Y-89760493D02*
X135118256Y-89712874D01*
X135118256Y-89712874D02*
X135165875Y-89617636D01*
X135165875Y-89617636D02*
X135165875Y-89474779D01*
X134499208Y-90665255D02*
X135165875Y-90665255D01*
X134499208Y-90236684D02*
X135023017Y-90236684D01*
X135023017Y-90236684D02*
X135118256Y-90284303D01*
X135118256Y-90284303D02*
X135165875Y-90379541D01*
X135165875Y-90379541D02*
X135165875Y-90522398D01*
X135165875Y-90522398D02*
X135118256Y-90617636D01*
X135118256Y-90617636D02*
X135070636Y-90665255D01*
X135165875Y-91141446D02*
X134499208Y-91141446D01*
X134689684Y-91141446D02*
X134594446Y-91189065D01*
X134594446Y-91189065D02*
X134546827Y-91236684D01*
X134546827Y-91236684D02*
X134499208Y-91331922D01*
X134499208Y-91331922D02*
X134499208Y-91427160D01*
X135165875Y-92522399D02*
X134165875Y-92522399D01*
X134165875Y-92522399D02*
X134165875Y-92760494D01*
X134165875Y-92760494D02*
X134213494Y-92903351D01*
X134213494Y-92903351D02*
X134308732Y-92998589D01*
X134308732Y-92998589D02*
X134403970Y-93046208D01*
X134403970Y-93046208D02*
X134594446Y-93093827D01*
X134594446Y-93093827D02*
X134737303Y-93093827D01*
X134737303Y-93093827D02*
X134927779Y-93046208D01*
X134927779Y-93046208D02*
X135023017Y-92998589D01*
X135023017Y-92998589D02*
X135118256Y-92903351D01*
X135118256Y-92903351D02*
X135165875Y-92760494D01*
X135165875Y-92760494D02*
X135165875Y-92522399D01*
X135165875Y-93522399D02*
X134499208Y-93522399D01*
X134689684Y-93522399D02*
X134594446Y-93570018D01*
X134594446Y-93570018D02*
X134546827Y-93617637D01*
X134546827Y-93617637D02*
X134499208Y-93712875D01*
X134499208Y-93712875D02*
X134499208Y-93808113D01*
X135118256Y-94522399D02*
X135165875Y-94427161D01*
X135165875Y-94427161D02*
X135165875Y-94236685D01*
X135165875Y-94236685D02*
X135118256Y-94141447D01*
X135118256Y-94141447D02*
X135023017Y-94093828D01*
X135023017Y-94093828D02*
X134642065Y-94093828D01*
X134642065Y-94093828D02*
X134546827Y-94141447D01*
X134546827Y-94141447D02*
X134499208Y-94236685D01*
X134499208Y-94236685D02*
X134499208Y-94427161D01*
X134499208Y-94427161D02*
X134546827Y-94522399D01*
X134546827Y-94522399D02*
X134642065Y-94570018D01*
X134642065Y-94570018D02*
X134737303Y-94570018D01*
X134737303Y-94570018D02*
X134832541Y-94093828D01*
X135165875Y-95427161D02*
X134642065Y-95427161D01*
X134642065Y-95427161D02*
X134546827Y-95379542D01*
X134546827Y-95379542D02*
X134499208Y-95284304D01*
X134499208Y-95284304D02*
X134499208Y-95093828D01*
X134499208Y-95093828D02*
X134546827Y-94998590D01*
X135118256Y-95427161D02*
X135165875Y-95331923D01*
X135165875Y-95331923D02*
X135165875Y-95093828D01*
X135165875Y-95093828D02*
X135118256Y-94998590D01*
X135118256Y-94998590D02*
X135023017Y-94950971D01*
X135023017Y-94950971D02*
X134927779Y-94950971D01*
X134927779Y-94950971D02*
X134832541Y-94998590D01*
X134832541Y-94998590D02*
X134784922Y-95093828D01*
X134784922Y-95093828D02*
X134784922Y-95331923D01*
X134784922Y-95331923D02*
X134737303Y-95427161D01*
X135165875Y-95903352D02*
X134499208Y-95903352D01*
X134594446Y-95903352D02*
X134546827Y-95950971D01*
X134546827Y-95950971D02*
X134499208Y-96046209D01*
X134499208Y-96046209D02*
X134499208Y-96189066D01*
X134499208Y-96189066D02*
X134546827Y-96284304D01*
X134546827Y-96284304D02*
X134642065Y-96331923D01*
X134642065Y-96331923D02*
X135165875Y-96331923D01*
X134642065Y-96331923D02*
X134546827Y-96379542D01*
X134546827Y-96379542D02*
X134499208Y-96474780D01*
X134499208Y-96474780D02*
X134499208Y-96617637D01*
X134499208Y-96617637D02*
X134546827Y-96712876D01*
X134546827Y-96712876D02*
X134642065Y-96760495D01*
X134642065Y-96760495D02*
X135165875Y-96760495D01*
X135118256Y-97189066D02*
X135165875Y-97284304D01*
X135165875Y-97284304D02*
X135165875Y-97474780D01*
X135165875Y-97474780D02*
X135118256Y-97570018D01*
X135118256Y-97570018D02*
X135023017Y-97617637D01*
X135023017Y-97617637D02*
X134975398Y-97617637D01*
X134975398Y-97617637D02*
X134880160Y-97570018D01*
X134880160Y-97570018D02*
X134832541Y-97474780D01*
X134832541Y-97474780D02*
X134832541Y-97331923D01*
X134832541Y-97331923D02*
X134784922Y-97236685D01*
X134784922Y-97236685D02*
X134689684Y-97189066D01*
X134689684Y-97189066D02*
X134642065Y-97189066D01*
X134642065Y-97189066D02*
X134546827Y-97236685D01*
X134546827Y-97236685D02*
X134499208Y-97331923D01*
X134499208Y-97331923D02*
X134499208Y-97474780D01*
X134499208Y-97474780D02*
X134546827Y-97570018D01*
X136775819Y-88474779D02*
X135775819Y-88474779D01*
X135775819Y-88474779D02*
X135775819Y-88712874D01*
X135775819Y-88712874D02*
X135823438Y-88855731D01*
X135823438Y-88855731D02*
X135918676Y-88950969D01*
X135918676Y-88950969D02*
X136013914Y-88998588D01*
X136013914Y-88998588D02*
X136204390Y-89046207D01*
X136204390Y-89046207D02*
X136347247Y-89046207D01*
X136347247Y-89046207D02*
X136537723Y-88998588D01*
X136537723Y-88998588D02*
X136632961Y-88950969D01*
X136632961Y-88950969D02*
X136728200Y-88855731D01*
X136728200Y-88855731D02*
X136775819Y-88712874D01*
X136775819Y-88712874D02*
X136775819Y-88474779D01*
X136728200Y-89855731D02*
X136775819Y-89760493D01*
X136775819Y-89760493D02*
X136775819Y-89570017D01*
X136775819Y-89570017D02*
X136728200Y-89474779D01*
X136728200Y-89474779D02*
X136632961Y-89427160D01*
X136632961Y-89427160D02*
X136252009Y-89427160D01*
X136252009Y-89427160D02*
X136156771Y-89474779D01*
X136156771Y-89474779D02*
X136109152Y-89570017D01*
X136109152Y-89570017D02*
X136109152Y-89760493D01*
X136109152Y-89760493D02*
X136156771Y-89855731D01*
X136156771Y-89855731D02*
X136252009Y-89903350D01*
X136252009Y-89903350D02*
X136347247Y-89903350D01*
X136347247Y-89903350D02*
X136442485Y-89427160D01*
X136775819Y-90760493D02*
X136252009Y-90760493D01*
X136252009Y-90760493D02*
X136156771Y-90712874D01*
X136156771Y-90712874D02*
X136109152Y-90617636D01*
X136109152Y-90617636D02*
X136109152Y-90427160D01*
X136109152Y-90427160D02*
X136156771Y-90331922D01*
X136728200Y-90760493D02*
X136775819Y-90665255D01*
X136775819Y-90665255D02*
X136775819Y-90427160D01*
X136775819Y-90427160D02*
X136728200Y-90331922D01*
X136728200Y-90331922D02*
X136632961Y-90284303D01*
X136632961Y-90284303D02*
X136537723Y-90284303D01*
X136537723Y-90284303D02*
X136442485Y-90331922D01*
X136442485Y-90331922D02*
X136394866Y-90427160D01*
X136394866Y-90427160D02*
X136394866Y-90665255D01*
X136394866Y-90665255D02*
X136347247Y-90760493D01*
X136775819Y-91236684D02*
X136109152Y-91236684D01*
X136299628Y-91236684D02*
X136204390Y-91284303D01*
X136204390Y-91284303D02*
X136156771Y-91331922D01*
X136156771Y-91331922D02*
X136109152Y-91427160D01*
X136109152Y-91427160D02*
X136109152Y-91522398D01*
X136680580Y-92617637D02*
X136728200Y-92665256D01*
X136728200Y-92665256D02*
X136775819Y-92617637D01*
X136775819Y-92617637D02*
X136728200Y-92570018D01*
X136728200Y-92570018D02*
X136680580Y-92617637D01*
X136680580Y-92617637D02*
X136775819Y-92617637D01*
X136156771Y-92617637D02*
X136204390Y-92665256D01*
X136204390Y-92665256D02*
X136252009Y-92617637D01*
X136252009Y-92617637D02*
X136204390Y-92570018D01*
X136204390Y-92570018D02*
X136156771Y-92617637D01*
X136156771Y-92617637D02*
X136252009Y-92617637D01*
X137156771Y-92998589D02*
X137109152Y-93046208D01*
X137109152Y-93046208D02*
X136966295Y-93141446D01*
X136966295Y-93141446D02*
X136871057Y-93189065D01*
X136871057Y-93189065D02*
X136728200Y-93236684D01*
X136728200Y-93236684D02*
X136490104Y-93284303D01*
X136490104Y-93284303D02*
X136299628Y-93284303D01*
X136299628Y-93284303D02*
X136061533Y-93236684D01*
X136061533Y-93236684D02*
X135918676Y-93189065D01*
X135918676Y-93189065D02*
X135823438Y-93141446D01*
X135823438Y-93141446D02*
X135680580Y-93046208D01*
X135680580Y-93046208D02*
X135632961Y-92998589D01*
X137350121Y-79664112D02*
X137397740Y-79806969D01*
X137397740Y-79806969D02*
X137445359Y-79854588D01*
X137445359Y-79854588D02*
X137540597Y-79902207D01*
X137540597Y-79902207D02*
X137683454Y-79902207D01*
X137683454Y-79902207D02*
X137778692Y-79854588D01*
X137778692Y-79854588D02*
X137826312Y-79806969D01*
X137826312Y-79806969D02*
X137873931Y-79711731D01*
X137873931Y-79711731D02*
X137873931Y-79330779D01*
X137873931Y-79330779D02*
X136873931Y-79330779D01*
X136873931Y-79330779D02*
X136873931Y-79664112D01*
X136873931Y-79664112D02*
X136921550Y-79759350D01*
X136921550Y-79759350D02*
X136969169Y-79806969D01*
X136969169Y-79806969D02*
X137064407Y-79854588D01*
X137064407Y-79854588D02*
X137159645Y-79854588D01*
X137159645Y-79854588D02*
X137254883Y-79806969D01*
X137254883Y-79806969D02*
X137302502Y-79759350D01*
X137302502Y-79759350D02*
X137350121Y-79664112D01*
X137350121Y-79664112D02*
X137350121Y-79330779D01*
X137873931Y-80330779D02*
X137207264Y-80330779D01*
X137397740Y-80330779D02*
X137302502Y-80378398D01*
X137302502Y-80378398D02*
X137254883Y-80426017D01*
X137254883Y-80426017D02*
X137207264Y-80521255D01*
X137207264Y-80521255D02*
X137207264Y-80616493D01*
X137826312Y-81330779D02*
X137873931Y-81235541D01*
X137873931Y-81235541D02*
X137873931Y-81045065D01*
X137873931Y-81045065D02*
X137826312Y-80949827D01*
X137826312Y-80949827D02*
X137731073Y-80902208D01*
X137731073Y-80902208D02*
X137350121Y-80902208D01*
X137350121Y-80902208D02*
X137254883Y-80949827D01*
X137254883Y-80949827D02*
X137207264Y-81045065D01*
X137207264Y-81045065D02*
X137207264Y-81235541D01*
X137207264Y-81235541D02*
X137254883Y-81330779D01*
X137254883Y-81330779D02*
X137350121Y-81378398D01*
X137350121Y-81378398D02*
X137445359Y-81378398D01*
X137445359Y-81378398D02*
X137540597Y-80902208D01*
X137873931Y-82235541D02*
X137350121Y-82235541D01*
X137350121Y-82235541D02*
X137254883Y-82187922D01*
X137254883Y-82187922D02*
X137207264Y-82092684D01*
X137207264Y-82092684D02*
X137207264Y-81902208D01*
X137207264Y-81902208D02*
X137254883Y-81806970D01*
X137826312Y-82235541D02*
X137873931Y-82140303D01*
X137873931Y-82140303D02*
X137873931Y-81902208D01*
X137873931Y-81902208D02*
X137826312Y-81806970D01*
X137826312Y-81806970D02*
X137731073Y-81759351D01*
X137731073Y-81759351D02*
X137635835Y-81759351D01*
X137635835Y-81759351D02*
X137540597Y-81806970D01*
X137540597Y-81806970D02*
X137492978Y-81902208D01*
X137492978Y-81902208D02*
X137492978Y-82140303D01*
X137492978Y-82140303D02*
X137445359Y-82235541D01*
X137873931Y-83140303D02*
X136873931Y-83140303D01*
X137826312Y-83140303D02*
X137873931Y-83045065D01*
X137873931Y-83045065D02*
X137873931Y-82854589D01*
X137873931Y-82854589D02*
X137826312Y-82759351D01*
X137826312Y-82759351D02*
X137778692Y-82711732D01*
X137778692Y-82711732D02*
X137683454Y-82664113D01*
X137683454Y-82664113D02*
X137397740Y-82664113D01*
X137397740Y-82664113D02*
X137302502Y-82711732D01*
X137302502Y-82711732D02*
X137254883Y-82759351D01*
X137254883Y-82759351D02*
X137207264Y-82854589D01*
X137207264Y-82854589D02*
X137207264Y-83045065D01*
X137207264Y-83045065D02*
X137254883Y-83140303D01*
X137873931Y-83616494D02*
X136873931Y-83616494D01*
X137254883Y-83616494D02*
X137207264Y-83711732D01*
X137207264Y-83711732D02*
X137207264Y-83902208D01*
X137207264Y-83902208D02*
X137254883Y-83997446D01*
X137254883Y-83997446D02*
X137302502Y-84045065D01*
X137302502Y-84045065D02*
X137397740Y-84092684D01*
X137397740Y-84092684D02*
X137683454Y-84092684D01*
X137683454Y-84092684D02*
X137778692Y-84045065D01*
X137778692Y-84045065D02*
X137826312Y-83997446D01*
X137826312Y-83997446D02*
X137873931Y-83902208D01*
X137873931Y-83902208D02*
X137873931Y-83711732D01*
X137873931Y-83711732D02*
X137826312Y-83616494D01*
X137873931Y-84664113D02*
X137826312Y-84568875D01*
X137826312Y-84568875D02*
X137778692Y-84521256D01*
X137778692Y-84521256D02*
X137683454Y-84473637D01*
X137683454Y-84473637D02*
X137397740Y-84473637D01*
X137397740Y-84473637D02*
X137302502Y-84521256D01*
X137302502Y-84521256D02*
X137254883Y-84568875D01*
X137254883Y-84568875D02*
X137207264Y-84664113D01*
X137207264Y-84664113D02*
X137207264Y-84806970D01*
X137207264Y-84806970D02*
X137254883Y-84902208D01*
X137254883Y-84902208D02*
X137302502Y-84949827D01*
X137302502Y-84949827D02*
X137397740Y-84997446D01*
X137397740Y-84997446D02*
X137683454Y-84997446D01*
X137683454Y-84997446D02*
X137778692Y-84949827D01*
X137778692Y-84949827D02*
X137826312Y-84902208D01*
X137826312Y-84902208D02*
X137873931Y-84806970D01*
X137873931Y-84806970D02*
X137873931Y-84664113D01*
X137873931Y-85854589D02*
X137350121Y-85854589D01*
X137350121Y-85854589D02*
X137254883Y-85806970D01*
X137254883Y-85806970D02*
X137207264Y-85711732D01*
X137207264Y-85711732D02*
X137207264Y-85521256D01*
X137207264Y-85521256D02*
X137254883Y-85426018D01*
X137826312Y-85854589D02*
X137873931Y-85759351D01*
X137873931Y-85759351D02*
X137873931Y-85521256D01*
X137873931Y-85521256D02*
X137826312Y-85426018D01*
X137826312Y-85426018D02*
X137731073Y-85378399D01*
X137731073Y-85378399D02*
X137635835Y-85378399D01*
X137635835Y-85378399D02*
X137540597Y-85426018D01*
X137540597Y-85426018D02*
X137492978Y-85521256D01*
X137492978Y-85521256D02*
X137492978Y-85759351D01*
X137492978Y-85759351D02*
X137445359Y-85854589D01*
X137873931Y-86330780D02*
X137207264Y-86330780D01*
X137397740Y-86330780D02*
X137302502Y-86378399D01*
X137302502Y-86378399D02*
X137254883Y-86426018D01*
X137254883Y-86426018D02*
X137207264Y-86521256D01*
X137207264Y-86521256D02*
X137207264Y-86616494D01*
X137873931Y-87378399D02*
X136873931Y-87378399D01*
X137826312Y-87378399D02*
X137873931Y-87283161D01*
X137873931Y-87283161D02*
X137873931Y-87092685D01*
X137873931Y-87092685D02*
X137826312Y-86997447D01*
X137826312Y-86997447D02*
X137778692Y-86949828D01*
X137778692Y-86949828D02*
X137683454Y-86902209D01*
X137683454Y-86902209D02*
X137397740Y-86902209D01*
X137397740Y-86902209D02*
X137302502Y-86949828D01*
X137302502Y-86949828D02*
X137254883Y-86997447D01*
X137254883Y-86997447D02*
X137207264Y-87092685D01*
X137207264Y-87092685D02*
X137207264Y-87283161D01*
X137207264Y-87283161D02*
X137254883Y-87378399D01*
X139483875Y-79330779D02*
X138483875Y-79330779D01*
X138483875Y-79330779D02*
X138483875Y-79711731D01*
X138483875Y-79711731D02*
X138531494Y-79806969D01*
X138531494Y-79806969D02*
X138579113Y-79854588D01*
X138579113Y-79854588D02*
X138674351Y-79902207D01*
X138674351Y-79902207D02*
X138817208Y-79902207D01*
X138817208Y-79902207D02*
X138912446Y-79854588D01*
X138912446Y-79854588D02*
X138960065Y-79806969D01*
X138960065Y-79806969D02*
X139007684Y-79711731D01*
X139007684Y-79711731D02*
X139007684Y-79330779D01*
X139483875Y-80473636D02*
X139436256Y-80378398D01*
X139436256Y-80378398D02*
X139388636Y-80330779D01*
X139388636Y-80330779D02*
X139293398Y-80283160D01*
X139293398Y-80283160D02*
X139007684Y-80283160D01*
X139007684Y-80283160D02*
X138912446Y-80330779D01*
X138912446Y-80330779D02*
X138864827Y-80378398D01*
X138864827Y-80378398D02*
X138817208Y-80473636D01*
X138817208Y-80473636D02*
X138817208Y-80616493D01*
X138817208Y-80616493D02*
X138864827Y-80711731D01*
X138864827Y-80711731D02*
X138912446Y-80759350D01*
X138912446Y-80759350D02*
X139007684Y-80806969D01*
X139007684Y-80806969D02*
X139293398Y-80806969D01*
X139293398Y-80806969D02*
X139388636Y-80759350D01*
X139388636Y-80759350D02*
X139436256Y-80711731D01*
X139436256Y-80711731D02*
X139483875Y-80616493D01*
X139483875Y-80616493D02*
X139483875Y-80473636D01*
X138817208Y-81140303D02*
X139483875Y-81330779D01*
X139483875Y-81330779D02*
X139007684Y-81521255D01*
X139007684Y-81521255D02*
X139483875Y-81711731D01*
X139483875Y-81711731D02*
X138817208Y-81902207D01*
X139436256Y-82664112D02*
X139483875Y-82568874D01*
X139483875Y-82568874D02*
X139483875Y-82378398D01*
X139483875Y-82378398D02*
X139436256Y-82283160D01*
X139436256Y-82283160D02*
X139341017Y-82235541D01*
X139341017Y-82235541D02*
X138960065Y-82235541D01*
X138960065Y-82235541D02*
X138864827Y-82283160D01*
X138864827Y-82283160D02*
X138817208Y-82378398D01*
X138817208Y-82378398D02*
X138817208Y-82568874D01*
X138817208Y-82568874D02*
X138864827Y-82664112D01*
X138864827Y-82664112D02*
X138960065Y-82711731D01*
X138960065Y-82711731D02*
X139055303Y-82711731D01*
X139055303Y-82711731D02*
X139150541Y-82235541D01*
X139483875Y-83140303D02*
X138817208Y-83140303D01*
X139007684Y-83140303D02*
X138912446Y-83187922D01*
X138912446Y-83187922D02*
X138864827Y-83235541D01*
X138864827Y-83235541D02*
X138817208Y-83330779D01*
X138817208Y-83330779D02*
X138817208Y-83426017D01*
X141046200Y-79283160D02*
X141093819Y-79426017D01*
X141093819Y-79426017D02*
X141093819Y-79664112D01*
X141093819Y-79664112D02*
X141046200Y-79759350D01*
X141046200Y-79759350D02*
X140998580Y-79806969D01*
X140998580Y-79806969D02*
X140903342Y-79854588D01*
X140903342Y-79854588D02*
X140808104Y-79854588D01*
X140808104Y-79854588D02*
X140712866Y-79806969D01*
X140712866Y-79806969D02*
X140665247Y-79759350D01*
X140665247Y-79759350D02*
X140617628Y-79664112D01*
X140617628Y-79664112D02*
X140570009Y-79473636D01*
X140570009Y-79473636D02*
X140522390Y-79378398D01*
X140522390Y-79378398D02*
X140474771Y-79330779D01*
X140474771Y-79330779D02*
X140379533Y-79283160D01*
X140379533Y-79283160D02*
X140284295Y-79283160D01*
X140284295Y-79283160D02*
X140189057Y-79330779D01*
X140189057Y-79330779D02*
X140141438Y-79378398D01*
X140141438Y-79378398D02*
X140093819Y-79473636D01*
X140093819Y-79473636D02*
X140093819Y-79711731D01*
X140093819Y-79711731D02*
X140141438Y-79854588D01*
X140427152Y-80711731D02*
X141093819Y-80711731D01*
X140427152Y-80283160D02*
X140950961Y-80283160D01*
X140950961Y-80283160D02*
X141046200Y-80330779D01*
X141046200Y-80330779D02*
X141093819Y-80426017D01*
X141093819Y-80426017D02*
X141093819Y-80568874D01*
X141093819Y-80568874D02*
X141046200Y-80664112D01*
X141046200Y-80664112D02*
X140998580Y-80711731D01*
X140427152Y-81187922D02*
X141427152Y-81187922D01*
X140474771Y-81187922D02*
X140427152Y-81283160D01*
X140427152Y-81283160D02*
X140427152Y-81473636D01*
X140427152Y-81473636D02*
X140474771Y-81568874D01*
X140474771Y-81568874D02*
X140522390Y-81616493D01*
X140522390Y-81616493D02*
X140617628Y-81664112D01*
X140617628Y-81664112D02*
X140903342Y-81664112D01*
X140903342Y-81664112D02*
X140998580Y-81616493D01*
X140998580Y-81616493D02*
X141046200Y-81568874D01*
X141046200Y-81568874D02*
X141093819Y-81473636D01*
X141093819Y-81473636D02*
X141093819Y-81283160D01*
X141093819Y-81283160D02*
X141046200Y-81187922D01*
X140427152Y-82092684D02*
X141427152Y-82092684D01*
X140474771Y-82092684D02*
X140427152Y-82187922D01*
X140427152Y-82187922D02*
X140427152Y-82378398D01*
X140427152Y-82378398D02*
X140474771Y-82473636D01*
X140474771Y-82473636D02*
X140522390Y-82521255D01*
X140522390Y-82521255D02*
X140617628Y-82568874D01*
X140617628Y-82568874D02*
X140903342Y-82568874D01*
X140903342Y-82568874D02*
X140998580Y-82521255D01*
X140998580Y-82521255D02*
X141046200Y-82473636D01*
X141046200Y-82473636D02*
X141093819Y-82378398D01*
X141093819Y-82378398D02*
X141093819Y-82187922D01*
X141093819Y-82187922D02*
X141046200Y-82092684D01*
X141093819Y-83140303D02*
X141046200Y-83045065D01*
X141046200Y-83045065D02*
X140950961Y-82997446D01*
X140950961Y-82997446D02*
X140093819Y-82997446D01*
X140427152Y-83426018D02*
X141093819Y-83664113D01*
X140427152Y-83902208D02*
X141093819Y-83664113D01*
X141093819Y-83664113D02*
X141331914Y-83568875D01*
X141331914Y-83568875D02*
X141379533Y-83521256D01*
X141379533Y-83521256D02*
X141427152Y-83426018D01*
D11*
X136705620Y-81280000D02*
G75*
G02*
X133042380Y-81280000I-1831620J0D01*
G01*
X133042380Y-81280000D02*
G75*
G02*
X136705620Y-81280000I1831620J0D01*
G01*
D10*
X134585152Y-79997541D02*
X135251819Y-80235636D01*
X135251819Y-80235636D02*
X134585152Y-80473731D01*
X134251819Y-81045160D02*
X134251819Y-81140398D01*
X134251819Y-81140398D02*
X134299438Y-81235636D01*
X134299438Y-81235636D02*
X134347057Y-81283255D01*
X134347057Y-81283255D02*
X134442295Y-81330874D01*
X134442295Y-81330874D02*
X134632771Y-81378493D01*
X134632771Y-81378493D02*
X134870866Y-81378493D01*
X134870866Y-81378493D02*
X135061342Y-81330874D01*
X135061342Y-81330874D02*
X135156580Y-81283255D01*
X135156580Y-81283255D02*
X135204200Y-81235636D01*
X135204200Y-81235636D02*
X135251819Y-81140398D01*
X135251819Y-81140398D02*
X135251819Y-81045160D01*
X135251819Y-81045160D02*
X135204200Y-80949922D01*
X135204200Y-80949922D02*
X135156580Y-80902303D01*
X135156580Y-80902303D02*
X135061342Y-80854684D01*
X135061342Y-80854684D02*
X134870866Y-80807065D01*
X134870866Y-80807065D02*
X134632771Y-80807065D01*
X134632771Y-80807065D02*
X134442295Y-80854684D01*
X134442295Y-80854684D02*
X134347057Y-80902303D01*
X134347057Y-80902303D02*
X134299438Y-80949922D01*
X134299438Y-80949922D02*
X134251819Y-81045160D01*
X135156580Y-81807065D02*
X135204200Y-81854684D01*
X135204200Y-81854684D02*
X135251819Y-81807065D01*
X135251819Y-81807065D02*
X135204200Y-81759446D01*
X135204200Y-81759446D02*
X135156580Y-81807065D01*
X135156580Y-81807065D02*
X135251819Y-81807065D01*
X135251819Y-82807064D02*
X135251819Y-82235636D01*
X135251819Y-82521350D02*
X134251819Y-82521350D01*
X134251819Y-82521350D02*
X134394676Y-82426112D01*
X134394676Y-82426112D02*
X134489914Y-82330874D01*
X134489914Y-82330874D02*
X134537533Y-82235636D01*
D12*
%TO.C,REF\u002A\u002A*%
X152587264Y-101908873D02*
X152604739Y-101940233D01*
X152605575Y-101976034D01*
X152585082Y-102007472D01*
X152580416Y-102011348D01*
X152570949Y-102016814D01*
X152557267Y-102021021D01*
X152536748Y-102024133D01*
X152506768Y-102026313D01*
X152464704Y-102027724D01*
X152407932Y-102028529D01*
X152333830Y-102028893D01*
X152239773Y-102028978D01*
X151918227Y-102028978D01*
X151896647Y-102002327D01*
X151881877Y-101978614D01*
X151875067Y-101955600D01*
X151880949Y-101934594D01*
X151896647Y-101908873D01*
X151918227Y-101882222D01*
X152565684Y-101882222D01*
X152587264Y-101908873D01*
G36*
X152587264Y-101908873D02*
G01*
X152604739Y-101940233D01*
X152605575Y-101976034D01*
X152585082Y-102007472D01*
X152580416Y-102011348D01*
X152570949Y-102016814D01*
X152557267Y-102021021D01*
X152536748Y-102024133D01*
X152506768Y-102026313D01*
X152464704Y-102027724D01*
X152407932Y-102028529D01*
X152333830Y-102028893D01*
X152239773Y-102028978D01*
X151918227Y-102028978D01*
X151896647Y-102002327D01*
X151881877Y-101978614D01*
X151875067Y-101955600D01*
X151880949Y-101934594D01*
X151896647Y-101908873D01*
X151918227Y-101882222D01*
X152565684Y-101882222D01*
X152587264Y-101908873D01*
G37*
X152327567Y-94742041D02*
X152401789Y-94742299D01*
X152458541Y-94742970D01*
X152500512Y-94744248D01*
X152530389Y-94746327D01*
X152550861Y-94749401D01*
X152564614Y-94753666D01*
X152574337Y-94759316D01*
X152582717Y-94766545D01*
X152604181Y-94798009D01*
X152605947Y-94833174D01*
X152586267Y-94866178D01*
X152580398Y-94871484D01*
X152571314Y-94876934D01*
X152557973Y-94881100D01*
X152537757Y-94884154D01*
X152508049Y-94886268D01*
X152466232Y-94887614D01*
X152409689Y-94888362D01*
X152335802Y-94888686D01*
X152241956Y-94888755D01*
X152166294Y-94888716D01*
X152088385Y-94888461D01*
X152028375Y-94887817D01*
X151983648Y-94886613D01*
X151951585Y-94884676D01*
X151929571Y-94881836D01*
X151914987Y-94877921D01*
X151905218Y-94872758D01*
X151897645Y-94866178D01*
X151878623Y-94836994D01*
X151879463Y-94803863D01*
X151902776Y-94769709D01*
X151930485Y-94742000D01*
X152243537Y-94742000D01*
X152327567Y-94742041D01*
G36*
X152327567Y-94742041D02*
G01*
X152401789Y-94742299D01*
X152458541Y-94742970D01*
X152500512Y-94744248D01*
X152530389Y-94746327D01*
X152550861Y-94749401D01*
X152564614Y-94753666D01*
X152574337Y-94759316D01*
X152582717Y-94766545D01*
X152604181Y-94798009D01*
X152605947Y-94833174D01*
X152586267Y-94866178D01*
X152580398Y-94871484D01*
X152571314Y-94876934D01*
X152557973Y-94881100D01*
X152537757Y-94884154D01*
X152508049Y-94886268D01*
X152466232Y-94887614D01*
X152409689Y-94888362D01*
X152335802Y-94888686D01*
X152241956Y-94888755D01*
X152166294Y-94888716D01*
X152088385Y-94888461D01*
X152028375Y-94887817D01*
X151983648Y-94886613D01*
X151951585Y-94884676D01*
X151929571Y-94881836D01*
X151914987Y-94877921D01*
X151905218Y-94872758D01*
X151897645Y-94866178D01*
X151878623Y-94836994D01*
X151879463Y-94803863D01*
X151902776Y-94769709D01*
X151930485Y-94742000D01*
X152243537Y-94742000D01*
X152327567Y-94742041D01*
G37*
X147140307Y-94985331D02*
X147181450Y-94987540D01*
X147213582Y-94993106D01*
X147244122Y-95003414D01*
X147280489Y-95019852D01*
X147307728Y-95033800D01*
X147393429Y-95092335D01*
X147462617Y-95164381D01*
X147513741Y-95248053D01*
X147545250Y-95341469D01*
X147552225Y-95374566D01*
X147559094Y-95415040D01*
X147560919Y-95448001D01*
X147557947Y-95482302D01*
X147550426Y-95526800D01*
X147538002Y-95578066D01*
X147500112Y-95668566D01*
X147445836Y-95747655D01*
X147377770Y-95813472D01*
X147298511Y-95864160D01*
X147210654Y-95897860D01*
X147116795Y-95912714D01*
X147019530Y-95906864D01*
X146923220Y-95880601D01*
X146834494Y-95835582D01*
X146759419Y-95774627D01*
X146699641Y-95699816D01*
X146656809Y-95613232D01*
X146632571Y-95516957D01*
X146628576Y-95413072D01*
X146638850Y-95335438D01*
X146666053Y-95252687D01*
X146711484Y-95177594D01*
X146777302Y-95105702D01*
X146821567Y-95067154D01*
X146879961Y-95027744D01*
X146940586Y-95002554D01*
X147009865Y-94989139D01*
X147094222Y-94985052D01*
X147140307Y-94985331D01*
G36*
X147140307Y-94985331D02*
G01*
X147181450Y-94987540D01*
X147213582Y-94993106D01*
X147244122Y-95003414D01*
X147280489Y-95019852D01*
X147307728Y-95033800D01*
X147393429Y-95092335D01*
X147462617Y-95164381D01*
X147513741Y-95248053D01*
X147545250Y-95341469D01*
X147552225Y-95374566D01*
X147559094Y-95415040D01*
X147560919Y-95448001D01*
X147557947Y-95482302D01*
X147550426Y-95526800D01*
X147538002Y-95578066D01*
X147500112Y-95668566D01*
X147445836Y-95747655D01*
X147377770Y-95813472D01*
X147298511Y-95864160D01*
X147210654Y-95897860D01*
X147116795Y-95912714D01*
X147019530Y-95906864D01*
X146923220Y-95880601D01*
X146834494Y-95835582D01*
X146759419Y-95774627D01*
X146699641Y-95699816D01*
X146656809Y-95613232D01*
X146632571Y-95516957D01*
X146628576Y-95413072D01*
X146638850Y-95335438D01*
X146666053Y-95252687D01*
X146711484Y-95177594D01*
X146777302Y-95105702D01*
X146821567Y-95067154D01*
X146879961Y-95027744D01*
X146940586Y-95002554D01*
X147009865Y-94989139D01*
X147094222Y-94985052D01*
X147140307Y-94985331D01*
G37*
X152001178Y-102279083D02*
X152002631Y-102280443D01*
X152010992Y-102291646D01*
X152016547Y-102308748D01*
X152019840Y-102335918D01*
X152021418Y-102377322D01*
X152021822Y-102437127D01*
X152021822Y-102576489D01*
X152285589Y-102576489D01*
X152361417Y-102576564D01*
X152428083Y-102576972D01*
X152477867Y-102577954D01*
X152513784Y-102579750D01*
X152538850Y-102582601D01*
X152556081Y-102586747D01*
X152568492Y-102592429D01*
X152579100Y-102599886D01*
X152581906Y-102602176D01*
X152604548Y-102633354D01*
X152606112Y-102667734D01*
X152586267Y-102700666D01*
X152578191Y-102707645D01*
X152567593Y-102713117D01*
X152551749Y-102717137D01*
X152527773Y-102719928D01*
X152492774Y-102721712D01*
X152443864Y-102722711D01*
X152378154Y-102723148D01*
X152292756Y-102723244D01*
X152021822Y-102723244D01*
X152021822Y-102869180D01*
X152021821Y-102880280D01*
X152021596Y-102936798D01*
X152020457Y-102975642D01*
X152017657Y-103001035D01*
X152012450Y-103017196D01*
X152004089Y-103028348D01*
X151991826Y-103038711D01*
X151961138Y-103054559D01*
X151927358Y-103051457D01*
X151894822Y-103025813D01*
X151891105Y-103020871D01*
X151886269Y-103010662D01*
X151882506Y-102995236D01*
X151879683Y-102972114D01*
X151877670Y-102938817D01*
X151876333Y-102892863D01*
X151875542Y-102831772D01*
X151875163Y-102753065D01*
X151875067Y-102654260D01*
X151875068Y-102634233D01*
X151875158Y-102540110D01*
X151875498Y-102465595D01*
X151876239Y-102408189D01*
X151877535Y-102365389D01*
X151879537Y-102334696D01*
X151882396Y-102313609D01*
X151886266Y-102299627D01*
X151891298Y-102290250D01*
X151897645Y-102282978D01*
X151930362Y-102264172D01*
X151967939Y-102262725D01*
X152001178Y-102279083D01*
G36*
X152001178Y-102279083D02*
G01*
X152002631Y-102280443D01*
X152010992Y-102291646D01*
X152016547Y-102308748D01*
X152019840Y-102335918D01*
X152021418Y-102377322D01*
X152021822Y-102437127D01*
X152021822Y-102576489D01*
X152285589Y-102576489D01*
X152361417Y-102576564D01*
X152428083Y-102576972D01*
X152477867Y-102577954D01*
X152513784Y-102579750D01*
X152538850Y-102582601D01*
X152556081Y-102586747D01*
X152568492Y-102592429D01*
X152579100Y-102599886D01*
X152581906Y-102602176D01*
X152604548Y-102633354D01*
X152606112Y-102667734D01*
X152586267Y-102700666D01*
X152578191Y-102707645D01*
X152567593Y-102713117D01*
X152551749Y-102717137D01*
X152527773Y-102719928D01*
X152492774Y-102721712D01*
X152443864Y-102722711D01*
X152378154Y-102723148D01*
X152292756Y-102723244D01*
X152021822Y-102723244D01*
X152021822Y-102869180D01*
X152021821Y-102880280D01*
X152021596Y-102936798D01*
X152020457Y-102975642D01*
X152017657Y-103001035D01*
X152012450Y-103017196D01*
X152004089Y-103028348D01*
X151991826Y-103038711D01*
X151961138Y-103054559D01*
X151927358Y-103051457D01*
X151894822Y-103025813D01*
X151891105Y-103020871D01*
X151886269Y-103010662D01*
X151882506Y-102995236D01*
X151879683Y-102972114D01*
X151877670Y-102938817D01*
X151876333Y-102892863D01*
X151875542Y-102831772D01*
X151875163Y-102753065D01*
X151875067Y-102654260D01*
X151875068Y-102634233D01*
X151875158Y-102540110D01*
X151875498Y-102465595D01*
X151876239Y-102408189D01*
X151877535Y-102365389D01*
X151879537Y-102334696D01*
X151882396Y-102313609D01*
X151886266Y-102299627D01*
X151891298Y-102290250D01*
X151897645Y-102282978D01*
X151930362Y-102264172D01*
X151967939Y-102262725D01*
X152001178Y-102279083D01*
G37*
X152283631Y-103286891D02*
X152400000Y-103287375D01*
X152414175Y-103287443D01*
X152475937Y-103288029D01*
X152519620Y-103289352D01*
X152549001Y-103291897D01*
X152567855Y-103296152D01*
X152579959Y-103302604D01*
X152589089Y-103311738D01*
X152606506Y-103345196D01*
X152603604Y-103380144D01*
X152579100Y-103411047D01*
X152565897Y-103420056D01*
X152547361Y-103427508D01*
X152521333Y-103431876D01*
X152482787Y-103433931D01*
X152426700Y-103434444D01*
X152304045Y-103434444D01*
X152304045Y-103931155D01*
X152438871Y-103931155D01*
X152474662Y-103931228D01*
X152520992Y-103931991D01*
X152551526Y-103934167D01*
X152570557Y-103938464D01*
X152582374Y-103945588D01*
X152591271Y-103956245D01*
X152606341Y-103988496D01*
X152603673Y-104023783D01*
X152579100Y-104054514D01*
X152572845Y-104059169D01*
X152562321Y-104065105D01*
X152548391Y-104069636D01*
X152528317Y-104072952D01*
X152499360Y-104075241D01*
X152458780Y-104076692D01*
X152403840Y-104077495D01*
X152331799Y-104077838D01*
X152239920Y-104077911D01*
X151930485Y-104077911D01*
X151902776Y-104050202D01*
X151880533Y-104018823D01*
X151877844Y-103985594D01*
X151897645Y-103953733D01*
X151907415Y-103945447D01*
X151923307Y-103938035D01*
X151947275Y-103933698D01*
X151984148Y-103931662D01*
X152038756Y-103931155D01*
X152157289Y-103931155D01*
X152157289Y-103434444D01*
X152041776Y-103434444D01*
X151990078Y-103434006D01*
X151955554Y-103432042D01*
X151932978Y-103427526D01*
X151917126Y-103419433D01*
X151902776Y-103406735D01*
X151880533Y-103375357D01*
X151877844Y-103342128D01*
X151897645Y-103310266D01*
X151903835Y-103304634D01*
X151912041Y-103299544D01*
X151923817Y-103295457D01*
X151941276Y-103292279D01*
X151966530Y-103289913D01*
X152001690Y-103288262D01*
X152048869Y-103287231D01*
X152110177Y-103286723D01*
X152187727Y-103286641D01*
X152283631Y-103286891D01*
G36*
X152283631Y-103286891D02*
G01*
X152400000Y-103287375D01*
X152414175Y-103287443D01*
X152475937Y-103288029D01*
X152519620Y-103289352D01*
X152549001Y-103291897D01*
X152567855Y-103296152D01*
X152579959Y-103302604D01*
X152589089Y-103311738D01*
X152606506Y-103345196D01*
X152603604Y-103380144D01*
X152579100Y-103411047D01*
X152565897Y-103420056D01*
X152547361Y-103427508D01*
X152521333Y-103431876D01*
X152482787Y-103433931D01*
X152426700Y-103434444D01*
X152304045Y-103434444D01*
X152304045Y-103931155D01*
X152438871Y-103931155D01*
X152474662Y-103931228D01*
X152520992Y-103931991D01*
X152551526Y-103934167D01*
X152570557Y-103938464D01*
X152582374Y-103945588D01*
X152591271Y-103956245D01*
X152606341Y-103988496D01*
X152603673Y-104023783D01*
X152579100Y-104054514D01*
X152572845Y-104059169D01*
X152562321Y-104065105D01*
X152548391Y-104069636D01*
X152528317Y-104072952D01*
X152499360Y-104075241D01*
X152458780Y-104076692D01*
X152403840Y-104077495D01*
X152331799Y-104077838D01*
X152239920Y-104077911D01*
X151930485Y-104077911D01*
X151902776Y-104050202D01*
X151880533Y-104018823D01*
X151877844Y-103985594D01*
X151897645Y-103953733D01*
X151907415Y-103945447D01*
X151923307Y-103938035D01*
X151947275Y-103933698D01*
X151984148Y-103931662D01*
X152038756Y-103931155D01*
X152157289Y-103931155D01*
X152157289Y-103434444D01*
X152041776Y-103434444D01*
X151990078Y-103434006D01*
X151955554Y-103432042D01*
X151932978Y-103427526D01*
X151917126Y-103419433D01*
X151902776Y-103406735D01*
X151880533Y-103375357D01*
X151877844Y-103342128D01*
X151897645Y-103310266D01*
X151903835Y-103304634D01*
X151912041Y-103299544D01*
X151923817Y-103295457D01*
X151941276Y-103292279D01*
X151966530Y-103289913D01*
X152001690Y-103288262D01*
X152048869Y-103287231D01*
X152110177Y-103286723D01*
X152187727Y-103286641D01*
X152283631Y-103286891D01*
G37*
X152301526Y-98602825D02*
X152380311Y-98603050D01*
X152441021Y-98603668D01*
X152462089Y-98604225D01*
X152486396Y-98604867D01*
X152519175Y-98606837D01*
X152542095Y-98609765D01*
X152557897Y-98613842D01*
X152569319Y-98619257D01*
X152579100Y-98626197D01*
X152608845Y-98649594D01*
X152608251Y-98815286D01*
X152607953Y-98850082D01*
X152604522Y-98948565D01*
X152596839Y-99029527D01*
X152584282Y-99096621D01*
X152566227Y-99153504D01*
X152542052Y-99203831D01*
X152540135Y-99207190D01*
X152503417Y-99265002D01*
X152466451Y-99307356D01*
X152422966Y-99340172D01*
X152366689Y-99369372D01*
X152357073Y-99373654D01*
X152293887Y-99396231D01*
X152238509Y-99403203D01*
X152183483Y-99394601D01*
X152121351Y-99370459D01*
X152119658Y-99369663D01*
X152050236Y-99329212D01*
X151993638Y-99278527D01*
X151949070Y-99215802D01*
X151915741Y-99139226D01*
X151892861Y-99046991D01*
X151879636Y-98937288D01*
X151875275Y-98808309D01*
X151875270Y-98804737D01*
X151875372Y-98760844D01*
X152021822Y-98760844D01*
X152022270Y-98848333D01*
X152024746Y-98915253D01*
X152035998Y-99007651D01*
X152055537Y-99086966D01*
X152082511Y-99148940D01*
X152103240Y-99179880D01*
X152133006Y-99208000D01*
X152175434Y-99231340D01*
X152191400Y-99238467D01*
X152223902Y-99250291D01*
X152248333Y-99252721D01*
X152273061Y-99247108D01*
X152288939Y-99241382D01*
X152348847Y-99208452D01*
X152394600Y-99161114D01*
X152427736Y-99097348D01*
X152449790Y-99015139D01*
X152450292Y-99012345D01*
X152456255Y-98966060D01*
X152460483Y-98909664D01*
X152462089Y-98854726D01*
X152462089Y-98760844D01*
X152021822Y-98760844D01*
X151875372Y-98760844D01*
X151875410Y-98744717D01*
X151876446Y-98702786D01*
X151879040Y-98674672D01*
X151883853Y-98656103D01*
X151891544Y-98642806D01*
X151902776Y-98630509D01*
X151930485Y-98602800D01*
X152239920Y-98602800D01*
X152301526Y-98602825D01*
G36*
X152301526Y-98602825D02*
G01*
X152380311Y-98603050D01*
X152441021Y-98603668D01*
X152462089Y-98604225D01*
X152486396Y-98604867D01*
X152519175Y-98606837D01*
X152542095Y-98609765D01*
X152557897Y-98613842D01*
X152569319Y-98619257D01*
X152579100Y-98626197D01*
X152608845Y-98649594D01*
X152608251Y-98815286D01*
X152607953Y-98850082D01*
X152604522Y-98948565D01*
X152596839Y-99029527D01*
X152584282Y-99096621D01*
X152566227Y-99153504D01*
X152542052Y-99203831D01*
X152540135Y-99207190D01*
X152503417Y-99265002D01*
X152466451Y-99307356D01*
X152422966Y-99340172D01*
X152366689Y-99369372D01*
X152357073Y-99373654D01*
X152293887Y-99396231D01*
X152238509Y-99403203D01*
X152183483Y-99394601D01*
X152121351Y-99370459D01*
X152119658Y-99369663D01*
X152050236Y-99329212D01*
X151993638Y-99278527D01*
X151949070Y-99215802D01*
X151915741Y-99139226D01*
X151892861Y-99046991D01*
X151879636Y-98937288D01*
X151875275Y-98808309D01*
X151875270Y-98804737D01*
X151875372Y-98760844D01*
X152021822Y-98760844D01*
X152022270Y-98848333D01*
X152024746Y-98915253D01*
X152035998Y-99007651D01*
X152055537Y-99086966D01*
X152082511Y-99148940D01*
X152103240Y-99179880D01*
X152133006Y-99208000D01*
X152175434Y-99231340D01*
X152191400Y-99238467D01*
X152223902Y-99250291D01*
X152248333Y-99252721D01*
X152273061Y-99247108D01*
X152288939Y-99241382D01*
X152348847Y-99208452D01*
X152394600Y-99161114D01*
X152427736Y-99097348D01*
X152449790Y-99015139D01*
X152450292Y-99012345D01*
X152456255Y-98966060D01*
X152460483Y-98909664D01*
X152462089Y-98854726D01*
X152462089Y-98760844D01*
X152021822Y-98760844D01*
X151875372Y-98760844D01*
X151875410Y-98744717D01*
X151876446Y-98702786D01*
X151879040Y-98674672D01*
X151883853Y-98656103D01*
X151891544Y-98642806D01*
X151902776Y-98630509D01*
X151930485Y-98602800D01*
X152239920Y-98602800D01*
X152301526Y-98602825D01*
G37*
X152241956Y-91513378D02*
X152317617Y-91513417D01*
X152395526Y-91513672D01*
X152455536Y-91514316D01*
X152500264Y-91515520D01*
X152532326Y-91517457D01*
X152554340Y-91520297D01*
X152568924Y-91524212D01*
X152578694Y-91529374D01*
X152586267Y-91535955D01*
X152592501Y-91542923D01*
X152599801Y-91555921D01*
X152604554Y-91575069D01*
X152607292Y-91604472D01*
X152608545Y-91648238D01*
X152608845Y-91710472D01*
X152608469Y-91759418D01*
X152604041Y-91866278D01*
X152593953Y-91955506D01*
X152577365Y-92030304D01*
X152553435Y-92093875D01*
X152521321Y-92149421D01*
X152480182Y-92200146D01*
X152474330Y-92206134D01*
X152425821Y-92243001D01*
X152365013Y-92274101D01*
X152300769Y-92295583D01*
X152241956Y-92303600D01*
X152220739Y-92302321D01*
X152163323Y-92290009D01*
X152103413Y-92267480D01*
X152049363Y-92238250D01*
X152009532Y-92205833D01*
X151992510Y-92186292D01*
X151953322Y-92131580D01*
X151923193Y-92071277D01*
X151901232Y-92002081D01*
X151886550Y-91920689D01*
X151878259Y-91823800D01*
X151876148Y-91736333D01*
X152021808Y-91736333D01*
X152021817Y-91739361D01*
X152023782Y-91790481D01*
X152028507Y-91850584D01*
X152035035Y-91907292D01*
X152044331Y-91957250D01*
X152070600Y-92032002D01*
X152109899Y-92089511D01*
X152162933Y-92131012D01*
X152214200Y-92152229D01*
X152262026Y-92153647D01*
X152312961Y-92135365D01*
X152358878Y-92105695D01*
X152401287Y-92058998D01*
X152431090Y-91997608D01*
X152450226Y-91918462D01*
X152450464Y-91916972D01*
X152456256Y-91868001D01*
X152460396Y-91809307D01*
X152462004Y-91753266D01*
X152462089Y-91660133D01*
X152021822Y-91660133D01*
X152021808Y-91736333D01*
X151876148Y-91736333D01*
X151875467Y-91708111D01*
X151875066Y-91668629D01*
X151874653Y-91622918D01*
X151876457Y-91587117D01*
X151882739Y-91560026D01*
X151895759Y-91540444D01*
X151917778Y-91527170D01*
X151951055Y-91519002D01*
X151997851Y-91514740D01*
X152021822Y-91514143D01*
X152060427Y-91513183D01*
X152141041Y-91513130D01*
X152241956Y-91513378D01*
G36*
X152241956Y-91513378D02*
G01*
X152317617Y-91513417D01*
X152395526Y-91513672D01*
X152455536Y-91514316D01*
X152500264Y-91515520D01*
X152532326Y-91517457D01*
X152554340Y-91520297D01*
X152568924Y-91524212D01*
X152578694Y-91529374D01*
X152586267Y-91535955D01*
X152592501Y-91542923D01*
X152599801Y-91555921D01*
X152604554Y-91575069D01*
X152607292Y-91604472D01*
X152608545Y-91648238D01*
X152608845Y-91710472D01*
X152608469Y-91759418D01*
X152604041Y-91866278D01*
X152593953Y-91955506D01*
X152577365Y-92030304D01*
X152553435Y-92093875D01*
X152521321Y-92149421D01*
X152480182Y-92200146D01*
X152474330Y-92206134D01*
X152425821Y-92243001D01*
X152365013Y-92274101D01*
X152300769Y-92295583D01*
X152241956Y-92303600D01*
X152220739Y-92302321D01*
X152163323Y-92290009D01*
X152103413Y-92267480D01*
X152049363Y-92238250D01*
X152009532Y-92205833D01*
X151992510Y-92186292D01*
X151953322Y-92131580D01*
X151923193Y-92071277D01*
X151901232Y-92002081D01*
X151886550Y-91920689D01*
X151878259Y-91823800D01*
X151876148Y-91736333D01*
X152021808Y-91736333D01*
X152021817Y-91739361D01*
X152023782Y-91790481D01*
X152028507Y-91850584D01*
X152035035Y-91907292D01*
X152044331Y-91957250D01*
X152070600Y-92032002D01*
X152109899Y-92089511D01*
X152162933Y-92131012D01*
X152214200Y-92152229D01*
X152262026Y-92153647D01*
X152312961Y-92135365D01*
X152358878Y-92105695D01*
X152401287Y-92058998D01*
X152431090Y-91997608D01*
X152450226Y-91918462D01*
X152450464Y-91916972D01*
X152456256Y-91868001D01*
X152460396Y-91809307D01*
X152462004Y-91753266D01*
X152462089Y-91660133D01*
X152021822Y-91660133D01*
X152021808Y-91736333D01*
X151876148Y-91736333D01*
X151875467Y-91708111D01*
X151875066Y-91668629D01*
X151874653Y-91622918D01*
X151876457Y-91587117D01*
X151882739Y-91560026D01*
X151895759Y-91540444D01*
X151917778Y-91527170D01*
X151951055Y-91519002D01*
X151997851Y-91514740D01*
X152021822Y-91514143D01*
X152060427Y-91513183D01*
X152141041Y-91513130D01*
X152241956Y-91513378D01*
G37*
X152300486Y-96401489D02*
X152379573Y-96401708D01*
X152440516Y-96402317D01*
X152486062Y-96403508D01*
X152518963Y-96405471D01*
X152541968Y-96408397D01*
X152557826Y-96412477D01*
X152569286Y-96417903D01*
X152579100Y-96424864D01*
X152603493Y-96455292D01*
X152606372Y-96490235D01*
X152587282Y-96527216D01*
X152583807Y-96531400D01*
X152575279Y-96539576D01*
X152563728Y-96545636D01*
X152545896Y-96550019D01*
X152518524Y-96553161D01*
X152478354Y-96555498D01*
X152422128Y-96557469D01*
X152346589Y-96559511D01*
X152127458Y-96565155D01*
X152368099Y-96830444D01*
X152434875Y-96904278D01*
X152492991Y-96969458D01*
X152537949Y-97021652D01*
X152570871Y-97062727D01*
X152592879Y-97094545D01*
X152605094Y-97118974D01*
X152608639Y-97137876D01*
X152604636Y-97153117D01*
X152594207Y-97166561D01*
X152578474Y-97180073D01*
X152569991Y-97186318D01*
X152559413Y-97191950D01*
X152545255Y-97196161D01*
X152524803Y-97199113D01*
X152495342Y-97200968D01*
X152454161Y-97201887D01*
X152398544Y-97202032D01*
X152325779Y-97201565D01*
X152233151Y-97200648D01*
X151918199Y-97197333D01*
X151896633Y-97170682D01*
X151880441Y-97144617D01*
X151877670Y-97111759D01*
X151896623Y-97077228D01*
X151900208Y-97072916D01*
X151908737Y-97064784D01*
X151920329Y-97058755D01*
X151938235Y-97054394D01*
X151965706Y-97051266D01*
X152005994Y-97048937D01*
X152062351Y-97046971D01*
X152138029Y-97044933D01*
X152357878Y-97039289D01*
X152194084Y-96858666D01*
X152115451Y-96771928D01*
X152047058Y-96696157D01*
X151991708Y-96634020D01*
X151948338Y-96583922D01*
X151915881Y-96544265D01*
X151893273Y-96513452D01*
X151879448Y-96489886D01*
X151873343Y-96471970D01*
X151873892Y-96458107D01*
X151880029Y-96446699D01*
X151890691Y-96436150D01*
X151904811Y-96424864D01*
X151910772Y-96420411D01*
X151921268Y-96414412D01*
X151935093Y-96409833D01*
X151954998Y-96406481D01*
X151983732Y-96404167D01*
X152024045Y-96402699D01*
X152078687Y-96401887D01*
X152150407Y-96401540D01*
X152241956Y-96401466D01*
X152300486Y-96401489D01*
G36*
X152300486Y-96401489D02*
G01*
X152379573Y-96401708D01*
X152440516Y-96402317D01*
X152486062Y-96403508D01*
X152518963Y-96405471D01*
X152541968Y-96408397D01*
X152557826Y-96412477D01*
X152569286Y-96417903D01*
X152579100Y-96424864D01*
X152603493Y-96455292D01*
X152606372Y-96490235D01*
X152587282Y-96527216D01*
X152583807Y-96531400D01*
X152575279Y-96539576D01*
X152563728Y-96545636D01*
X152545896Y-96550019D01*
X152518524Y-96553161D01*
X152478354Y-96555498D01*
X152422128Y-96557469D01*
X152346589Y-96559511D01*
X152127458Y-96565155D01*
X152368099Y-96830444D01*
X152434875Y-96904278D01*
X152492991Y-96969458D01*
X152537949Y-97021652D01*
X152570871Y-97062727D01*
X152592879Y-97094545D01*
X152605094Y-97118974D01*
X152608639Y-97137876D01*
X152604636Y-97153117D01*
X152594207Y-97166561D01*
X152578474Y-97180073D01*
X152569991Y-97186318D01*
X152559413Y-97191950D01*
X152545255Y-97196161D01*
X152524803Y-97199113D01*
X152495342Y-97200968D01*
X152454161Y-97201887D01*
X152398544Y-97202032D01*
X152325779Y-97201565D01*
X152233151Y-97200648D01*
X151918199Y-97197333D01*
X151896633Y-97170682D01*
X151880441Y-97144617D01*
X151877670Y-97111759D01*
X151896623Y-97077228D01*
X151900208Y-97072916D01*
X151908737Y-97064784D01*
X151920329Y-97058755D01*
X151938235Y-97054394D01*
X151965706Y-97051266D01*
X152005994Y-97048937D01*
X152062351Y-97046971D01*
X152138029Y-97044933D01*
X152357878Y-97039289D01*
X152194084Y-96858666D01*
X152115451Y-96771928D01*
X152047058Y-96696157D01*
X151991708Y-96634020D01*
X151948338Y-96583922D01*
X151915881Y-96544265D01*
X151893273Y-96513452D01*
X151879448Y-96489886D01*
X151873343Y-96471970D01*
X151873892Y-96458107D01*
X151880029Y-96446699D01*
X151890691Y-96436150D01*
X151904811Y-96424864D01*
X151910772Y-96420411D01*
X151921268Y-96414412D01*
X151935093Y-96409833D01*
X151954998Y-96406481D01*
X151983732Y-96404167D01*
X152024045Y-96402699D01*
X152078687Y-96401887D01*
X152150407Y-96401540D01*
X152241956Y-96401466D01*
X152300486Y-96401489D01*
G37*
X152260259Y-95217702D02*
X152311592Y-95230643D01*
X152368118Y-95253806D01*
X152422035Y-95283698D01*
X152465539Y-95316827D01*
X152475887Y-95327023D01*
X152527662Y-95394108D01*
X152567554Y-95474234D01*
X152591956Y-95560444D01*
X152600068Y-95615408D01*
X152606673Y-95708861D01*
X152604586Y-95798642D01*
X152594340Y-95881131D01*
X152576470Y-95952714D01*
X152551508Y-96009772D01*
X152519988Y-96048689D01*
X152518012Y-96050064D01*
X152492786Y-96057152D01*
X152445535Y-96061391D01*
X152376071Y-96062800D01*
X152313838Y-96061940D01*
X152266456Y-96057220D01*
X152234353Y-96045530D01*
X152214800Y-96023761D01*
X152205070Y-95988802D01*
X152202433Y-95937544D01*
X152204161Y-95866877D01*
X152207173Y-95818257D01*
X152215366Y-95768061D01*
X152229419Y-95735567D01*
X152250654Y-95718108D01*
X152280394Y-95713017D01*
X152284936Y-95713123D01*
X152319730Y-95721825D01*
X152343147Y-95745835D01*
X152356347Y-95787100D01*
X152360489Y-95847569D01*
X152360489Y-95916044D01*
X152398841Y-95916044D01*
X152407976Y-95915994D01*
X152425227Y-95913773D01*
X152435521Y-95904506D01*
X152442459Y-95883125D01*
X152449641Y-95844564D01*
X152450575Y-95839090D01*
X152460478Y-95742140D01*
X152457559Y-95652148D01*
X152442829Y-95571240D01*
X152417299Y-95501541D01*
X152381978Y-95445176D01*
X152337879Y-95404271D01*
X152286012Y-95380949D01*
X152227388Y-95377337D01*
X152198494Y-95382855D01*
X152142604Y-95409539D01*
X152096945Y-95455727D01*
X152062108Y-95520709D01*
X152038690Y-95603771D01*
X152034241Y-95628445D01*
X152023742Y-95717774D01*
X152024971Y-95797581D01*
X152037906Y-95875674D01*
X152044696Y-95910817D01*
X152045713Y-95956255D01*
X152033182Y-95987570D01*
X152006395Y-96007723D01*
X151978148Y-96014107D01*
X151946924Y-96004621D01*
X151933499Y-95995292D01*
X151909967Y-95961057D01*
X151892095Y-95908435D01*
X151880599Y-95839919D01*
X151876192Y-95758000D01*
X151880179Y-95660850D01*
X151896494Y-95554843D01*
X151924545Y-95461031D01*
X151963452Y-95382235D01*
X152012334Y-95321281D01*
X152045195Y-95295211D01*
X152094394Y-95265703D01*
X152148252Y-95240432D01*
X152199419Y-95222782D01*
X152240544Y-95216142D01*
X152260259Y-95217702D01*
G36*
X152260259Y-95217702D02*
G01*
X152311592Y-95230643D01*
X152368118Y-95253806D01*
X152422035Y-95283698D01*
X152465539Y-95316827D01*
X152475887Y-95327023D01*
X152527662Y-95394108D01*
X152567554Y-95474234D01*
X152591956Y-95560444D01*
X152600068Y-95615408D01*
X152606673Y-95708861D01*
X152604586Y-95798642D01*
X152594340Y-95881131D01*
X152576470Y-95952714D01*
X152551508Y-96009772D01*
X152519988Y-96048689D01*
X152518012Y-96050064D01*
X152492786Y-96057152D01*
X152445535Y-96061391D01*
X152376071Y-96062800D01*
X152313838Y-96061940D01*
X152266456Y-96057220D01*
X152234353Y-96045530D01*
X152214800Y-96023761D01*
X152205070Y-95988802D01*
X152202433Y-95937544D01*
X152204161Y-95866877D01*
X152207173Y-95818257D01*
X152215366Y-95768061D01*
X152229419Y-95735567D01*
X152250654Y-95718108D01*
X152280394Y-95713017D01*
X152284936Y-95713123D01*
X152319730Y-95721825D01*
X152343147Y-95745835D01*
X152356347Y-95787100D01*
X152360489Y-95847569D01*
X152360489Y-95916044D01*
X152398841Y-95916044D01*
X152407976Y-95915994D01*
X152425227Y-95913773D01*
X152435521Y-95904506D01*
X152442459Y-95883125D01*
X152449641Y-95844564D01*
X152450575Y-95839090D01*
X152460478Y-95742140D01*
X152457559Y-95652148D01*
X152442829Y-95571240D01*
X152417299Y-95501541D01*
X152381978Y-95445176D01*
X152337879Y-95404271D01*
X152286012Y-95380949D01*
X152227388Y-95377337D01*
X152198494Y-95382855D01*
X152142604Y-95409539D01*
X152096945Y-95455727D01*
X152062108Y-95520709D01*
X152038690Y-95603771D01*
X152034241Y-95628445D01*
X152023742Y-95717774D01*
X152024971Y-95797581D01*
X152037906Y-95875674D01*
X152044696Y-95910817D01*
X152045713Y-95956255D01*
X152033182Y-95987570D01*
X152006395Y-96007723D01*
X151978148Y-96014107D01*
X151946924Y-96004621D01*
X151933499Y-95995292D01*
X151909967Y-95961057D01*
X151892095Y-95908435D01*
X151880599Y-95839919D01*
X151876192Y-95758000D01*
X151880179Y-95660850D01*
X151896494Y-95554843D01*
X151924545Y-95461031D01*
X151963452Y-95382235D01*
X152012334Y-95321281D01*
X152045195Y-95295211D01*
X152094394Y-95265703D01*
X152148252Y-95240432D01*
X152199419Y-95222782D01*
X152240544Y-95216142D01*
X152260259Y-95217702D01*
G37*
X152312911Y-97586829D02*
X152391228Y-97587061D01*
X152451496Y-97587681D01*
X152496393Y-97588874D01*
X152528602Y-97590821D01*
X152550800Y-97593706D01*
X152565669Y-97597712D01*
X152575889Y-97603021D01*
X152584138Y-97609817D01*
X152588795Y-97614332D01*
X152595282Y-97622562D01*
X152600194Y-97633922D01*
X152603749Y-97651190D01*
X152606167Y-97677145D01*
X152607667Y-97714564D01*
X152608467Y-97766227D01*
X152608787Y-97834911D01*
X152608845Y-97923394D01*
X152608838Y-97943069D01*
X152608572Y-98030094D01*
X152607806Y-98097746D01*
X152606392Y-98148701D01*
X152604180Y-98185633D01*
X152601022Y-98211217D01*
X152596769Y-98228129D01*
X152591271Y-98239043D01*
X152581285Y-98249536D01*
X152550168Y-98262797D01*
X152514280Y-98261614D01*
X152482733Y-98245450D01*
X152480457Y-98243261D01*
X152474189Y-98234573D01*
X152469523Y-98221231D01*
X152466227Y-98200248D01*
X152464068Y-98168637D01*
X152462814Y-98123410D01*
X152462231Y-98061580D01*
X152462089Y-97980161D01*
X152462089Y-97733555D01*
X152304045Y-97733555D01*
X152304045Y-97895994D01*
X152303964Y-97931662D01*
X152303167Y-97987432D01*
X152301162Y-98026570D01*
X152297521Y-98053024D01*
X152291812Y-98070741D01*
X152283607Y-98083671D01*
X152280423Y-98087314D01*
X152249448Y-98105722D01*
X152213112Y-98106356D01*
X152179493Y-98088817D01*
X152179424Y-98088755D01*
X152170798Y-98079084D01*
X152164742Y-98065791D01*
X152160811Y-98045083D01*
X152158556Y-98013172D01*
X152157531Y-97966266D01*
X152157289Y-97900576D01*
X152157289Y-97732429D01*
X152092378Y-97735814D01*
X152027467Y-97739200D01*
X152024414Y-97981277D01*
X152024086Y-98006293D01*
X152022606Y-98087913D01*
X152020222Y-98150232D01*
X152016227Y-98195846D01*
X152009913Y-98227348D01*
X152000574Y-98247333D01*
X151987503Y-98258396D01*
X151969992Y-98263131D01*
X151947335Y-98264133D01*
X151944970Y-98264127D01*
X151924939Y-98262973D01*
X151909146Y-98258176D01*
X151897090Y-98247368D01*
X151888267Y-98228183D01*
X151882175Y-98198255D01*
X151878311Y-98155217D01*
X151876174Y-98096701D01*
X151875260Y-98020343D01*
X151875067Y-97923774D01*
X151875067Y-97633594D01*
X151904811Y-97610197D01*
X151911495Y-97605248D01*
X151922066Y-97599404D01*
X151936153Y-97594943D01*
X151956478Y-97591679D01*
X151985765Y-97589426D01*
X152026737Y-97587998D01*
X152082117Y-97587208D01*
X152154628Y-97586871D01*
X152246994Y-97586800D01*
X152312911Y-97586829D01*
G36*
X152312911Y-97586829D02*
G01*
X152391228Y-97587061D01*
X152451496Y-97587681D01*
X152496393Y-97588874D01*
X152528602Y-97590821D01*
X152550800Y-97593706D01*
X152565669Y-97597712D01*
X152575889Y-97603021D01*
X152584138Y-97609817D01*
X152588795Y-97614332D01*
X152595282Y-97622562D01*
X152600194Y-97633922D01*
X152603749Y-97651190D01*
X152606167Y-97677145D01*
X152607667Y-97714564D01*
X152608467Y-97766227D01*
X152608787Y-97834911D01*
X152608845Y-97923394D01*
X152608838Y-97943069D01*
X152608572Y-98030094D01*
X152607806Y-98097746D01*
X152606392Y-98148701D01*
X152604180Y-98185633D01*
X152601022Y-98211217D01*
X152596769Y-98228129D01*
X152591271Y-98239043D01*
X152581285Y-98249536D01*
X152550168Y-98262797D01*
X152514280Y-98261614D01*
X152482733Y-98245450D01*
X152480457Y-98243261D01*
X152474189Y-98234573D01*
X152469523Y-98221231D01*
X152466227Y-98200248D01*
X152464068Y-98168637D01*
X152462814Y-98123410D01*
X152462231Y-98061580D01*
X152462089Y-97980161D01*
X152462089Y-97733555D01*
X152304045Y-97733555D01*
X152304045Y-97895994D01*
X152303964Y-97931662D01*
X152303167Y-97987432D01*
X152301162Y-98026570D01*
X152297521Y-98053024D01*
X152291812Y-98070741D01*
X152283607Y-98083671D01*
X152280423Y-98087314D01*
X152249448Y-98105722D01*
X152213112Y-98106356D01*
X152179493Y-98088817D01*
X152179424Y-98088755D01*
X152170798Y-98079084D01*
X152164742Y-98065791D01*
X152160811Y-98045083D01*
X152158556Y-98013172D01*
X152157531Y-97966266D01*
X152157289Y-97900576D01*
X152157289Y-97732429D01*
X152092378Y-97735814D01*
X152027467Y-97739200D01*
X152024414Y-97981277D01*
X152024086Y-98006293D01*
X152022606Y-98087913D01*
X152020222Y-98150232D01*
X152016227Y-98195846D01*
X152009913Y-98227348D01*
X152000574Y-98247333D01*
X151987503Y-98258396D01*
X151969992Y-98263131D01*
X151947335Y-98264133D01*
X151944970Y-98264127D01*
X151924939Y-98262973D01*
X151909146Y-98258176D01*
X151897090Y-98247368D01*
X151888267Y-98228183D01*
X151882175Y-98198255D01*
X151878311Y-98155217D01*
X151876174Y-98096701D01*
X151875260Y-98020343D01*
X151875067Y-97923774D01*
X151875067Y-97633594D01*
X151904811Y-97610197D01*
X151911495Y-97605248D01*
X151922066Y-97599404D01*
X151936153Y-97594943D01*
X151956478Y-97591679D01*
X151985765Y-97589426D01*
X152026737Y-97587998D01*
X152082117Y-97587208D01*
X152154628Y-97586871D01*
X152246994Y-97586800D01*
X152312911Y-97586829D01*
G37*
X152316713Y-92642303D02*
X152394889Y-92642552D01*
X152455103Y-92643188D01*
X152499982Y-92644385D01*
X152532152Y-92646316D01*
X152554239Y-92649154D01*
X152568870Y-92653073D01*
X152578670Y-92658245D01*
X152586267Y-92664844D01*
X152589444Y-92668178D01*
X152595554Y-92676700D01*
X152600229Y-92688702D01*
X152603659Y-92706913D01*
X152606036Y-92734060D01*
X152607552Y-92772871D01*
X152608398Y-92826076D01*
X152608765Y-92896402D01*
X152608845Y-92986578D01*
X152608833Y-93028686D01*
X152608651Y-93109833D01*
X152608098Y-93172325D01*
X152606982Y-93218891D01*
X152605113Y-93252259D01*
X152602298Y-93275156D01*
X152598346Y-93290312D01*
X152593066Y-93300454D01*
X152586267Y-93308311D01*
X152564667Y-93323037D01*
X152535467Y-93330889D01*
X152511560Y-93325390D01*
X152484667Y-93308311D01*
X152480059Y-93303332D01*
X152473772Y-93293557D01*
X152469146Y-93279441D01*
X152465930Y-93257946D01*
X152463870Y-93226032D01*
X152462712Y-93180658D01*
X152462202Y-93118787D01*
X152462089Y-93037378D01*
X152462089Y-92789022D01*
X152304045Y-92789022D01*
X152304045Y-92950199D01*
X152303899Y-92986017D01*
X152302176Y-93051641D01*
X152297741Y-93098882D01*
X152289637Y-93130617D01*
X152276906Y-93149723D01*
X152258592Y-93159077D01*
X152233738Y-93161555D01*
X152213482Y-93160758D01*
X152191656Y-93155506D01*
X152176304Y-93142712D01*
X152166309Y-93119372D01*
X152160553Y-93082483D01*
X152157919Y-93029041D01*
X152157289Y-92956042D01*
X152157289Y-92787895D01*
X152092378Y-92791281D01*
X152027467Y-92794666D01*
X152024418Y-93042383D01*
X152023539Y-93104974D01*
X152022095Y-93173435D01*
X152020164Y-93224339D01*
X152017514Y-93260592D01*
X152013910Y-93285099D01*
X152009121Y-93300765D01*
X152002913Y-93310494D01*
X151996510Y-93316509D01*
X151964828Y-93329518D01*
X151929142Y-93325957D01*
X151898084Y-93306182D01*
X151895161Y-93302931D01*
X151888810Y-93293951D01*
X151883957Y-93281847D01*
X151880403Y-93263841D01*
X151877946Y-93237153D01*
X151876385Y-93199003D01*
X151875518Y-93146614D01*
X151875146Y-93077206D01*
X151875067Y-92987999D01*
X151875083Y-92933266D01*
X151875275Y-92856169D01*
X151875860Y-92797223D01*
X151877051Y-92753636D01*
X151879064Y-92722617D01*
X151882112Y-92701375D01*
X151886409Y-92687118D01*
X151892172Y-92677055D01*
X151899612Y-92668394D01*
X151901293Y-92666609D01*
X151908832Y-92659365D01*
X151917850Y-92653723D01*
X151930984Y-92649483D01*
X151950872Y-92646444D01*
X151980151Y-92644406D01*
X152021458Y-92643170D01*
X152077431Y-92642535D01*
X152150707Y-92642300D01*
X152243923Y-92642266D01*
X152316713Y-92642303D01*
G36*
X152316713Y-92642303D02*
G01*
X152394889Y-92642552D01*
X152455103Y-92643188D01*
X152499982Y-92644385D01*
X152532152Y-92646316D01*
X152554239Y-92649154D01*
X152568870Y-92653073D01*
X152578670Y-92658245D01*
X152586267Y-92664844D01*
X152589444Y-92668178D01*
X152595554Y-92676700D01*
X152600229Y-92688702D01*
X152603659Y-92706913D01*
X152606036Y-92734060D01*
X152607552Y-92772871D01*
X152608398Y-92826076D01*
X152608765Y-92896402D01*
X152608845Y-92986578D01*
X152608833Y-93028686D01*
X152608651Y-93109833D01*
X152608098Y-93172325D01*
X152606982Y-93218891D01*
X152605113Y-93252259D01*
X152602298Y-93275156D01*
X152598346Y-93290312D01*
X152593066Y-93300454D01*
X152586267Y-93308311D01*
X152564667Y-93323037D01*
X152535467Y-93330889D01*
X152511560Y-93325390D01*
X152484667Y-93308311D01*
X152480059Y-93303332D01*
X152473772Y-93293557D01*
X152469146Y-93279441D01*
X152465930Y-93257946D01*
X152463870Y-93226032D01*
X152462712Y-93180658D01*
X152462202Y-93118787D01*
X152462089Y-93037378D01*
X152462089Y-92789022D01*
X152304045Y-92789022D01*
X152304045Y-92950199D01*
X152303899Y-92986017D01*
X152302176Y-93051641D01*
X152297741Y-93098882D01*
X152289637Y-93130617D01*
X152276906Y-93149723D01*
X152258592Y-93159077D01*
X152233738Y-93161555D01*
X152213482Y-93160758D01*
X152191656Y-93155506D01*
X152176304Y-93142712D01*
X152166309Y-93119372D01*
X152160553Y-93082483D01*
X152157919Y-93029041D01*
X152157289Y-92956042D01*
X152157289Y-92787895D01*
X152092378Y-92791281D01*
X152027467Y-92794666D01*
X152024418Y-93042383D01*
X152023539Y-93104974D01*
X152022095Y-93173435D01*
X152020164Y-93224339D01*
X152017514Y-93260592D01*
X152013910Y-93285099D01*
X152009121Y-93300765D01*
X152002913Y-93310494D01*
X151996510Y-93316509D01*
X151964828Y-93329518D01*
X151929142Y-93325957D01*
X151898084Y-93306182D01*
X151895161Y-93302931D01*
X151888810Y-93293951D01*
X151883957Y-93281847D01*
X151880403Y-93263841D01*
X151877946Y-93237153D01*
X151876385Y-93199003D01*
X151875518Y-93146614D01*
X151875146Y-93077206D01*
X151875067Y-92987999D01*
X151875083Y-92933266D01*
X151875275Y-92856169D01*
X151875860Y-92797223D01*
X151877051Y-92753636D01*
X151879064Y-92722617D01*
X151882112Y-92701375D01*
X151886409Y-92687118D01*
X151892172Y-92677055D01*
X151899612Y-92668394D01*
X151901293Y-92666609D01*
X151908832Y-92659365D01*
X151917850Y-92653723D01*
X151930984Y-92649483D01*
X151950872Y-92646444D01*
X151980151Y-92644406D01*
X152021458Y-92643170D01*
X152077431Y-92642535D01*
X152150707Y-92642300D01*
X152243923Y-92642266D01*
X152316713Y-92642303D01*
G37*
X151957915Y-100494772D02*
X151992481Y-100507636D01*
X152040826Y-100527395D01*
X152099825Y-100552619D01*
X152166355Y-100581881D01*
X152237291Y-100613750D01*
X152309507Y-100646799D01*
X152379880Y-100679599D01*
X152445285Y-100710720D01*
X152502597Y-100738735D01*
X152548692Y-100762214D01*
X152580446Y-100779728D01*
X152594733Y-100789849D01*
X152608102Y-100824257D01*
X152601741Y-100865954D01*
X152597044Y-100871319D01*
X152574893Y-100887148D01*
X152538132Y-100909350D01*
X152490415Y-100935767D01*
X152435393Y-100964240D01*
X152276150Y-101044014D01*
X152422742Y-101117201D01*
X152442032Y-101126897D01*
X152494380Y-101153875D01*
X152539170Y-101177904D01*
X152572154Y-101196668D01*
X152589089Y-101207854D01*
X152590332Y-101209000D01*
X152605619Y-101237121D01*
X152607302Y-101272183D01*
X152594733Y-101303224D01*
X152591884Y-101305650D01*
X152571259Y-101317910D01*
X152533708Y-101337648D01*
X152481880Y-101363552D01*
X152418423Y-101394315D01*
X152345985Y-101428625D01*
X152267216Y-101465175D01*
X152223093Y-101485415D01*
X152142365Y-101522188D01*
X152078687Y-101550645D01*
X152029752Y-101571669D01*
X151993257Y-101586146D01*
X151966895Y-101594961D01*
X151948361Y-101598996D01*
X151935352Y-101599138D01*
X151925561Y-101596270D01*
X151904678Y-101581613D01*
X151884377Y-101555010D01*
X151884035Y-101554255D01*
X151877034Y-101534665D01*
X151876504Y-101517210D01*
X151884478Y-101500298D01*
X151902989Y-101482337D01*
X151934071Y-101461737D01*
X151979756Y-101436905D01*
X152042078Y-101406250D01*
X152123071Y-101368180D01*
X152154454Y-101353546D01*
X152217638Y-101323797D01*
X152272244Y-101297703D01*
X152315290Y-101276708D01*
X152343793Y-101262261D01*
X152354770Y-101255809D01*
X152354189Y-101254450D01*
X152340242Y-101244458D01*
X152310704Y-101227167D01*
X152269087Y-101204570D01*
X152218903Y-101178662D01*
X152187414Y-101162689D01*
X152132061Y-101133739D01*
X152093044Y-101111251D01*
X152067566Y-101093035D01*
X152052831Y-101076904D01*
X152046042Y-101060670D01*
X152044400Y-101042143D01*
X152044875Y-101031640D01*
X152049082Y-101015524D01*
X152059946Y-101000210D01*
X152080219Y-100983612D01*
X152112654Y-100963643D01*
X152160004Y-100938217D01*
X152225022Y-100905248D01*
X152244277Y-100895515D01*
X152290946Y-100871057D01*
X152327109Y-100850822D01*
X152349497Y-100836689D01*
X152354845Y-100830540D01*
X152351573Y-100829173D01*
X152330664Y-100819798D01*
X152293725Y-100802938D01*
X152243874Y-100780021D01*
X152184226Y-100752480D01*
X152117898Y-100721745D01*
X152060677Y-100695030D01*
X151998688Y-100665407D01*
X151952949Y-100642336D01*
X151920908Y-100624357D01*
X151900014Y-100610010D01*
X151887718Y-100597834D01*
X151881466Y-100586368D01*
X151878574Y-100576958D01*
X151878425Y-100551853D01*
X151893768Y-100524710D01*
X151894753Y-100523410D01*
X151917388Y-100501326D01*
X151939613Y-100490277D01*
X151940253Y-100490231D01*
X151957915Y-100494772D01*
G36*
X151957915Y-100494772D02*
G01*
X151992481Y-100507636D01*
X152040826Y-100527395D01*
X152099825Y-100552619D01*
X152166355Y-100581881D01*
X152237291Y-100613750D01*
X152309507Y-100646799D01*
X152379880Y-100679599D01*
X152445285Y-100710720D01*
X152502597Y-100738735D01*
X152548692Y-100762214D01*
X152580446Y-100779728D01*
X152594733Y-100789849D01*
X152608102Y-100824257D01*
X152601741Y-100865954D01*
X152597044Y-100871319D01*
X152574893Y-100887148D01*
X152538132Y-100909350D01*
X152490415Y-100935767D01*
X152435393Y-100964240D01*
X152276150Y-101044014D01*
X152422742Y-101117201D01*
X152442032Y-101126897D01*
X152494380Y-101153875D01*
X152539170Y-101177904D01*
X152572154Y-101196668D01*
X152589089Y-101207854D01*
X152590332Y-101209000D01*
X152605619Y-101237121D01*
X152607302Y-101272183D01*
X152594733Y-101303224D01*
X152591884Y-101305650D01*
X152571259Y-101317910D01*
X152533708Y-101337648D01*
X152481880Y-101363552D01*
X152418423Y-101394315D01*
X152345985Y-101428625D01*
X152267216Y-101465175D01*
X152223093Y-101485415D01*
X152142365Y-101522188D01*
X152078687Y-101550645D01*
X152029752Y-101571669D01*
X151993257Y-101586146D01*
X151966895Y-101594961D01*
X151948361Y-101598996D01*
X151935352Y-101599138D01*
X151925561Y-101596270D01*
X151904678Y-101581613D01*
X151884377Y-101555010D01*
X151884035Y-101554255D01*
X151877034Y-101534665D01*
X151876504Y-101517210D01*
X151884478Y-101500298D01*
X151902989Y-101482337D01*
X151934071Y-101461737D01*
X151979756Y-101436905D01*
X152042078Y-101406250D01*
X152123071Y-101368180D01*
X152154454Y-101353546D01*
X152217638Y-101323797D01*
X152272244Y-101297703D01*
X152315290Y-101276708D01*
X152343793Y-101262261D01*
X152354770Y-101255809D01*
X152354189Y-101254450D01*
X152340242Y-101244458D01*
X152310704Y-101227167D01*
X152269087Y-101204570D01*
X152218903Y-101178662D01*
X152187414Y-101162689D01*
X152132061Y-101133739D01*
X152093044Y-101111251D01*
X152067566Y-101093035D01*
X152052831Y-101076904D01*
X152046042Y-101060670D01*
X152044400Y-101042143D01*
X152044875Y-101031640D01*
X152049082Y-101015524D01*
X152059946Y-101000210D01*
X152080219Y-100983612D01*
X152112654Y-100963643D01*
X152160004Y-100938217D01*
X152225022Y-100905248D01*
X152244277Y-100895515D01*
X152290946Y-100871057D01*
X152327109Y-100850822D01*
X152349497Y-100836689D01*
X152354845Y-100830540D01*
X152351573Y-100829173D01*
X152330664Y-100819798D01*
X152293725Y-100802938D01*
X152243874Y-100780021D01*
X152184226Y-100752480D01*
X152117898Y-100721745D01*
X152060677Y-100695030D01*
X151998688Y-100665407D01*
X151952949Y-100642336D01*
X151920908Y-100624357D01*
X151900014Y-100610010D01*
X151887718Y-100597834D01*
X151881466Y-100586368D01*
X151878574Y-100576958D01*
X151878425Y-100551853D01*
X151893768Y-100524710D01*
X151894753Y-100523410D01*
X151917388Y-100501326D01*
X151939613Y-100490277D01*
X151940253Y-100490231D01*
X151957915Y-100494772D01*
G37*
X152126232Y-93614048D02*
X152151029Y-93619840D01*
X152172699Y-93634647D01*
X152200049Y-93662620D01*
X152207378Y-93670598D01*
X152228281Y-93694308D01*
X152245251Y-93716702D01*
X152259205Y-93740735D01*
X152271056Y-93769363D01*
X152281720Y-93805540D01*
X152292111Y-93852220D01*
X152303146Y-93912359D01*
X152315738Y-93988910D01*
X152330804Y-94084829D01*
X152333838Y-94103192D01*
X152347458Y-94165522D01*
X152363192Y-94210740D01*
X152380263Y-94237024D01*
X152397897Y-94242553D01*
X152402168Y-94239932D01*
X152417233Y-94222000D01*
X152433867Y-94193874D01*
X152439857Y-94181074D01*
X152447050Y-94159776D01*
X152451827Y-94133390D01*
X152454646Y-94097546D01*
X152455964Y-94047872D01*
X152456237Y-93980000D01*
X152456164Y-93962215D01*
X152455053Y-93894594D01*
X152452828Y-93829655D01*
X152449762Y-93774030D01*
X152446127Y-93734349D01*
X152442059Y-93698838D01*
X152441276Y-93669585D01*
X152445876Y-93650685D01*
X152456551Y-93635571D01*
X152460144Y-93631915D01*
X152491918Y-93615573D01*
X152527572Y-93616893D01*
X152558190Y-93635850D01*
X152569796Y-93656220D01*
X152582491Y-93692204D01*
X152592541Y-93734628D01*
X152593140Y-93738078D01*
X152598356Y-93780748D01*
X152602730Y-93838134D01*
X152605818Y-93903151D01*
X152607177Y-93968711D01*
X152607218Y-93984943D01*
X152604741Y-94083256D01*
X152596735Y-94163308D01*
X152582203Y-94228487D01*
X152560149Y-94282183D01*
X152529576Y-94327784D01*
X152489486Y-94368677D01*
X152463259Y-94388798D01*
X152433712Y-94400424D01*
X152393995Y-94403333D01*
X152382026Y-94403192D01*
X152349345Y-94399319D01*
X152322819Y-94386935D01*
X152291971Y-94361770D01*
X152269831Y-94340558D01*
X152247285Y-94314162D01*
X152228917Y-94284445D01*
X152213661Y-94248215D01*
X152200449Y-94202283D01*
X152188214Y-94143456D01*
X152175889Y-94068544D01*
X152162406Y-93974355D01*
X152155396Y-93929043D01*
X152140837Y-93861089D01*
X152124337Y-93811953D01*
X152106439Y-93782386D01*
X152087685Y-93773136D01*
X152068615Y-93784952D01*
X152049771Y-93818584D01*
X152048557Y-93821630D01*
X152036479Y-93867989D01*
X152028279Y-93930639D01*
X152024119Y-94004073D01*
X152024161Y-94082783D01*
X152028569Y-94161261D01*
X152037505Y-94234000D01*
X152038154Y-94237927D01*
X152045861Y-94286743D01*
X152049473Y-94318995D01*
X152048876Y-94339992D01*
X152043954Y-94355046D01*
X152034596Y-94369466D01*
X152033725Y-94370636D01*
X152003351Y-94395153D01*
X151967850Y-94399946D01*
X151933269Y-94384140D01*
X151928813Y-94379594D01*
X151913673Y-94349980D01*
X151900550Y-94302998D01*
X151889750Y-94242694D01*
X151881581Y-94173112D01*
X151876351Y-94098297D01*
X151874367Y-94022294D01*
X151875936Y-93949147D01*
X151881366Y-93882900D01*
X151890964Y-93827600D01*
X151905825Y-93776717D01*
X151938958Y-93705405D01*
X151981640Y-93654248D01*
X152033705Y-93623425D01*
X152094983Y-93613111D01*
X152126232Y-93614048D01*
G36*
X152126232Y-93614048D02*
G01*
X152151029Y-93619840D01*
X152172699Y-93634647D01*
X152200049Y-93662620D01*
X152207378Y-93670598D01*
X152228281Y-93694308D01*
X152245251Y-93716702D01*
X152259205Y-93740735D01*
X152271056Y-93769363D01*
X152281720Y-93805540D01*
X152292111Y-93852220D01*
X152303146Y-93912359D01*
X152315738Y-93988910D01*
X152330804Y-94084829D01*
X152333838Y-94103192D01*
X152347458Y-94165522D01*
X152363192Y-94210740D01*
X152380263Y-94237024D01*
X152397897Y-94242553D01*
X152402168Y-94239932D01*
X152417233Y-94222000D01*
X152433867Y-94193874D01*
X152439857Y-94181074D01*
X152447050Y-94159776D01*
X152451827Y-94133390D01*
X152454646Y-94097546D01*
X152455964Y-94047872D01*
X152456237Y-93980000D01*
X152456164Y-93962215D01*
X152455053Y-93894594D01*
X152452828Y-93829655D01*
X152449762Y-93774030D01*
X152446127Y-93734349D01*
X152442059Y-93698838D01*
X152441276Y-93669585D01*
X152445876Y-93650685D01*
X152456551Y-93635571D01*
X152460144Y-93631915D01*
X152491918Y-93615573D01*
X152527572Y-93616893D01*
X152558190Y-93635850D01*
X152569796Y-93656220D01*
X152582491Y-93692204D01*
X152592541Y-93734628D01*
X152593140Y-93738078D01*
X152598356Y-93780748D01*
X152602730Y-93838134D01*
X152605818Y-93903151D01*
X152607177Y-93968711D01*
X152607218Y-93984943D01*
X152604741Y-94083256D01*
X152596735Y-94163308D01*
X152582203Y-94228487D01*
X152560149Y-94282183D01*
X152529576Y-94327784D01*
X152489486Y-94368677D01*
X152463259Y-94388798D01*
X152433712Y-94400424D01*
X152393995Y-94403333D01*
X152382026Y-94403192D01*
X152349345Y-94399319D01*
X152322819Y-94386935D01*
X152291971Y-94361770D01*
X152269831Y-94340558D01*
X152247285Y-94314162D01*
X152228917Y-94284445D01*
X152213661Y-94248215D01*
X152200449Y-94202283D01*
X152188214Y-94143456D01*
X152175889Y-94068544D01*
X152162406Y-93974355D01*
X152155396Y-93929043D01*
X152140837Y-93861089D01*
X152124337Y-93811953D01*
X152106439Y-93782386D01*
X152087685Y-93773136D01*
X152068615Y-93784952D01*
X152049771Y-93818584D01*
X152048557Y-93821630D01*
X152036479Y-93867989D01*
X152028279Y-93930639D01*
X152024119Y-94004073D01*
X152024161Y-94082783D01*
X152028569Y-94161261D01*
X152037505Y-94234000D01*
X152038154Y-94237927D01*
X152045861Y-94286743D01*
X152049473Y-94318995D01*
X152048876Y-94339992D01*
X152043954Y-94355046D01*
X152034596Y-94369466D01*
X152033725Y-94370636D01*
X152003351Y-94395153D01*
X151967850Y-94399946D01*
X151933269Y-94384140D01*
X151928813Y-94379594D01*
X151913673Y-94349980D01*
X151900550Y-94302998D01*
X151889750Y-94242694D01*
X151881581Y-94173112D01*
X151876351Y-94098297D01*
X151874367Y-94022294D01*
X151875936Y-93949147D01*
X151881366Y-93882900D01*
X151890964Y-93827600D01*
X151905825Y-93776717D01*
X151938958Y-93705405D01*
X151981640Y-93654248D01*
X152033705Y-93623425D01*
X152094983Y-93613111D01*
X152126232Y-93614048D01*
G37*
X149427325Y-96472449D02*
X149628581Y-96489209D01*
X149823128Y-96522708D01*
X150006756Y-96572956D01*
X150124053Y-96616810D01*
X150286951Y-96694652D01*
X150440866Y-96788172D01*
X150582671Y-96895178D01*
X150709239Y-97013481D01*
X150817441Y-97140889D01*
X150870120Y-97218394D01*
X150939750Y-97345275D01*
X150998468Y-97482757D01*
X151043587Y-97624284D01*
X151072422Y-97763298D01*
X151074106Y-97777403D01*
X151077434Y-97820847D01*
X151080275Y-97878277D01*
X151082373Y-97943878D01*
X151083468Y-98011833D01*
X151081140Y-98138622D01*
X151068136Y-98286327D01*
X151043133Y-98424221D01*
X151005318Y-98557986D01*
X150996889Y-98581438D01*
X150977408Y-98629388D01*
X150952473Y-98685860D01*
X150923722Y-98747621D01*
X150892790Y-98811437D01*
X150861315Y-98874074D01*
X150830934Y-98932297D01*
X150803283Y-98982873D01*
X150779999Y-99022567D01*
X150762718Y-99048146D01*
X150753079Y-99056375D01*
X150749984Y-99054924D01*
X150730079Y-99043750D01*
X150694420Y-99022866D01*
X150645459Y-98993735D01*
X150585646Y-98957819D01*
X150517433Y-98916580D01*
X150443271Y-98871483D01*
X150146008Y-98690215D01*
X150190539Y-98643685D01*
X150268865Y-98552277D01*
X150343439Y-98438666D01*
X150397474Y-98320878D01*
X150430290Y-98200441D01*
X150441211Y-98078883D01*
X150439868Y-98037415D01*
X150421612Y-97919920D01*
X150382617Y-97809911D01*
X150323670Y-97708570D01*
X150245557Y-97617079D01*
X150149064Y-97536620D01*
X150034978Y-97468373D01*
X150000724Y-97452092D01*
X149877240Y-97406018D01*
X149738918Y-97370894D01*
X149589561Y-97346803D01*
X149432973Y-97333827D01*
X149272956Y-97332051D01*
X149113314Y-97341557D01*
X148957850Y-97362428D01*
X148810366Y-97394748D01*
X148674667Y-97438601D01*
X148588076Y-97476018D01*
X148474688Y-97540815D01*
X148381070Y-97616228D01*
X148306959Y-97702582D01*
X148252094Y-97800205D01*
X148216212Y-97909423D01*
X148199051Y-98030561D01*
X148197880Y-98099962D01*
X148212141Y-98222832D01*
X148247241Y-98338336D01*
X148302682Y-98445047D01*
X148377964Y-98541536D01*
X148392440Y-98557280D01*
X148418962Y-98587850D01*
X148436138Y-98610191D01*
X148440787Y-98620309D01*
X148438597Y-98622294D01*
X148419721Y-98636759D01*
X148386397Y-98660600D01*
X148341380Y-98691971D01*
X148287425Y-98729026D01*
X148227285Y-98769917D01*
X148163718Y-98812798D01*
X148099476Y-98855822D01*
X148037315Y-98897143D01*
X147979991Y-98934914D01*
X147930257Y-98967288D01*
X147890868Y-98992418D01*
X147864580Y-99008458D01*
X147854147Y-99013561D01*
X147849941Y-99008950D01*
X147844933Y-98989733D01*
X147842386Y-98980162D01*
X147831249Y-98952191D01*
X147812802Y-98910552D01*
X147788725Y-98859005D01*
X147760699Y-98801310D01*
X147755154Y-98790043D01*
X147675889Y-98612313D01*
X147616385Y-98442510D01*
X147576245Y-98278570D01*
X147555071Y-98118429D01*
X147552466Y-97960023D01*
X147568033Y-97801289D01*
X147585523Y-97705732D01*
X147630564Y-97541442D01*
X147693656Y-97387411D01*
X147775915Y-97241491D01*
X147878457Y-97101534D01*
X148002399Y-96965392D01*
X148047661Y-96921527D01*
X148179865Y-96809242D01*
X148317832Y-96716028D01*
X148465750Y-96639281D01*
X148627803Y-96576397D01*
X148639391Y-96572580D01*
X148825392Y-96522493D01*
X149021521Y-96489101D01*
X149223568Y-96472416D01*
X149427325Y-96472449D01*
G36*
X149427325Y-96472449D02*
G01*
X149628581Y-96489209D01*
X149823128Y-96522708D01*
X150006756Y-96572956D01*
X150124053Y-96616810D01*
X150286951Y-96694652D01*
X150440866Y-96788172D01*
X150582671Y-96895178D01*
X150709239Y-97013481D01*
X150817441Y-97140889D01*
X150870120Y-97218394D01*
X150939750Y-97345275D01*
X150998468Y-97482757D01*
X151043587Y-97624284D01*
X151072422Y-97763298D01*
X151074106Y-97777403D01*
X151077434Y-97820847D01*
X151080275Y-97878277D01*
X151082373Y-97943878D01*
X151083468Y-98011833D01*
X151081140Y-98138622D01*
X151068136Y-98286327D01*
X151043133Y-98424221D01*
X151005318Y-98557986D01*
X150996889Y-98581438D01*
X150977408Y-98629388D01*
X150952473Y-98685860D01*
X150923722Y-98747621D01*
X150892790Y-98811437D01*
X150861315Y-98874074D01*
X150830934Y-98932297D01*
X150803283Y-98982873D01*
X150779999Y-99022567D01*
X150762718Y-99048146D01*
X150753079Y-99056375D01*
X150749984Y-99054924D01*
X150730079Y-99043750D01*
X150694420Y-99022866D01*
X150645459Y-98993735D01*
X150585646Y-98957819D01*
X150517433Y-98916580D01*
X150443271Y-98871483D01*
X150146008Y-98690215D01*
X150190539Y-98643685D01*
X150268865Y-98552277D01*
X150343439Y-98438666D01*
X150397474Y-98320878D01*
X150430290Y-98200441D01*
X150441211Y-98078883D01*
X150439868Y-98037415D01*
X150421612Y-97919920D01*
X150382617Y-97809911D01*
X150323670Y-97708570D01*
X150245557Y-97617079D01*
X150149064Y-97536620D01*
X150034978Y-97468373D01*
X150000724Y-97452092D01*
X149877240Y-97406018D01*
X149738918Y-97370894D01*
X149589561Y-97346803D01*
X149432973Y-97333827D01*
X149272956Y-97332051D01*
X149113314Y-97341557D01*
X148957850Y-97362428D01*
X148810366Y-97394748D01*
X148674667Y-97438601D01*
X148588076Y-97476018D01*
X148474688Y-97540815D01*
X148381070Y-97616228D01*
X148306959Y-97702582D01*
X148252094Y-97800205D01*
X148216212Y-97909423D01*
X148199051Y-98030561D01*
X148197880Y-98099962D01*
X148212141Y-98222832D01*
X148247241Y-98338336D01*
X148302682Y-98445047D01*
X148377964Y-98541536D01*
X148392440Y-98557280D01*
X148418962Y-98587850D01*
X148436138Y-98610191D01*
X148440787Y-98620309D01*
X148438597Y-98622294D01*
X148419721Y-98636759D01*
X148386397Y-98660600D01*
X148341380Y-98691971D01*
X148287425Y-98729026D01*
X148227285Y-98769917D01*
X148163718Y-98812798D01*
X148099476Y-98855822D01*
X148037315Y-98897143D01*
X147979991Y-98934914D01*
X147930257Y-98967288D01*
X147890868Y-98992418D01*
X147864580Y-99008458D01*
X147854147Y-99013561D01*
X147849941Y-99008950D01*
X147844933Y-98989733D01*
X147842386Y-98980162D01*
X147831249Y-98952191D01*
X147812802Y-98910552D01*
X147788725Y-98859005D01*
X147760699Y-98801310D01*
X147755154Y-98790043D01*
X147675889Y-98612313D01*
X147616385Y-98442510D01*
X147576245Y-98278570D01*
X147555071Y-98118429D01*
X147552466Y-97960023D01*
X147568033Y-97801289D01*
X147585523Y-97705732D01*
X147630564Y-97541442D01*
X147693656Y-97387411D01*
X147775915Y-97241491D01*
X147878457Y-97101534D01*
X148002399Y-96965392D01*
X148047661Y-96921527D01*
X148179865Y-96809242D01*
X148317832Y-96716028D01*
X148465750Y-96639281D01*
X148627803Y-96576397D01*
X148639391Y-96572580D01*
X148825392Y-96522493D01*
X149021521Y-96489101D01*
X149223568Y-96472416D01*
X149427325Y-96472449D01*
G37*
X149926158Y-101604732D02*
X150077594Y-101613311D01*
X150214283Y-101632167D01*
X150340276Y-101662163D01*
X150459625Y-101704164D01*
X150576381Y-101759031D01*
X150687179Y-101825833D01*
X150800739Y-101916637D01*
X150896211Y-102020292D01*
X150973073Y-102136113D01*
X151030797Y-102263414D01*
X151068858Y-102401511D01*
X151074666Y-102439207D01*
X151080396Y-102518248D01*
X151080583Y-102606371D01*
X151075539Y-102695764D01*
X151065578Y-102778616D01*
X151051012Y-102847113D01*
X151041364Y-102877965D01*
X151011123Y-102955270D01*
X150973617Y-103032321D01*
X150932614Y-103101800D01*
X150891879Y-103156385D01*
X150872505Y-103179084D01*
X150854662Y-103201799D01*
X150847778Y-103213221D01*
X150849424Y-103214463D01*
X150867205Y-103217272D01*
X150900370Y-103219224D01*
X150943733Y-103219955D01*
X151039689Y-103219955D01*
X151039689Y-104078104D01*
X150978974Y-104043839D01*
X150969868Y-104038645D01*
X150955249Y-104030285D01*
X150941173Y-104022712D01*
X150926540Y-104015888D01*
X150910249Y-104009773D01*
X150891198Y-104004327D01*
X150868286Y-103999513D01*
X150840413Y-103995292D01*
X150806478Y-103991623D01*
X150765379Y-103988469D01*
X150716015Y-103985789D01*
X150657286Y-103983546D01*
X150588090Y-103981701D01*
X150507326Y-103980213D01*
X150413894Y-103979045D01*
X150306692Y-103978156D01*
X150184620Y-103977509D01*
X150046576Y-103977064D01*
X149891459Y-103976782D01*
X149718168Y-103976625D01*
X149525603Y-103976552D01*
X149312662Y-103976526D01*
X149078245Y-103976507D01*
X147393378Y-103976311D01*
X147393378Y-103070983D01*
X147430067Y-103095415D01*
X147439647Y-103101682D01*
X147485981Y-103127792D01*
X147533102Y-103145531D01*
X147588251Y-103157092D01*
X147658667Y-103164669D01*
X147665650Y-103165161D01*
X147703641Y-103166938D01*
X147757576Y-103168556D01*
X147824703Y-103170001D01*
X147902271Y-103171260D01*
X147987528Y-103172320D01*
X148077724Y-103173171D01*
X148170107Y-103173797D01*
X148261925Y-103174188D01*
X148350427Y-103174330D01*
X148432862Y-103174210D01*
X148506479Y-103173817D01*
X148568526Y-103173138D01*
X148616251Y-103172159D01*
X148646904Y-103170868D01*
X148657733Y-103169253D01*
X148653333Y-103161043D01*
X148638362Y-103139353D01*
X148616448Y-103109986D01*
X148582236Y-103061121D01*
X148535714Y-102972875D01*
X148502046Y-102874084D01*
X148499231Y-102859557D01*
X149053465Y-102859557D01*
X149065389Y-102944681D01*
X149092040Y-103028867D01*
X149132962Y-103107392D01*
X149176530Y-103174800D01*
X150326721Y-103174800D01*
X150373089Y-103104244D01*
X150396791Y-103063583D01*
X150422639Y-103009454D01*
X150440829Y-102960311D01*
X150456551Y-102896835D01*
X150467541Y-102800669D01*
X150459365Y-102716100D01*
X150431805Y-102642781D01*
X150384642Y-102580363D01*
X150317658Y-102528498D01*
X150230633Y-102486840D01*
X150123350Y-102455038D01*
X150111009Y-102452455D01*
X150049772Y-102444000D01*
X149972692Y-102438337D01*
X149885002Y-102435424D01*
X149791934Y-102435217D01*
X149698720Y-102437670D01*
X149610594Y-102442739D01*
X149532788Y-102450381D01*
X149470533Y-102460552D01*
X149464666Y-102461833D01*
X149354121Y-102490874D01*
X149263575Y-102525390D01*
X149190953Y-102566544D01*
X149134181Y-102615501D01*
X149091184Y-102673426D01*
X149075615Y-102705380D01*
X149056722Y-102778216D01*
X149053465Y-102859557D01*
X148499231Y-102859557D01*
X148480231Y-102761490D01*
X148469265Y-102631836D01*
X148468219Y-102539330D01*
X148478014Y-102417989D01*
X148502174Y-102307901D01*
X148541785Y-102204611D01*
X148597932Y-102103662D01*
X148628883Y-102058497D01*
X148720115Y-101953089D01*
X148829106Y-101861462D01*
X148955726Y-101783668D01*
X149099845Y-101719759D01*
X149261332Y-101669786D01*
X149440059Y-101633802D01*
X149635895Y-101611857D01*
X149791934Y-101606100D01*
X149848711Y-101604006D01*
X149926158Y-101604732D01*
G36*
X149926158Y-101604732D02*
G01*
X150077594Y-101613311D01*
X150214283Y-101632167D01*
X150340276Y-101662163D01*
X150459625Y-101704164D01*
X150576381Y-101759031D01*
X150687179Y-101825833D01*
X150800739Y-101916637D01*
X150896211Y-102020292D01*
X150973073Y-102136113D01*
X151030797Y-102263414D01*
X151068858Y-102401511D01*
X151074666Y-102439207D01*
X151080396Y-102518248D01*
X151080583Y-102606371D01*
X151075539Y-102695764D01*
X151065578Y-102778616D01*
X151051012Y-102847113D01*
X151041364Y-102877965D01*
X151011123Y-102955270D01*
X150973617Y-103032321D01*
X150932614Y-103101800D01*
X150891879Y-103156385D01*
X150872505Y-103179084D01*
X150854662Y-103201799D01*
X150847778Y-103213221D01*
X150849424Y-103214463D01*
X150867205Y-103217272D01*
X150900370Y-103219224D01*
X150943733Y-103219955D01*
X151039689Y-103219955D01*
X151039689Y-104078104D01*
X150978974Y-104043839D01*
X150969868Y-104038645D01*
X150955249Y-104030285D01*
X150941173Y-104022712D01*
X150926540Y-104015888D01*
X150910249Y-104009773D01*
X150891198Y-104004327D01*
X150868286Y-103999513D01*
X150840413Y-103995292D01*
X150806478Y-103991623D01*
X150765379Y-103988469D01*
X150716015Y-103985789D01*
X150657286Y-103983546D01*
X150588090Y-103981701D01*
X150507326Y-103980213D01*
X150413894Y-103979045D01*
X150306692Y-103978156D01*
X150184620Y-103977509D01*
X150046576Y-103977064D01*
X149891459Y-103976782D01*
X149718168Y-103976625D01*
X149525603Y-103976552D01*
X149312662Y-103976526D01*
X149078245Y-103976507D01*
X147393378Y-103976311D01*
X147393378Y-103070983D01*
X147430067Y-103095415D01*
X147439647Y-103101682D01*
X147485981Y-103127792D01*
X147533102Y-103145531D01*
X147588251Y-103157092D01*
X147658667Y-103164669D01*
X147665650Y-103165161D01*
X147703641Y-103166938D01*
X147757576Y-103168556D01*
X147824703Y-103170001D01*
X147902271Y-103171260D01*
X147987528Y-103172320D01*
X148077724Y-103173171D01*
X148170107Y-103173797D01*
X148261925Y-103174188D01*
X148350427Y-103174330D01*
X148432862Y-103174210D01*
X148506479Y-103173817D01*
X148568526Y-103173138D01*
X148616251Y-103172159D01*
X148646904Y-103170868D01*
X148657733Y-103169253D01*
X148653333Y-103161043D01*
X148638362Y-103139353D01*
X148616448Y-103109986D01*
X148582236Y-103061121D01*
X148535714Y-102972875D01*
X148502046Y-102874084D01*
X148499231Y-102859557D01*
X149053465Y-102859557D01*
X149065389Y-102944681D01*
X149092040Y-103028867D01*
X149132962Y-103107392D01*
X149176530Y-103174800D01*
X150326721Y-103174800D01*
X150373089Y-103104244D01*
X150396791Y-103063583D01*
X150422639Y-103009454D01*
X150440829Y-102960311D01*
X150456551Y-102896835D01*
X150467541Y-102800669D01*
X150459365Y-102716100D01*
X150431805Y-102642781D01*
X150384642Y-102580363D01*
X150317658Y-102528498D01*
X150230633Y-102486840D01*
X150123350Y-102455038D01*
X150111009Y-102452455D01*
X150049772Y-102444000D01*
X149972692Y-102438337D01*
X149885002Y-102435424D01*
X149791934Y-102435217D01*
X149698720Y-102437670D01*
X149610594Y-102442739D01*
X149532788Y-102450381D01*
X149470533Y-102460552D01*
X149464666Y-102461833D01*
X149354121Y-102490874D01*
X149263575Y-102525390D01*
X149190953Y-102566544D01*
X149134181Y-102615501D01*
X149091184Y-102673426D01*
X149075615Y-102705380D01*
X149056722Y-102778216D01*
X149053465Y-102859557D01*
X148499231Y-102859557D01*
X148480231Y-102761490D01*
X148469265Y-102631836D01*
X148468219Y-102539330D01*
X148478014Y-102417989D01*
X148502174Y-102307901D01*
X148541785Y-102204611D01*
X148597932Y-102103662D01*
X148628883Y-102058497D01*
X148720115Y-101953089D01*
X148829106Y-101861462D01*
X148955726Y-101783668D01*
X149099845Y-101719759D01*
X149261332Y-101669786D01*
X149440059Y-101633802D01*
X149635895Y-101611857D01*
X149791934Y-101606100D01*
X149848711Y-101604006D01*
X149926158Y-101604732D01*
G37*
X150283363Y-99062739D02*
X150358202Y-99066368D01*
X150420401Y-99073978D01*
X150476984Y-99086312D01*
X150603076Y-99130687D01*
X150717679Y-99193600D01*
X150818568Y-99273762D01*
X150904924Y-99370260D01*
X150975932Y-99482178D01*
X151030776Y-99608603D01*
X151068638Y-99748622D01*
X151074351Y-99784851D01*
X151080313Y-99863845D01*
X151080646Y-99952159D01*
X151075659Y-100041925D01*
X151065666Y-100125278D01*
X151050978Y-100194349D01*
X151020749Y-100280813D01*
X150966057Y-100390714D01*
X150898543Y-100488044D01*
X150847556Y-100550133D01*
X150943622Y-100553395D01*
X151039689Y-100556657D01*
X151039689Y-100979550D01*
X151039686Y-100990457D01*
X151039380Y-101084944D01*
X151038616Y-101171669D01*
X151037451Y-101248163D01*
X151035942Y-101311957D01*
X151034147Y-101360582D01*
X151032121Y-101391567D01*
X151029922Y-101402444D01*
X151029463Y-101402422D01*
X151013910Y-101395386D01*
X150991071Y-101379566D01*
X150985638Y-101375266D01*
X150971606Y-101364223D01*
X150958186Y-101354689D01*
X150943722Y-101346539D01*
X150926556Y-101339648D01*
X150905034Y-101333889D01*
X150877498Y-101329138D01*
X150842292Y-101325269D01*
X150797760Y-101322156D01*
X150742246Y-101319675D01*
X150674093Y-101317700D01*
X150591645Y-101316106D01*
X150493246Y-101314766D01*
X150377239Y-101313556D01*
X150241968Y-101312351D01*
X150085778Y-101311025D01*
X149943012Y-101309772D01*
X149797942Y-101308349D01*
X149672027Y-101306824D01*
X149563436Y-101305067D01*
X149470334Y-101302949D01*
X149390891Y-101300340D01*
X149323273Y-101297110D01*
X149265649Y-101293131D01*
X149216185Y-101288272D01*
X149173050Y-101282403D01*
X149134410Y-101275396D01*
X149098434Y-101267120D01*
X149063289Y-101257446D01*
X149027142Y-101246244D01*
X148988161Y-101233384D01*
X148945091Y-101217910D01*
X148852871Y-101175006D01*
X148773099Y-101121265D01*
X148698965Y-101052424D01*
X148635405Y-100974815D01*
X148573725Y-100870239D01*
X148526202Y-100750756D01*
X148492567Y-100615492D01*
X148472552Y-100463574D01*
X148465889Y-100294128D01*
X148466287Y-100236110D01*
X148468335Y-100170602D01*
X148472704Y-100109307D01*
X148480035Y-100047903D01*
X148490969Y-99982068D01*
X148506147Y-99907480D01*
X148526209Y-99819816D01*
X148551797Y-99714755D01*
X148558820Y-99686194D01*
X148576776Y-99610946D01*
X148592820Y-99540612D01*
X148606028Y-99479433D01*
X148615474Y-99431646D01*
X148620231Y-99401489D01*
X148623910Y-99373217D01*
X148629187Y-99346940D01*
X148633942Y-99336941D01*
X148642781Y-99340048D01*
X148670072Y-99350806D01*
X148712906Y-99368136D01*
X148768425Y-99390874D01*
X148833772Y-99417853D01*
X148906089Y-99447910D01*
X148921879Y-99454507D01*
X149012484Y-99493093D01*
X149082217Y-99524232D01*
X149131405Y-99548083D01*
X149160374Y-99564802D01*
X149169452Y-99574546D01*
X149167405Y-99582234D01*
X149157760Y-99608585D01*
X149142190Y-99647018D01*
X149122815Y-99692178D01*
X149084814Y-99786707D01*
X149043780Y-99923520D01*
X149018612Y-100064711D01*
X149014611Y-100102686D01*
X149012447Y-100205941D01*
X149025622Y-100293048D01*
X149054756Y-100364871D01*
X149100466Y-100422269D01*
X149163372Y-100466104D01*
X149244092Y-100497238D01*
X149343245Y-100516530D01*
X149402224Y-100523950D01*
X149395445Y-100362064D01*
X149395110Y-100336106D01*
X149917842Y-100336106D01*
X149917857Y-100344993D01*
X149918655Y-100400340D01*
X149920488Y-100447264D01*
X149923111Y-100481047D01*
X149926274Y-100496972D01*
X149932741Y-100501057D01*
X149954875Y-100505428D01*
X149993988Y-100508396D01*
X150051939Y-100510086D01*
X150130586Y-100510622D01*
X150326462Y-100510622D01*
X150382973Y-100465952D01*
X150398212Y-100453215D01*
X150440844Y-100406396D01*
X150476672Y-100345745D01*
X150481850Y-100335103D01*
X150498745Y-100296324D01*
X150508909Y-100261308D01*
X150514325Y-100221278D01*
X150516978Y-100167459D01*
X150517383Y-100149352D01*
X150514540Y-100073989D01*
X150502620Y-100013257D01*
X150480037Y-99961548D01*
X150445211Y-99913254D01*
X150440798Y-99908197D01*
X150385160Y-99859728D01*
X150321333Y-99831541D01*
X150246282Y-99822248D01*
X150174693Y-99829480D01*
X150111645Y-99854204D01*
X150053758Y-99898751D01*
X150006808Y-99953681D01*
X149966961Y-100026106D01*
X149939263Y-100112660D01*
X149923096Y-100215330D01*
X149917842Y-100336106D01*
X149395110Y-100336106D01*
X149393813Y-100235505D01*
X149400194Y-100084049D01*
X149414777Y-99935604D01*
X149436882Y-99799422D01*
X149451821Y-99734755D01*
X149494741Y-99602510D01*
X149551340Y-99480238D01*
X149620017Y-99370315D01*
X149699170Y-99275117D01*
X149787196Y-99197020D01*
X149882493Y-99138401D01*
X149934864Y-99114405D01*
X150005590Y-99088768D01*
X150076812Y-99072522D01*
X150155712Y-99064178D01*
X150246282Y-99062310D01*
X150249467Y-99062245D01*
X150283363Y-99062739D01*
G36*
X150283363Y-99062739D02*
G01*
X150358202Y-99066368D01*
X150420401Y-99073978D01*
X150476984Y-99086312D01*
X150603076Y-99130687D01*
X150717679Y-99193600D01*
X150818568Y-99273762D01*
X150904924Y-99370260D01*
X150975932Y-99482178D01*
X151030776Y-99608603D01*
X151068638Y-99748622D01*
X151074351Y-99784851D01*
X151080313Y-99863845D01*
X151080646Y-99952159D01*
X151075659Y-100041925D01*
X151065666Y-100125278D01*
X151050978Y-100194349D01*
X151020749Y-100280813D01*
X150966057Y-100390714D01*
X150898543Y-100488044D01*
X150847556Y-100550133D01*
X150943622Y-100553395D01*
X151039689Y-100556657D01*
X151039689Y-100979550D01*
X151039686Y-100990457D01*
X151039380Y-101084944D01*
X151038616Y-101171669D01*
X151037451Y-101248163D01*
X151035942Y-101311957D01*
X151034147Y-101360582D01*
X151032121Y-101391567D01*
X151029922Y-101402444D01*
X151029463Y-101402422D01*
X151013910Y-101395386D01*
X150991071Y-101379566D01*
X150985638Y-101375266D01*
X150971606Y-101364223D01*
X150958186Y-101354689D01*
X150943722Y-101346539D01*
X150926556Y-101339648D01*
X150905034Y-101333889D01*
X150877498Y-101329138D01*
X150842292Y-101325269D01*
X150797760Y-101322156D01*
X150742246Y-101319675D01*
X150674093Y-101317700D01*
X150591645Y-101316106D01*
X150493246Y-101314766D01*
X150377239Y-101313556D01*
X150241968Y-101312351D01*
X150085778Y-101311025D01*
X149943012Y-101309772D01*
X149797942Y-101308349D01*
X149672027Y-101306824D01*
X149563436Y-101305067D01*
X149470334Y-101302949D01*
X149390891Y-101300340D01*
X149323273Y-101297110D01*
X149265649Y-101293131D01*
X149216185Y-101288272D01*
X149173050Y-101282403D01*
X149134410Y-101275396D01*
X149098434Y-101267120D01*
X149063289Y-101257446D01*
X149027142Y-101246244D01*
X148988161Y-101233384D01*
X148945091Y-101217910D01*
X148852871Y-101175006D01*
X148773099Y-101121265D01*
X148698965Y-101052424D01*
X148635405Y-100974815D01*
X148573725Y-100870239D01*
X148526202Y-100750756D01*
X148492567Y-100615492D01*
X148472552Y-100463574D01*
X148465889Y-100294128D01*
X148466287Y-100236110D01*
X148468335Y-100170602D01*
X148472704Y-100109307D01*
X148480035Y-100047903D01*
X148490969Y-99982068D01*
X148506147Y-99907480D01*
X148526209Y-99819816D01*
X148551797Y-99714755D01*
X148558820Y-99686194D01*
X148576776Y-99610946D01*
X148592820Y-99540612D01*
X148606028Y-99479433D01*
X148615474Y-99431646D01*
X148620231Y-99401489D01*
X148623910Y-99373217D01*
X148629187Y-99346940D01*
X148633942Y-99336941D01*
X148642781Y-99340048D01*
X148670072Y-99350806D01*
X148712906Y-99368136D01*
X148768425Y-99390874D01*
X148833772Y-99417853D01*
X148906089Y-99447910D01*
X148921879Y-99454507D01*
X149012484Y-99493093D01*
X149082217Y-99524232D01*
X149131405Y-99548083D01*
X149160374Y-99564802D01*
X149169452Y-99574546D01*
X149167405Y-99582234D01*
X149157760Y-99608585D01*
X149142190Y-99647018D01*
X149122815Y-99692178D01*
X149084814Y-99786707D01*
X149043780Y-99923520D01*
X149018612Y-100064711D01*
X149014611Y-100102686D01*
X149012447Y-100205941D01*
X149025622Y-100293048D01*
X149054756Y-100364871D01*
X149100466Y-100422269D01*
X149163372Y-100466104D01*
X149244092Y-100497238D01*
X149343245Y-100516530D01*
X149402224Y-100523950D01*
X149395445Y-100362064D01*
X149395110Y-100336106D01*
X149917842Y-100336106D01*
X149917857Y-100344993D01*
X149918655Y-100400340D01*
X149920488Y-100447264D01*
X149923111Y-100481047D01*
X149926274Y-100496972D01*
X149932741Y-100501057D01*
X149954875Y-100505428D01*
X149993988Y-100508396D01*
X150051939Y-100510086D01*
X150130586Y-100510622D01*
X150326462Y-100510622D01*
X150382973Y-100465952D01*
X150398212Y-100453215D01*
X150440844Y-100406396D01*
X150476672Y-100345745D01*
X150481850Y-100335103D01*
X150498745Y-100296324D01*
X150508909Y-100261308D01*
X150514325Y-100221278D01*
X150516978Y-100167459D01*
X150517383Y-100149352D01*
X150514540Y-100073989D01*
X150502620Y-100013257D01*
X150480037Y-99961548D01*
X150445211Y-99913254D01*
X150440798Y-99908197D01*
X150385160Y-99859728D01*
X150321333Y-99831541D01*
X150246282Y-99822248D01*
X150174693Y-99829480D01*
X150111645Y-99854204D01*
X150053758Y-99898751D01*
X150006808Y-99953681D01*
X149966961Y-100026106D01*
X149939263Y-100112660D01*
X149923096Y-100215330D01*
X149917842Y-100336106D01*
X149395110Y-100336106D01*
X149393813Y-100235505D01*
X149400194Y-100084049D01*
X149414777Y-99935604D01*
X149436882Y-99799422D01*
X149451821Y-99734755D01*
X149494741Y-99602510D01*
X149551340Y-99480238D01*
X149620017Y-99370315D01*
X149699170Y-99275117D01*
X149787196Y-99197020D01*
X149882493Y-99138401D01*
X149934864Y-99114405D01*
X150005590Y-99088768D01*
X150076812Y-99072522D01*
X150155712Y-99064178D01*
X150246282Y-99062310D01*
X150249467Y-99062245D01*
X150283363Y-99062739D01*
G37*
X150227295Y-91513313D02*
X150407535Y-91513407D01*
X150570015Y-91513605D01*
X150715670Y-91513937D01*
X150845434Y-91514431D01*
X150960243Y-91515117D01*
X151061030Y-91516024D01*
X151148730Y-91517183D01*
X151224279Y-91518622D01*
X151288611Y-91520371D01*
X151342661Y-91522460D01*
X151387363Y-91524917D01*
X151423652Y-91527773D01*
X151452463Y-91531057D01*
X151474731Y-91534798D01*
X151491390Y-91539026D01*
X151503375Y-91543771D01*
X151511621Y-91549061D01*
X151517062Y-91554927D01*
X151520634Y-91561398D01*
X151523270Y-91568503D01*
X151525906Y-91576272D01*
X151529477Y-91584734D01*
X151531145Y-91589092D01*
X151533111Y-91597605D01*
X151534911Y-91610306D01*
X151536555Y-91628115D01*
X151538047Y-91651951D01*
X151539397Y-91682734D01*
X151540611Y-91721383D01*
X151541697Y-91768818D01*
X151542661Y-91825957D01*
X151543511Y-91893721D01*
X151544253Y-91973029D01*
X151544897Y-92064801D01*
X151545447Y-92169956D01*
X151545913Y-92289413D01*
X151546300Y-92424092D01*
X151546616Y-92574912D01*
X151546869Y-92742794D01*
X151547066Y-92928655D01*
X151547213Y-93133417D01*
X151547318Y-93357998D01*
X151547389Y-93603318D01*
X151547432Y-93870296D01*
X151547437Y-93908679D01*
X151547480Y-94174078D01*
X151547525Y-94417950D01*
X151547548Y-94641217D01*
X151547524Y-94844804D01*
X151547430Y-95029633D01*
X151547243Y-95196627D01*
X151546939Y-95346710D01*
X151546494Y-95480804D01*
X151545885Y-95599834D01*
X151545089Y-95704721D01*
X151544080Y-95796390D01*
X151542837Y-95875763D01*
X151541335Y-95943763D01*
X151539551Y-96001314D01*
X151537461Y-96049338D01*
X151535042Y-96088760D01*
X151532270Y-96120501D01*
X151529121Y-96145486D01*
X151525572Y-96164636D01*
X151521598Y-96178877D01*
X151517178Y-96189129D01*
X151512286Y-96196318D01*
X151506900Y-96201365D01*
X151500996Y-96205195D01*
X151494549Y-96208729D01*
X151487537Y-96212892D01*
X151485687Y-96213975D01*
X151480180Y-96216187D01*
X151471868Y-96218214D01*
X151459809Y-96220062D01*
X151443063Y-96221739D01*
X151420687Y-96223255D01*
X151391740Y-96224617D01*
X151355280Y-96225833D01*
X151310367Y-96226911D01*
X151256057Y-96227860D01*
X151191410Y-96228688D01*
X151115484Y-96229403D01*
X151027338Y-96230013D01*
X150926029Y-96230526D01*
X150810617Y-96230950D01*
X150680160Y-96231294D01*
X150533716Y-96231566D01*
X150370344Y-96231773D01*
X150189101Y-96231924D01*
X149989048Y-96232028D01*
X149769241Y-96232092D01*
X149528739Y-96232124D01*
X149266602Y-96232133D01*
X147075031Y-96232133D01*
X147036649Y-96193751D01*
X147012911Y-96166645D01*
X147001111Y-96139747D01*
X146998267Y-96103440D01*
X146998267Y-96051511D01*
X147086206Y-96051511D01*
X147136102Y-96049573D01*
X147246523Y-96030801D01*
X147347987Y-95993783D01*
X147439152Y-95940631D01*
X147518673Y-95873454D01*
X147585205Y-95794362D01*
X147637406Y-95705466D01*
X147673930Y-95608875D01*
X147693434Y-95506700D01*
X147694561Y-95402147D01*
X148510978Y-95402147D01*
X148510978Y-95847805D01*
X149687845Y-95850880D01*
X150864711Y-95853955D01*
X150923622Y-95880593D01*
X150948183Y-95892515D01*
X150978434Y-95909754D01*
X150995560Y-95922926D01*
X151003591Y-95930924D01*
X151018493Y-95938622D01*
X151019765Y-95934740D01*
X151021791Y-95911480D01*
X151023626Y-95869126D01*
X151025227Y-95809868D01*
X151026549Y-95735893D01*
X151027548Y-95649390D01*
X151028180Y-95552548D01*
X151028400Y-95447555D01*
X151028349Y-95378644D01*
X151028091Y-95280393D01*
X151027637Y-95190970D01*
X151027010Y-95112667D01*
X151026235Y-95047777D01*
X151025335Y-94998589D01*
X151024334Y-94967396D01*
X151023257Y-94956489D01*
X151020037Y-94957678D01*
X151002452Y-94967824D01*
X150976158Y-94984960D01*
X150963691Y-94993460D01*
X150949622Y-95002671D01*
X150935351Y-95010767D01*
X150919479Y-95017815D01*
X150900609Y-95023883D01*
X150877341Y-95029039D01*
X150848278Y-95033349D01*
X150812021Y-95036881D01*
X150767170Y-95039703D01*
X150712328Y-95041882D01*
X150646097Y-95043486D01*
X150567077Y-95044581D01*
X150473871Y-95045235D01*
X150365079Y-95045516D01*
X150239303Y-95045491D01*
X150095145Y-95045228D01*
X149931207Y-95044794D01*
X149746089Y-95044255D01*
X149567232Y-95043721D01*
X149408374Y-95043195D01*
X149269316Y-95042650D01*
X149148665Y-95042055D01*
X149045028Y-95041381D01*
X148957011Y-95040597D01*
X148883223Y-95039674D01*
X148822269Y-95038581D01*
X148772757Y-95037288D01*
X148733293Y-95035765D01*
X148702484Y-95033981D01*
X148678938Y-95031908D01*
X148661260Y-95029514D01*
X148648059Y-95026770D01*
X148637940Y-95023644D01*
X148629511Y-95020108D01*
X148621375Y-95016209D01*
X148584544Y-94996562D01*
X148554391Y-94977775D01*
X148552908Y-94976728D01*
X148530659Y-94962398D01*
X148517702Y-94956489D01*
X148517249Y-94957496D01*
X148515803Y-94974695D01*
X148514480Y-95011344D01*
X148513316Y-95065038D01*
X148512347Y-95133370D01*
X148511611Y-95213936D01*
X148511142Y-95304330D01*
X148510978Y-95402147D01*
X147694561Y-95402147D01*
X147694573Y-95401050D01*
X147676005Y-95294036D01*
X147636384Y-95187768D01*
X147578516Y-95090781D01*
X147503684Y-95005707D01*
X147415615Y-94936985D01*
X147316616Y-94886082D01*
X147208993Y-94854465D01*
X147095054Y-94843600D01*
X146998267Y-94843600D01*
X146998267Y-93223247D01*
X146998280Y-93012103D01*
X146998313Y-92877686D01*
X147607867Y-92877686D01*
X147670966Y-92839689D01*
X147696005Y-92825007D01*
X147723586Y-92810469D01*
X147751700Y-92798373D01*
X147782551Y-92788468D01*
X147818344Y-92780506D01*
X147861283Y-92774239D01*
X147913574Y-92769418D01*
X147977419Y-92765794D01*
X148055025Y-92763119D01*
X148148594Y-92761143D01*
X148260333Y-92759618D01*
X148392445Y-92758296D01*
X148512434Y-92757387D01*
X148629063Y-92756980D01*
X148724531Y-92757233D01*
X148798556Y-92758143D01*
X148850855Y-92759707D01*
X148881149Y-92761921D01*
X148889156Y-92764780D01*
X148885858Y-92767839D01*
X148864408Y-92785994D01*
X148827889Y-92815725D01*
X148778442Y-92855361D01*
X148718207Y-92903229D01*
X148649327Y-92957657D01*
X148573943Y-93016973D01*
X148494196Y-93079505D01*
X148412228Y-93143579D01*
X148330180Y-93207525D01*
X148250194Y-93269669D01*
X148174411Y-93328339D01*
X148104973Y-93381863D01*
X148044021Y-93428570D01*
X147993696Y-93466786D01*
X147956140Y-93494839D01*
X147933495Y-93511057D01*
X147861212Y-93556365D01*
X147781463Y-93596339D01*
X147713188Y-93617870D01*
X147655844Y-93621173D01*
X147607867Y-93615884D01*
X147608117Y-94747644D01*
X147638722Y-94708133D01*
X147646089Y-94698752D01*
X147700438Y-94635817D01*
X147768259Y-94567003D01*
X147851516Y-94490404D01*
X147952178Y-94404112D01*
X147972847Y-94386948D01*
X148022409Y-94346167D01*
X148083326Y-94296412D01*
X148153898Y-94239045D01*
X148232424Y-94175431D01*
X148317204Y-94106931D01*
X148406537Y-94034910D01*
X148498722Y-93960730D01*
X148517702Y-93945483D01*
X148592060Y-93885754D01*
X148684848Y-93811347D01*
X148775388Y-93738869D01*
X148861978Y-93669686D01*
X148942918Y-93605159D01*
X149016506Y-93546653D01*
X149081044Y-93495530D01*
X149134829Y-93453153D01*
X149176162Y-93420885D01*
X149203342Y-93400090D01*
X149214668Y-93392131D01*
X149218771Y-93393889D01*
X149239334Y-93406770D01*
X149275561Y-93431115D01*
X149325824Y-93465753D01*
X149388492Y-93509514D01*
X149461936Y-93561225D01*
X149544527Y-93619716D01*
X149634636Y-93683816D01*
X149730631Y-93752354D01*
X149830885Y-93824157D01*
X149933768Y-93898056D01*
X150037650Y-93972879D01*
X150140901Y-94047455D01*
X150241892Y-94120613D01*
X150338994Y-94191181D01*
X150430577Y-94257989D01*
X150515011Y-94319865D01*
X150590667Y-94375639D01*
X150655916Y-94424138D01*
X150709128Y-94464193D01*
X150748673Y-94494631D01*
X150774026Y-94515056D01*
X150828295Y-94561101D01*
X150884775Y-94611388D01*
X150934669Y-94658185D01*
X151028400Y-94749349D01*
X151028400Y-93594910D01*
X150952200Y-93595544D01*
X150910160Y-93594426D01*
X150874334Y-93588696D01*
X150836772Y-93576110D01*
X150788577Y-93554432D01*
X150781897Y-93551211D01*
X150732359Y-93525812D01*
X150684369Y-93499004D01*
X150647466Y-93476083D01*
X150640834Y-93471515D01*
X150609593Y-93449484D01*
X150564654Y-93417307D01*
X150508147Y-93376543D01*
X150442204Y-93328755D01*
X150368957Y-93275502D01*
X150290536Y-93218345D01*
X150209072Y-93158845D01*
X150126698Y-93098563D01*
X150045544Y-93039060D01*
X149967742Y-92981895D01*
X149895423Y-92928630D01*
X149830718Y-92880826D01*
X149775759Y-92840043D01*
X149732676Y-92807842D01*
X149703602Y-92785784D01*
X149690667Y-92775429D01*
X149686351Y-92770956D01*
X149684312Y-92766764D01*
X149686926Y-92763357D01*
X149695986Y-92760675D01*
X149713285Y-92758659D01*
X149740614Y-92757252D01*
X149779765Y-92756395D01*
X149832533Y-92756030D01*
X149900707Y-92756097D01*
X149986082Y-92756540D01*
X150090449Y-92757298D01*
X150215600Y-92758315D01*
X150260300Y-92758692D01*
X150381395Y-92759831D01*
X150482688Y-92761028D01*
X150566262Y-92762364D01*
X150634204Y-92763923D01*
X150688599Y-92765785D01*
X150731532Y-92768034D01*
X150765089Y-92770752D01*
X150791355Y-92774021D01*
X150812416Y-92777922D01*
X150830357Y-92782539D01*
X150856770Y-92790808D01*
X150918772Y-92814417D01*
X150971573Y-92840315D01*
X151008645Y-92865465D01*
X151010075Y-92866661D01*
X151014424Y-92868832D01*
X151018026Y-92866672D01*
X151020951Y-92858356D01*
X151023269Y-92842060D01*
X151025051Y-92815959D01*
X151026367Y-92778229D01*
X151027286Y-92727044D01*
X151027878Y-92660580D01*
X151028215Y-92577013D01*
X151028365Y-92474517D01*
X151028400Y-92351268D01*
X151028400Y-91819704D01*
X150970783Y-91858477D01*
X150961893Y-91864568D01*
X150947069Y-91875024D01*
X150933422Y-91884421D01*
X150919765Y-91892817D01*
X150904911Y-91900267D01*
X150887670Y-91906827D01*
X150866855Y-91912554D01*
X150841280Y-91917505D01*
X150809755Y-91921734D01*
X150771093Y-91925299D01*
X150724107Y-91928256D01*
X150667608Y-91930660D01*
X150600409Y-91932569D01*
X150521322Y-91934038D01*
X150429160Y-91935124D01*
X150322734Y-91935882D01*
X150200857Y-91936370D01*
X150062341Y-91936642D01*
X149905999Y-91936757D01*
X149730642Y-91936769D01*
X149535082Y-91936735D01*
X149318133Y-91936711D01*
X149195513Y-91936720D01*
X148990447Y-91936757D01*
X148806116Y-91936773D01*
X148641334Y-91936712D01*
X148494916Y-91936516D01*
X148365674Y-91936130D01*
X148252422Y-91935495D01*
X148153975Y-91934556D01*
X148069144Y-91933255D01*
X147996744Y-91931536D01*
X147935589Y-91929341D01*
X147884492Y-91926615D01*
X147842267Y-91923299D01*
X147807727Y-91919338D01*
X147779686Y-91914675D01*
X147756958Y-91909253D01*
X147738356Y-91903014D01*
X147722693Y-91895903D01*
X147708784Y-91887862D01*
X147695441Y-91878834D01*
X147681479Y-91868764D01*
X147665711Y-91857593D01*
X147607867Y-91817803D01*
X147607867Y-92877686D01*
X146998313Y-92877686D01*
X146998330Y-92807980D01*
X146998430Y-92624314D01*
X146998592Y-92460009D01*
X146998829Y-92313971D01*
X146999153Y-92185106D01*
X146999575Y-92072317D01*
X147000109Y-91974512D01*
X147000767Y-91890596D01*
X147001561Y-91819473D01*
X147002504Y-91760050D01*
X147003608Y-91711232D01*
X147004884Y-91671923D01*
X147006347Y-91641031D01*
X147008007Y-91617459D01*
X147009878Y-91600114D01*
X147011972Y-91587901D01*
X147014300Y-91579725D01*
X147016876Y-91574492D01*
X147020445Y-91568496D01*
X147023978Y-91561721D01*
X147027488Y-91555522D01*
X147031918Y-91549874D01*
X147038208Y-91544753D01*
X147047301Y-91540131D01*
X147060139Y-91535985D01*
X147077662Y-91532287D01*
X147100813Y-91529013D01*
X147130534Y-91526137D01*
X147167765Y-91523633D01*
X147213449Y-91521476D01*
X147268527Y-91519640D01*
X147333941Y-91518100D01*
X147410633Y-91516830D01*
X147499544Y-91515805D01*
X147601617Y-91514999D01*
X147607867Y-91514966D01*
X147717792Y-91514386D01*
X147849011Y-91513941D01*
X147996216Y-91513638D01*
X148160349Y-91513452D01*
X148342352Y-91513358D01*
X148543165Y-91513329D01*
X148763732Y-91513339D01*
X149004992Y-91513364D01*
X149267889Y-91513378D01*
X149310040Y-91513378D01*
X149570668Y-91513354D01*
X149809796Y-91513315D01*
X150028360Y-91513292D01*
X150227295Y-91513313D01*
G36*
X150227295Y-91513313D02*
G01*
X150407535Y-91513407D01*
X150570015Y-91513605D01*
X150715670Y-91513937D01*
X150845434Y-91514431D01*
X150960243Y-91515117D01*
X151061030Y-91516024D01*
X151148730Y-91517183D01*
X151224279Y-91518622D01*
X151288611Y-91520371D01*
X151342661Y-91522460D01*
X151387363Y-91524917D01*
X151423652Y-91527773D01*
X151452463Y-91531057D01*
X151474731Y-91534798D01*
X151491390Y-91539026D01*
X151503375Y-91543771D01*
X151511621Y-91549061D01*
X151517062Y-91554927D01*
X151520634Y-91561398D01*
X151523270Y-91568503D01*
X151525906Y-91576272D01*
X151529477Y-91584734D01*
X151531145Y-91589092D01*
X151533111Y-91597605D01*
X151534911Y-91610306D01*
X151536555Y-91628115D01*
X151538047Y-91651951D01*
X151539397Y-91682734D01*
X151540611Y-91721383D01*
X151541697Y-91768818D01*
X151542661Y-91825957D01*
X151543511Y-91893721D01*
X151544253Y-91973029D01*
X151544897Y-92064801D01*
X151545447Y-92169956D01*
X151545913Y-92289413D01*
X151546300Y-92424092D01*
X151546616Y-92574912D01*
X151546869Y-92742794D01*
X151547066Y-92928655D01*
X151547213Y-93133417D01*
X151547318Y-93357998D01*
X151547389Y-93603318D01*
X151547432Y-93870296D01*
X151547437Y-93908679D01*
X151547480Y-94174078D01*
X151547525Y-94417950D01*
X151547548Y-94641217D01*
X151547524Y-94844804D01*
X151547430Y-95029633D01*
X151547243Y-95196627D01*
X151546939Y-95346710D01*
X151546494Y-95480804D01*
X151545885Y-95599834D01*
X151545089Y-95704721D01*
X151544080Y-95796390D01*
X151542837Y-95875763D01*
X151541335Y-95943763D01*
X151539551Y-96001314D01*
X151537461Y-96049338D01*
X151535042Y-96088760D01*
X151532270Y-96120501D01*
X151529121Y-96145486D01*
X151525572Y-96164636D01*
X151521598Y-96178877D01*
X151517178Y-96189129D01*
X151512286Y-96196318D01*
X151506900Y-96201365D01*
X151500996Y-96205195D01*
X151494549Y-96208729D01*
X151487537Y-96212892D01*
X151485687Y-96213975D01*
X151480180Y-96216187D01*
X151471868Y-96218214D01*
X151459809Y-96220062D01*
X151443063Y-96221739D01*
X151420687Y-96223255D01*
X151391740Y-96224617D01*
X151355280Y-96225833D01*
X151310367Y-96226911D01*
X151256057Y-96227860D01*
X151191410Y-96228688D01*
X151115484Y-96229403D01*
X151027338Y-96230013D01*
X150926029Y-96230526D01*
X150810617Y-96230950D01*
X150680160Y-96231294D01*
X150533716Y-96231566D01*
X150370344Y-96231773D01*
X150189101Y-96231924D01*
X149989048Y-96232028D01*
X149769241Y-96232092D01*
X149528739Y-96232124D01*
X149266602Y-96232133D01*
X147075031Y-96232133D01*
X147036649Y-96193751D01*
X147012911Y-96166645D01*
X147001111Y-96139747D01*
X146998267Y-96103440D01*
X146998267Y-96051511D01*
X147086206Y-96051511D01*
X147136102Y-96049573D01*
X147246523Y-96030801D01*
X147347987Y-95993783D01*
X147439152Y-95940631D01*
X147518673Y-95873454D01*
X147585205Y-95794362D01*
X147637406Y-95705466D01*
X147673930Y-95608875D01*
X147693434Y-95506700D01*
X147694561Y-95402147D01*
X148510978Y-95402147D01*
X148510978Y-95847805D01*
X149687845Y-95850880D01*
X150864711Y-95853955D01*
X150923622Y-95880593D01*
X150948183Y-95892515D01*
X150978434Y-95909754D01*
X150995560Y-95922926D01*
X151003591Y-95930924D01*
X151018493Y-95938622D01*
X151019765Y-95934740D01*
X151021791Y-95911480D01*
X151023626Y-95869126D01*
X151025227Y-95809868D01*
X151026549Y-95735893D01*
X151027548Y-95649390D01*
X151028180Y-95552548D01*
X151028400Y-95447555D01*
X151028349Y-95378644D01*
X151028091Y-95280393D01*
X151027637Y-95190970D01*
X151027010Y-95112667D01*
X151026235Y-95047777D01*
X151025335Y-94998589D01*
X151024334Y-94967396D01*
X151023257Y-94956489D01*
X151020037Y-94957678D01*
X151002452Y-94967824D01*
X150976158Y-94984960D01*
X150963691Y-94993460D01*
X150949622Y-95002671D01*
X150935351Y-95010767D01*
X150919479Y-95017815D01*
X150900609Y-95023883D01*
X150877341Y-95029039D01*
X150848278Y-95033349D01*
X150812021Y-95036881D01*
X150767170Y-95039703D01*
X150712328Y-95041882D01*
X150646097Y-95043486D01*
X150567077Y-95044581D01*
X150473871Y-95045235D01*
X150365079Y-95045516D01*
X150239303Y-95045491D01*
X150095145Y-95045228D01*
X149931207Y-95044794D01*
X149746089Y-95044255D01*
X149567232Y-95043721D01*
X149408374Y-95043195D01*
X149269316Y-95042650D01*
X149148665Y-95042055D01*
X149045028Y-95041381D01*
X148957011Y-95040597D01*
X148883223Y-95039674D01*
X148822269Y-95038581D01*
X148772757Y-95037288D01*
X148733293Y-95035765D01*
X148702484Y-95033981D01*
X148678938Y-95031908D01*
X148661260Y-95029514D01*
X148648059Y-95026770D01*
X148637940Y-95023644D01*
X148629511Y-95020108D01*
X148621375Y-95016209D01*
X148584544Y-94996562D01*
X148554391Y-94977775D01*
X148552908Y-94976728D01*
X148530659Y-94962398D01*
X148517702Y-94956489D01*
X148517249Y-94957496D01*
X148515803Y-94974695D01*
X148514480Y-95011344D01*
X148513316Y-95065038D01*
X148512347Y-95133370D01*
X148511611Y-95213936D01*
X148511142Y-95304330D01*
X148510978Y-95402147D01*
X147694561Y-95402147D01*
X147694573Y-95401050D01*
X147676005Y-95294036D01*
X147636384Y-95187768D01*
X147578516Y-95090781D01*
X147503684Y-95005707D01*
X147415615Y-94936985D01*
X147316616Y-94886082D01*
X147208993Y-94854465D01*
X147095054Y-94843600D01*
X146998267Y-94843600D01*
X146998267Y-93223247D01*
X146998280Y-93012103D01*
X146998313Y-92877686D01*
X147607867Y-92877686D01*
X147670966Y-92839689D01*
X147696005Y-92825007D01*
X147723586Y-92810469D01*
X147751700Y-92798373D01*
X147782551Y-92788468D01*
X147818344Y-92780506D01*
X147861283Y-92774239D01*
X147913574Y-92769418D01*
X147977419Y-92765794D01*
X148055025Y-92763119D01*
X148148594Y-92761143D01*
X148260333Y-92759618D01*
X148392445Y-92758296D01*
X148512434Y-92757387D01*
X148629063Y-92756980D01*
X148724531Y-92757233D01*
X148798556Y-92758143D01*
X148850855Y-92759707D01*
X148881149Y-92761921D01*
X148889156Y-92764780D01*
X148885858Y-92767839D01*
X148864408Y-92785994D01*
X148827889Y-92815725D01*
X148778442Y-92855361D01*
X148718207Y-92903229D01*
X148649327Y-92957657D01*
X148573943Y-93016973D01*
X148494196Y-93079505D01*
X148412228Y-93143579D01*
X148330180Y-93207525D01*
X148250194Y-93269669D01*
X148174411Y-93328339D01*
X148104973Y-93381863D01*
X148044021Y-93428570D01*
X147993696Y-93466786D01*
X147956140Y-93494839D01*
X147933495Y-93511057D01*
X147861212Y-93556365D01*
X147781463Y-93596339D01*
X147713188Y-93617870D01*
X147655844Y-93621173D01*
X147607867Y-93615884D01*
X147608117Y-94747644D01*
X147638722Y-94708133D01*
X147646089Y-94698752D01*
X147700438Y-94635817D01*
X147768259Y-94567003D01*
X147851516Y-94490404D01*
X147952178Y-94404112D01*
X147972847Y-94386948D01*
X148022409Y-94346167D01*
X148083326Y-94296412D01*
X148153898Y-94239045D01*
X148232424Y-94175431D01*
X148317204Y-94106931D01*
X148406537Y-94034910D01*
X148498722Y-93960730D01*
X148517702Y-93945483D01*
X148592060Y-93885754D01*
X148684848Y-93811347D01*
X148775388Y-93738869D01*
X148861978Y-93669686D01*
X148942918Y-93605159D01*
X149016506Y-93546653D01*
X149081044Y-93495530D01*
X149134829Y-93453153D01*
X149176162Y-93420885D01*
X149203342Y-93400090D01*
X149214668Y-93392131D01*
X149218771Y-93393889D01*
X149239334Y-93406770D01*
X149275561Y-93431115D01*
X149325824Y-93465753D01*
X149388492Y-93509514D01*
X149461936Y-93561225D01*
X149544527Y-93619716D01*
X149634636Y-93683816D01*
X149730631Y-93752354D01*
X149830885Y-93824157D01*
X149933768Y-93898056D01*
X150037650Y-93972879D01*
X150140901Y-94047455D01*
X150241892Y-94120613D01*
X150338994Y-94191181D01*
X150430577Y-94257989D01*
X150515011Y-94319865D01*
X150590667Y-94375639D01*
X150655916Y-94424138D01*
X150709128Y-94464193D01*
X150748673Y-94494631D01*
X150774026Y-94515056D01*
X150828295Y-94561101D01*
X150884775Y-94611388D01*
X150934669Y-94658185D01*
X151028400Y-94749349D01*
X151028400Y-93594910D01*
X150952200Y-93595544D01*
X150910160Y-93594426D01*
X150874334Y-93588696D01*
X150836772Y-93576110D01*
X150788577Y-93554432D01*
X150781897Y-93551211D01*
X150732359Y-93525812D01*
X150684369Y-93499004D01*
X150647466Y-93476083D01*
X150640834Y-93471515D01*
X150609593Y-93449484D01*
X150564654Y-93417307D01*
X150508147Y-93376543D01*
X150442204Y-93328755D01*
X150368957Y-93275502D01*
X150290536Y-93218345D01*
X150209072Y-93158845D01*
X150126698Y-93098563D01*
X150045544Y-93039060D01*
X149967742Y-92981895D01*
X149895423Y-92928630D01*
X149830718Y-92880826D01*
X149775759Y-92840043D01*
X149732676Y-92807842D01*
X149703602Y-92785784D01*
X149690667Y-92775429D01*
X149686351Y-92770956D01*
X149684312Y-92766764D01*
X149686926Y-92763357D01*
X149695986Y-92760675D01*
X149713285Y-92758659D01*
X149740614Y-92757252D01*
X149779765Y-92756395D01*
X149832533Y-92756030D01*
X149900707Y-92756097D01*
X149986082Y-92756540D01*
X150090449Y-92757298D01*
X150215600Y-92758315D01*
X150260300Y-92758692D01*
X150381395Y-92759831D01*
X150482688Y-92761028D01*
X150566262Y-92762364D01*
X150634204Y-92763923D01*
X150688599Y-92765785D01*
X150731532Y-92768034D01*
X150765089Y-92770752D01*
X150791355Y-92774021D01*
X150812416Y-92777922D01*
X150830357Y-92782539D01*
X150856770Y-92790808D01*
X150918772Y-92814417D01*
X150971573Y-92840315D01*
X151008645Y-92865465D01*
X151010075Y-92866661D01*
X151014424Y-92868832D01*
X151018026Y-92866672D01*
X151020951Y-92858356D01*
X151023269Y-92842060D01*
X151025051Y-92815959D01*
X151026367Y-92778229D01*
X151027286Y-92727044D01*
X151027878Y-92660580D01*
X151028215Y-92577013D01*
X151028365Y-92474517D01*
X151028400Y-92351268D01*
X151028400Y-91819704D01*
X150970783Y-91858477D01*
X150961893Y-91864568D01*
X150947069Y-91875024D01*
X150933422Y-91884421D01*
X150919765Y-91892817D01*
X150904911Y-91900267D01*
X150887670Y-91906827D01*
X150866855Y-91912554D01*
X150841280Y-91917505D01*
X150809755Y-91921734D01*
X150771093Y-91925299D01*
X150724107Y-91928256D01*
X150667608Y-91930660D01*
X150600409Y-91932569D01*
X150521322Y-91934038D01*
X150429160Y-91935124D01*
X150322734Y-91935882D01*
X150200857Y-91936370D01*
X150062341Y-91936642D01*
X149905999Y-91936757D01*
X149730642Y-91936769D01*
X149535082Y-91936735D01*
X149318133Y-91936711D01*
X149195513Y-91936720D01*
X148990447Y-91936757D01*
X148806116Y-91936773D01*
X148641334Y-91936712D01*
X148494916Y-91936516D01*
X148365674Y-91936130D01*
X148252422Y-91935495D01*
X148153975Y-91934556D01*
X148069144Y-91933255D01*
X147996744Y-91931536D01*
X147935589Y-91929341D01*
X147884492Y-91926615D01*
X147842267Y-91923299D01*
X147807727Y-91919338D01*
X147779686Y-91914675D01*
X147756958Y-91909253D01*
X147738356Y-91903014D01*
X147722693Y-91895903D01*
X147708784Y-91887862D01*
X147695441Y-91878834D01*
X147681479Y-91868764D01*
X147665711Y-91857593D01*
X147607867Y-91817803D01*
X147607867Y-92877686D01*
X146998313Y-92877686D01*
X146998330Y-92807980D01*
X146998430Y-92624314D01*
X146998592Y-92460009D01*
X146998829Y-92313971D01*
X146999153Y-92185106D01*
X146999575Y-92072317D01*
X147000109Y-91974512D01*
X147000767Y-91890596D01*
X147001561Y-91819473D01*
X147002504Y-91760050D01*
X147003608Y-91711232D01*
X147004884Y-91671923D01*
X147006347Y-91641031D01*
X147008007Y-91617459D01*
X147009878Y-91600114D01*
X147011972Y-91587901D01*
X147014300Y-91579725D01*
X147016876Y-91574492D01*
X147020445Y-91568496D01*
X147023978Y-91561721D01*
X147027488Y-91555522D01*
X147031918Y-91549874D01*
X147038208Y-91544753D01*
X147047301Y-91540131D01*
X147060139Y-91535985D01*
X147077662Y-91532287D01*
X147100813Y-91529013D01*
X147130534Y-91526137D01*
X147167765Y-91523633D01*
X147213449Y-91521476D01*
X147268527Y-91519640D01*
X147333941Y-91518100D01*
X147410633Y-91516830D01*
X147499544Y-91515805D01*
X147601617Y-91514999D01*
X147607867Y-91514966D01*
X147717792Y-91514386D01*
X147849011Y-91513941D01*
X147996216Y-91513638D01*
X148160349Y-91513452D01*
X148342352Y-91513358D01*
X148543165Y-91513329D01*
X148763732Y-91513339D01*
X149004992Y-91513364D01*
X149267889Y-91513378D01*
X149310040Y-91513378D01*
X149570668Y-91513354D01*
X149809796Y-91513315D01*
X150028360Y-91513292D01*
X150227295Y-91513313D01*
G37*
%TD*%
M02*
