%TF.GenerationSoftware,KiCad,Pcbnew,9.0.4*%
%TF.CreationDate,2026-02-14T22:34:29+05:30*%
%TF.ProjectId,Breadboard_PowerSupply,42726561-6462-46f6-9172-645f506f7765,rev?*%
%TF.SameCoordinates,Original*%
%TF.FileFunction,Copper,L2,Bot*%
%TF.FilePolarity,Positive*%
%FSLAX46Y46*%
G04 Gerber Fmt 4.6, Leading zero omitted, Abs format (unit mm)*
G04 Created by KiCad (PCBNEW 9.0.4) date 2026-02-14 22:34:29*
%MOMM*%
%LPD*%
G01*
G04 APERTURE LIST*
G04 Aperture macros list*
%AMRoundRect*
0 Rectangle with rounded corners*
0 $1 Rounding radius*
0 $2 $3 $4 $5 $6 $7 $8 $9 X,Y pos of 4 corners*
0 Add a 4 corners polygon primitive as box body*
4,1,4,$2,$3,$4,$5,$6,$7,$8,$9,$2,$3,0*
0 Add four circle primitives for the rounded corners*
1,1,$1+$1,$2,$3*
1,1,$1+$1,$4,$5*
1,1,$1+$1,$6,$7*
1,1,$1+$1,$8,$9*
0 Add four rect primitives between the rounded corners*
20,1,$1+$1,$2,$3,$4,$5,0*
20,1,$1+$1,$4,$5,$6,$7,0*
20,1,$1+$1,$6,$7,$8,$9,0*
20,1,$1+$1,$8,$9,$2,$3,0*%
G04 Aperture macros list end*
%TA.AperFunction,ComponentPad*%
%ADD10C,1.400000*%
%TD*%
%TA.AperFunction,ComponentPad*%
%ADD11R,3.000000X3.000000*%
%TD*%
%TA.AperFunction,ComponentPad*%
%ADD12C,3.000000*%
%TD*%
%TA.AperFunction,ComponentPad*%
%ADD13R,1.900000X1.900000*%
%TD*%
%TA.AperFunction,ComponentPad*%
%ADD14C,1.900000*%
%TD*%
%TA.AperFunction,ComponentPad*%
%ADD15C,1.600000*%
%TD*%
%TA.AperFunction,ComponentPad*%
%ADD16R,1.700000X1.700000*%
%TD*%
%TA.AperFunction,ComponentPad*%
%ADD17C,1.700000*%
%TD*%
%TA.AperFunction,ComponentPad*%
%ADD18R,1.905000X2.000000*%
%TD*%
%TA.AperFunction,ComponentPad*%
%ADD19O,1.905000X2.000000*%
%TD*%
%TA.AperFunction,ComponentPad*%
%ADD20R,3.500000X3.500000*%
%TD*%
%TA.AperFunction,ComponentPad*%
%ADD21RoundRect,0.750000X-0.750000X-1.000000X0.750000X-1.000000X0.750000X1.000000X-0.750000X1.000000X0*%
%TD*%
%TA.AperFunction,ComponentPad*%
%ADD22RoundRect,0.875000X-0.875000X-0.875000X0.875000X-0.875000X0.875000X0.875000X-0.875000X0.875000X0*%
%TD*%
%TA.AperFunction,ComponentPad*%
%ADD23R,1.800000X1.800000*%
%TD*%
%TA.AperFunction,ComponentPad*%
%ADD24C,1.800000*%
%TD*%
%TA.AperFunction,ViaPad*%
%ADD25C,0.900000*%
%TD*%
%TA.AperFunction,ViaPad*%
%ADD26C,0.800000*%
%TD*%
%TA.AperFunction,Conductor*%
%ADD27C,0.350000*%
%TD*%
%TA.AperFunction,Conductor*%
%ADD28C,0.250000*%
%TD*%
G04 APERTURE END LIST*
D10*
%TO.P,R2,1*%
%TO.N,Net-(D1-A)*%
X151892000Y-80010000D03*
%TO.P,R2,2*%
%TO.N,/12V*%
X144272000Y-80010000D03*
%TD*%
D11*
%TO.P,J5,1,Pin_1*%
%TO.N,GND*%
X146812000Y-64008000D03*
D12*
%TO.P,J5,2,Pin_2*%
%TO.N,/PWR_OUT_TOP*%
X151892000Y-64008000D03*
%TD*%
D13*
%TO.P,S1,1*%
%TO.N,/12V*%
X150950000Y-73660000D03*
D14*
%TO.P,S1,2*%
%TO.N,/PWR_Input*%
X148450000Y-73660000D03*
%TO.P,S1,3*%
%TO.N,unconnected-(S1-Pad3)*%
X145950000Y-73660000D03*
%TD*%
D10*
%TO.P,R1,2*%
%TO.N,/3.3V*%
X146050000Y-100584000D03*
%TO.P,R1,1*%
%TO.N,Net-(U2-ADJ)*%
X153670000Y-100584000D03*
%TD*%
%TO.P,R3,2*%
%TO.N,Net-(U2-ADJ)*%
X146050000Y-95250000D03*
%TO.P,R3,1*%
%TO.N,GND*%
X153670000Y-95250000D03*
%TD*%
D12*
%TO.P,J7,2,Pin_2*%
%TO.N,/PWR_OUT_BOT*%
X151892000Y-108458000D03*
D11*
%TO.P,J7,1,Pin_1*%
%TO.N,GND*%
X146812000Y-108458000D03*
%TD*%
D15*
%TO.P,C1,1*%
%TO.N,/12V*%
X142748000Y-66802000D03*
%TO.P,C1,2*%
%TO.N,GND*%
X140248000Y-66802000D03*
%TD*%
%TO.P,C3,1*%
%TO.N,/3.3V*%
X138938000Y-105918000D03*
%TO.P,C3,2*%
%TO.N,GND*%
X136438000Y-105918000D03*
%TD*%
%TO.P,C2,1*%
%TO.N,/5V*%
X135616000Y-66802000D03*
%TO.P,C2,2*%
%TO.N,GND*%
X133116000Y-66802000D03*
%TD*%
D16*
%TO.P,J1,1,Pin_1*%
%TO.N,GND*%
X159004000Y-61778000D03*
D17*
%TO.P,J1,2,Pin_2*%
%TO.N,/PWR_OUT_TOP*%
X159004000Y-64318000D03*
%TD*%
D16*
%TO.P,J2,1,Pin_1*%
%TO.N,GND*%
X159004000Y-108138000D03*
D17*
%TO.P,J2,2,Pin_2*%
%TO.N,/PWR_OUT_BOT*%
X159004000Y-110678000D03*
%TD*%
D16*
%TO.P,J3,1,Pin_1*%
%TO.N,/3.3V*%
X135636000Y-61722000D03*
D17*
%TO.P,J3,2,Pin_2*%
%TO.N,/PWR_OUT_TOP*%
X138176000Y-61722000D03*
%TO.P,J3,3,Pin_3*%
%TO.N,/5V*%
X140716000Y-61722000D03*
%TD*%
D16*
%TO.P,J4,1,Pin_1*%
%TO.N,/3.3V*%
X136144000Y-110490000D03*
D17*
%TO.P,J4,2,Pin_2*%
%TO.N,/PWR_OUT_BOT*%
X138684000Y-110490000D03*
%TO.P,J4,3,Pin_3*%
%TO.N,/5V*%
X141224000Y-110490000D03*
%TD*%
D18*
%TO.P,U1,1,VI*%
%TO.N,/12V*%
X139700000Y-75438000D03*
D19*
%TO.P,U1,2,GND*%
%TO.N,GND*%
X137160000Y-75438000D03*
%TO.P,U1,3,VO*%
%TO.N,/5V*%
X134620000Y-75438000D03*
%TD*%
D20*
%TO.P,J6,1*%
%TO.N,/PWR_Input*%
X145446000Y-88900000D03*
D21*
%TO.P,J6,2*%
%TO.N,GND*%
X139446000Y-88900000D03*
D22*
%TO.P,J6,3*%
X142446000Y-93600000D03*
%TD*%
D18*
%TO.P,U2,1,ADJ*%
%TO.N,Net-(U2-ADJ)*%
X134366000Y-100076000D03*
D19*
%TO.P,U2,2,VO*%
%TO.N,/3.3V*%
X136906000Y-100076000D03*
%TO.P,U2,3,VI*%
%TO.N,/12V*%
X139446000Y-100076000D03*
%TD*%
D23*
%TO.P,D1,1,K*%
%TO.N,GND*%
X151410000Y-89154000D03*
D24*
%TO.P,D1,2,A*%
%TO.N,Net-(D1-A)*%
X151410000Y-86614000D03*
%TD*%
D25*
%TO.N,/12V*%
X139700000Y-78720000D03*
D26*
%TO.N,Net-(U2-ADJ)*%
X152670000Y-100584000D03*
D25*
%TO.N,/3.3V*%
X143051000Y-103124000D03*
%TD*%
D27*
%TO.N,/12V*%
X143927000Y-102761148D02*
X141241852Y-100076000D01*
X143927000Y-103486852D02*
X143927000Y-102761148D01*
X143413852Y-104000000D02*
X143927000Y-103486852D01*
X135485500Y-104000000D02*
X143413852Y-104000000D01*
X132987500Y-101502000D02*
X135485500Y-104000000D01*
X132987500Y-85432500D02*
X132987500Y-101502000D01*
X139700000Y-78720000D02*
X132987500Y-85432500D01*
X141241852Y-100076000D02*
X139446000Y-100076000D01*
D28*
%TO.N,Net-(U2-ADJ)*%
X152670000Y-100584000D02*
X150786000Y-98700000D01*
X150786000Y-98700000D02*
X135742000Y-98700000D01*
X135742000Y-98700000D02*
X134366000Y-100076000D01*
D27*
%TO.N,/3.3V*%
X139954000Y-103124000D02*
X136906000Y-100076000D01*
X143051000Y-103124000D02*
X139954000Y-103124000D01*
%TD*%
%TA.AperFunction,Conductor*%
%TO.N,GND*%
G36*
X134537407Y-60210502D02*
G01*
X134583900Y-60264158D01*
X134594004Y-60334432D01*
X134564510Y-60399012D01*
X134544795Y-60417368D01*
X134422738Y-60508738D01*
X134335112Y-60625792D01*
X134335110Y-60625797D01*
X134284011Y-60762795D01*
X134284009Y-60762803D01*
X134277500Y-60823350D01*
X134277500Y-62620649D01*
X134284009Y-62681196D01*
X134284011Y-62681204D01*
X134335110Y-62818202D01*
X134335112Y-62818207D01*
X134422738Y-62935261D01*
X134539792Y-63022887D01*
X134539794Y-63022888D01*
X134539796Y-63022889D01*
X134598875Y-63044924D01*
X134676795Y-63073988D01*
X134676803Y-63073990D01*
X134737350Y-63080499D01*
X134737355Y-63080499D01*
X134737362Y-63080500D01*
X134737368Y-63080500D01*
X136534632Y-63080500D01*
X136534638Y-63080500D01*
X136534645Y-63080499D01*
X136534649Y-63080499D01*
X136595196Y-63073990D01*
X136595199Y-63073989D01*
X136595201Y-63073989D01*
X136732204Y-63022889D01*
X136736947Y-63019339D01*
X136849261Y-62935261D01*
X136936887Y-62818207D01*
X136936887Y-62818206D01*
X136936889Y-62818204D01*
X136980869Y-62700288D01*
X137023414Y-62643456D01*
X137089934Y-62618645D01*
X137159308Y-62633736D01*
X137188018Y-62655229D01*
X137290990Y-62758201D01*
X137290993Y-62758203D01*
X137290996Y-62758206D01*
X137463991Y-62883894D01*
X137654517Y-62980972D01*
X137857878Y-63047047D01*
X137857879Y-63047047D01*
X137857884Y-63047049D01*
X138069084Y-63080500D01*
X138069087Y-63080500D01*
X138282913Y-63080500D01*
X138282916Y-63080500D01*
X138494116Y-63047049D01*
X138697483Y-62980972D01*
X138888009Y-62883894D01*
X139061004Y-62758206D01*
X139212206Y-62607004D01*
X139337894Y-62434009D01*
X139337899Y-62433997D01*
X139338561Y-62432920D01*
X139338924Y-62432591D01*
X139340804Y-62430004D01*
X139341347Y-62430398D01*
X139391204Y-62385283D01*
X139461244Y-62373670D01*
X139526445Y-62401766D01*
X139551021Y-62430130D01*
X139551196Y-62430004D01*
X139552668Y-62432030D01*
X139553439Y-62432920D01*
X139554105Y-62434007D01*
X139554106Y-62434009D01*
X139679794Y-62607004D01*
X139679796Y-62607006D01*
X139679798Y-62607009D01*
X139830990Y-62758201D01*
X139830993Y-62758203D01*
X139830996Y-62758206D01*
X140003991Y-62883894D01*
X140194517Y-62980972D01*
X140397878Y-63047047D01*
X140397879Y-63047047D01*
X140397884Y-63047049D01*
X140609084Y-63080500D01*
X140609087Y-63080500D01*
X140822913Y-63080500D01*
X140822916Y-63080500D01*
X141034116Y-63047049D01*
X141237483Y-62980972D01*
X141428009Y-62883894D01*
X141601004Y-62758206D01*
X141752206Y-62607004D01*
X141859445Y-62459402D01*
X144804000Y-62459402D01*
X144804000Y-63754000D01*
X146094593Y-63754000D01*
X146081207Y-63786316D01*
X146052000Y-63933147D01*
X146052000Y-64082853D01*
X146081207Y-64229684D01*
X146094593Y-64262000D01*
X144804000Y-64262000D01*
X144804000Y-65556597D01*
X144810505Y-65617093D01*
X144861555Y-65753964D01*
X144861555Y-65753965D01*
X144949095Y-65870904D01*
X145066034Y-65958444D01*
X145202906Y-66009494D01*
X145263402Y-66015999D01*
X145263415Y-66016000D01*
X146558000Y-66016000D01*
X146558000Y-64725407D01*
X146590316Y-64738793D01*
X146737147Y-64768000D01*
X146886853Y-64768000D01*
X147033684Y-64738793D01*
X147066000Y-64725407D01*
X147066000Y-66016000D01*
X148360585Y-66016000D01*
X148360597Y-66015999D01*
X148421093Y-66009494D01*
X148557964Y-65958444D01*
X148557965Y-65958444D01*
X148674904Y-65870904D01*
X148762444Y-65753965D01*
X148762444Y-65753964D01*
X148813494Y-65617093D01*
X148819999Y-65556597D01*
X148820000Y-65556585D01*
X148820000Y-64262000D01*
X147529407Y-64262000D01*
X147542793Y-64229684D01*
X147572000Y-64082853D01*
X147572000Y-63933147D01*
X147560703Y-63876353D01*
X149883500Y-63876353D01*
X149883500Y-64139646D01*
X149917864Y-64400672D01*
X149917865Y-64400678D01*
X149917866Y-64400680D01*
X149986010Y-64654997D01*
X150086766Y-64898243D01*
X150086767Y-64898244D01*
X150086772Y-64898255D01*
X150218407Y-65126253D01*
X150378689Y-65335138D01*
X150378698Y-65335148D01*
X150564851Y-65521301D01*
X150564861Y-65521310D01*
X150564862Y-65521311D01*
X150755934Y-65667925D01*
X150773746Y-65681592D01*
X151001744Y-65813227D01*
X151001748Y-65813228D01*
X151001757Y-65813234D01*
X151245003Y-65913990D01*
X151499320Y-65982134D01*
X151499326Y-65982134D01*
X151499327Y-65982135D01*
X151529281Y-65986078D01*
X151760356Y-66016500D01*
X151760363Y-66016500D01*
X152023637Y-66016500D01*
X152023644Y-66016500D01*
X152284680Y-65982134D01*
X152538997Y-65913990D01*
X152782243Y-65813234D01*
X153010257Y-65681590D01*
X153219138Y-65521311D01*
X153405311Y-65335138D01*
X153565590Y-65126257D01*
X153697234Y-64898243D01*
X153797990Y-64654997D01*
X153866134Y-64400680D01*
X153900500Y-64139644D01*
X153900500Y-63876356D01*
X153866134Y-63615320D01*
X153797990Y-63361003D01*
X153697234Y-63117757D01*
X153697228Y-63117748D01*
X153697227Y-63117744D01*
X153619144Y-62982500D01*
X154738754Y-62982500D01*
X154741152Y-62988290D01*
X154742665Y-62992118D01*
X154751448Y-63015450D01*
X154752839Y-63019339D01*
X154763507Y-63050766D01*
X154764768Y-63054690D01*
X154772010Y-63078563D01*
X154773143Y-63082529D01*
X154849874Y-63368893D01*
X154850874Y-63372887D01*
X154856532Y-63397148D01*
X154857402Y-63401175D01*
X154863879Y-63433725D01*
X154864618Y-63437786D01*
X154868686Y-63462420D01*
X154869292Y-63466503D01*
X154907989Y-63760446D01*
X154908460Y-63764538D01*
X154910903Y-63789335D01*
X154911240Y-63793439D01*
X154913413Y-63826556D01*
X154913615Y-63830681D01*
X154914432Y-63855626D01*
X154914500Y-63859751D01*
X154914500Y-64156249D01*
X154914432Y-64160374D01*
X154913615Y-64185319D01*
X154913413Y-64189444D01*
X154911240Y-64222561D01*
X154910903Y-64226665D01*
X154908460Y-64251462D01*
X154907989Y-64255554D01*
X154874689Y-64508500D01*
X156202500Y-64508500D01*
X156202500Y-62982500D01*
X154738754Y-62982500D01*
X153619144Y-62982500D01*
X153565592Y-62889746D01*
X153561099Y-62883891D01*
X153405311Y-62680862D01*
X153405310Y-62680861D01*
X153405301Y-62680851D01*
X153219148Y-62494698D01*
X153219138Y-62494689D01*
X153135352Y-62430398D01*
X153010257Y-62334410D01*
X153010256Y-62334409D01*
X153010253Y-62334407D01*
X152782255Y-62202772D01*
X152782247Y-62202768D01*
X152782243Y-62202766D01*
X152538997Y-62102010D01*
X152284680Y-62033866D01*
X152284678Y-62033865D01*
X152284672Y-62033864D01*
X152023646Y-61999500D01*
X152023644Y-61999500D01*
X151760356Y-61999500D01*
X151760353Y-61999500D01*
X151499327Y-62033864D01*
X151245003Y-62102010D01*
X151001755Y-62202767D01*
X151001744Y-62202772D01*
X150773746Y-62334407D01*
X150564861Y-62494689D01*
X150564851Y-62494698D01*
X150378698Y-62680851D01*
X150378689Y-62680861D01*
X150218407Y-62889746D01*
X150086772Y-63117744D01*
X150086767Y-63117755D01*
X150086766Y-63117757D01*
X150031829Y-63250386D01*
X149986010Y-63361003D01*
X149917864Y-63615327D01*
X149883500Y-63876353D01*
X147560703Y-63876353D01*
X147542793Y-63786316D01*
X147529407Y-63754000D01*
X148820000Y-63754000D01*
X148820000Y-62459414D01*
X148819999Y-62459402D01*
X148813494Y-62398906D01*
X148762444Y-62262035D01*
X148762444Y-62262034D01*
X148674904Y-62145095D01*
X148557965Y-62057555D01*
X148421093Y-62006505D01*
X148360597Y-62000000D01*
X147066000Y-62000000D01*
X147066000Y-63290592D01*
X147033684Y-63277207D01*
X146886853Y-63248000D01*
X146737147Y-63248000D01*
X146590316Y-63277207D01*
X146558000Y-63290592D01*
X146558000Y-62000000D01*
X145263402Y-62000000D01*
X145202906Y-62006505D01*
X145066035Y-62057555D01*
X145066034Y-62057555D01*
X144949095Y-62145095D01*
X144861555Y-62262034D01*
X144861555Y-62262035D01*
X144810505Y-62398906D01*
X144804000Y-62459402D01*
X141859445Y-62459402D01*
X141877894Y-62434009D01*
X141974972Y-62243483D01*
X142041049Y-62040116D01*
X142052392Y-61968500D01*
X154676500Y-61968500D01*
X156202500Y-61968500D01*
X156202500Y-61204500D01*
X154676500Y-61204500D01*
X154676500Y-61968500D01*
X142052392Y-61968500D01*
X142074500Y-61828916D01*
X142074500Y-61615084D01*
X142041049Y-61403884D01*
X141974972Y-61200517D01*
X141877894Y-61009991D01*
X141752206Y-60836996D01*
X141752203Y-60836993D01*
X141752201Y-60836990D01*
X141601009Y-60685798D01*
X141601006Y-60685796D01*
X141601004Y-60685794D01*
X141428009Y-60560106D01*
X141237483Y-60463028D01*
X141237480Y-60463027D01*
X141237478Y-60463026D01*
X141155323Y-60436333D01*
X141096717Y-60396260D01*
X141069080Y-60330863D01*
X141081187Y-60260906D01*
X141129193Y-60208600D01*
X141194259Y-60190500D01*
X160208108Y-60190500D01*
X160264081Y-60190500D01*
X160283791Y-60192051D01*
X160312534Y-60196603D01*
X160335099Y-60200177D01*
X160372588Y-60212358D01*
X160409925Y-60231382D01*
X160441818Y-60254554D01*
X160471445Y-60284181D01*
X160494617Y-60316074D01*
X160513640Y-60353409D01*
X160525821Y-60390898D01*
X160533948Y-60442205D01*
X160535500Y-60461918D01*
X160535500Y-63839741D01*
X160515498Y-63907862D01*
X160461842Y-63954355D01*
X160391568Y-63964459D01*
X160326988Y-63934965D01*
X160289667Y-63878677D01*
X160262973Y-63796521D01*
X160262972Y-63796517D01*
X160165894Y-63605991D01*
X160040206Y-63432996D01*
X160040203Y-63432993D01*
X160040201Y-63432990D01*
X159889009Y-63281798D01*
X159889006Y-63281796D01*
X159889004Y-63281794D01*
X159716009Y-63156106D01*
X159525483Y-63059028D01*
X159525480Y-63059027D01*
X159525478Y-63059026D01*
X159322120Y-62992952D01*
X159322123Y-62992952D01*
X159246490Y-62980973D01*
X159110916Y-62959500D01*
X158897084Y-62959500D01*
X158685884Y-62992951D01*
X158685878Y-62992952D01*
X158482521Y-63059026D01*
X158482515Y-63059029D01*
X158291987Y-63156108D01*
X158118993Y-63281796D01*
X158118990Y-63281798D01*
X157967798Y-63432990D01*
X157967796Y-63432993D01*
X157842108Y-63605987D01*
X157745029Y-63796515D01*
X157745026Y-63796521D01*
X157678952Y-63999878D01*
X157678951Y-63999883D01*
X157678951Y-63999884D01*
X157645500Y-64211084D01*
X157645500Y-64424916D01*
X157678951Y-64636116D01*
X157678952Y-64636121D01*
X157745026Y-64839478D01*
X157745028Y-64839483D01*
X157842106Y-65030009D01*
X157967794Y-65203004D01*
X157967796Y-65203006D01*
X157967798Y-65203009D01*
X158118990Y-65354201D01*
X158118993Y-65354203D01*
X158118996Y-65354206D01*
X158291991Y-65479894D01*
X158439854Y-65555234D01*
X158491468Y-65603981D01*
X158508534Y-65672896D01*
X158485633Y-65740098D01*
X158430036Y-65784250D01*
X158382650Y-65793500D01*
X155767892Y-65793500D01*
X155702000Y-65793500D01*
X155602639Y-65793500D01*
X155406364Y-65824587D01*
X155406358Y-65824588D01*
X155217372Y-65885993D01*
X155217366Y-65885996D01*
X155040302Y-65976215D01*
X154879533Y-66093021D01*
X154879530Y-66093023D01*
X154739023Y-66233530D01*
X154739021Y-66233533D01*
X154622215Y-66394302D01*
X154531996Y-66571366D01*
X154531993Y-66571372D01*
X154470588Y-66760358D01*
X154470587Y-66760363D01*
X154470587Y-66760364D01*
X154443572Y-66930934D01*
X154439500Y-66956642D01*
X154439500Y-94080696D01*
X154419498Y-94148817D01*
X154365842Y-94195310D01*
X154295568Y-94205414D01*
X154256298Y-94192963D01*
X154133712Y-94130503D01*
X153952877Y-94071746D01*
X153765069Y-94042000D01*
X153574931Y-94042000D01*
X153387122Y-94071746D01*
X153206287Y-94130503D01*
X153036871Y-94216824D01*
X153013219Y-94234008D01*
X153013219Y-94234009D01*
X153679211Y-94900000D01*
X153623922Y-94900000D01*
X153534905Y-94923852D01*
X153455095Y-94969930D01*
X153389930Y-95035095D01*
X153343852Y-95114905D01*
X153320000Y-95203922D01*
X153320000Y-95296078D01*
X153343852Y-95385095D01*
X153389930Y-95464905D01*
X153455095Y-95530070D01*
X153534905Y-95576148D01*
X153623922Y-95600000D01*
X153679208Y-95600000D01*
X153013218Y-96265989D01*
X153013219Y-96265990D01*
X153036866Y-96283171D01*
X153036868Y-96283172D01*
X153206290Y-96369497D01*
X153387122Y-96428253D01*
X153574931Y-96458000D01*
X153765069Y-96458000D01*
X153952877Y-96428253D01*
X154133709Y-96369497D01*
X154256297Y-96307036D01*
X154326074Y-96293932D01*
X154391859Y-96320632D01*
X154432765Y-96378660D01*
X154439500Y-96419303D01*
X154439500Y-99414135D01*
X154419498Y-99482256D01*
X154365842Y-99528749D01*
X154295568Y-99538853D01*
X154256297Y-99526402D01*
X154177559Y-99486283D01*
X154133903Y-99464039D01*
X153952991Y-99405257D01*
X153765111Y-99375500D01*
X153574889Y-99375500D01*
X153387009Y-99405257D01*
X153387006Y-99405257D01*
X153387005Y-99405258D01*
X153206097Y-99464039D01*
X153206095Y-99464040D01*
X153036604Y-99550400D01*
X152886452Y-99659492D01*
X152819584Y-99683351D01*
X152787810Y-99681135D01*
X152759483Y-99675500D01*
X152759479Y-99675500D01*
X152709594Y-99675500D01*
X152641473Y-99655498D01*
X152620499Y-99638595D01*
X151189835Y-98207931D01*
X151189833Y-98207929D01*
X151086075Y-98138600D01*
X150970785Y-98090845D01*
X150897086Y-98076185D01*
X150848396Y-98066500D01*
X150848394Y-98066500D01*
X135804394Y-98066500D01*
X135679606Y-98066500D01*
X135679603Y-98066500D01*
X135606568Y-98081028D01*
X135557215Y-98090845D01*
X135557213Y-98090845D01*
X135557212Y-98090846D01*
X135441923Y-98138601D01*
X135338171Y-98207926D01*
X135338164Y-98207931D01*
X135015501Y-98530595D01*
X134953189Y-98564621D01*
X134926406Y-98567500D01*
X133797000Y-98567500D01*
X133728879Y-98547498D01*
X133682386Y-98493842D01*
X133671000Y-98441500D01*
X133671000Y-97432216D01*
X134685000Y-97432216D01*
X134714104Y-97408328D01*
X134718984Y-97404519D01*
X134749051Y-97382219D01*
X134754109Y-97378657D01*
X134899275Y-97281660D01*
X134904499Y-97278352D01*
X134936583Y-97259121D01*
X134941963Y-97256073D01*
X134985874Y-97232601D01*
X134991400Y-97229819D01*
X135025223Y-97213822D01*
X135030876Y-97211316D01*
X135192184Y-97144499D01*
X135197958Y-97142272D01*
X135233215Y-97129658D01*
X135239095Y-97127716D01*
X135286746Y-97113266D01*
X135292700Y-97111619D01*
X135328959Y-97102538D01*
X135334987Y-97101184D01*
X135506204Y-97067125D01*
X135512301Y-97066067D01*
X135549323Y-97060576D01*
X135555463Y-97059819D01*
X135605016Y-97054940D01*
X135611183Y-97054486D01*
X135648537Y-97052652D01*
X135654716Y-97052500D01*
X135882500Y-97052500D01*
X136896500Y-97052500D01*
X138422500Y-97052500D01*
X139436500Y-97052500D01*
X140962500Y-97052500D01*
X147350214Y-97052500D01*
X148582500Y-97052500D01*
X149596500Y-97052500D01*
X150873284Y-97052500D01*
X150879463Y-97052652D01*
X150916817Y-97054486D01*
X150922984Y-97054940D01*
X150972537Y-97059819D01*
X150978677Y-97060576D01*
X151015699Y-97066067D01*
X151021796Y-97067125D01*
X151122500Y-97087157D01*
X151122500Y-96002500D01*
X149596500Y-96002500D01*
X149596500Y-97052500D01*
X148582500Y-97052500D01*
X148582500Y-96002500D01*
X148142372Y-96002500D01*
X148128179Y-96046183D01*
X148126558Y-96050857D01*
X148116203Y-96078926D01*
X148114401Y-96083532D01*
X148099160Y-96120329D01*
X148097176Y-96124864D01*
X148084643Y-96152050D01*
X148082484Y-96156501D01*
X147978044Y-96361478D01*
X147975711Y-96365842D01*
X147961092Y-96391946D01*
X147958592Y-96396213D01*
X147937782Y-96430173D01*
X147935114Y-96434341D01*
X147918482Y-96459233D01*
X147915652Y-96463293D01*
X147780432Y-96649407D01*
X147777447Y-96653351D01*
X147758927Y-96676844D01*
X147755790Y-96680667D01*
X147729924Y-96710954D01*
X147726636Y-96714653D01*
X147706314Y-96736638D01*
X147702883Y-96740206D01*
X147540206Y-96902883D01*
X147536638Y-96906314D01*
X147514653Y-96926636D01*
X147510954Y-96929924D01*
X147480667Y-96955790D01*
X147476844Y-96958927D01*
X147453351Y-96977447D01*
X147449407Y-96980432D01*
X147350214Y-97052500D01*
X140962500Y-97052500D01*
X140962500Y-96798108D01*
X140942474Y-96793346D01*
X140937306Y-96792000D01*
X140895875Y-96780271D01*
X140890753Y-96778703D01*
X140860001Y-96768567D01*
X140854956Y-96766785D01*
X140594407Y-96668458D01*
X140589447Y-96666465D01*
X140559703Y-96653774D01*
X140554831Y-96651572D01*
X140515979Y-96633009D01*
X140511202Y-96630600D01*
X140482612Y-96615417D01*
X140477938Y-96612806D01*
X140237745Y-96471854D01*
X140233192Y-96469051D01*
X140205994Y-96451498D01*
X140201556Y-96448498D01*
X140166402Y-96423632D01*
X140162105Y-96420454D01*
X140136519Y-96400676D01*
X140132359Y-96397317D01*
X139919459Y-96217815D01*
X139915446Y-96214283D01*
X139891617Y-96192397D01*
X139887754Y-96188694D01*
X139857306Y-96158246D01*
X139853603Y-96154383D01*
X139831717Y-96130554D01*
X139828185Y-96126541D01*
X139723602Y-96002500D01*
X139436500Y-96002500D01*
X139436500Y-97052500D01*
X138422500Y-97052500D01*
X138422500Y-96002500D01*
X136896500Y-96002500D01*
X136896500Y-97052500D01*
X135882500Y-97052500D01*
X135882500Y-96002500D01*
X134685000Y-96002500D01*
X134685000Y-97432216D01*
X133671000Y-97432216D01*
X133671000Y-94988500D01*
X134685000Y-94988500D01*
X135882500Y-94988500D01*
X136896500Y-94988500D01*
X138422500Y-94988500D01*
X138422500Y-93462500D01*
X136896500Y-93462500D01*
X136896500Y-94988500D01*
X135882500Y-94988500D01*
X135882500Y-93462500D01*
X134685000Y-93462500D01*
X134685000Y-94988500D01*
X133671000Y-94988500D01*
X133671000Y-92630876D01*
X140188000Y-92630876D01*
X140188000Y-93346000D01*
X141015297Y-93346000D01*
X140980075Y-93407007D01*
X140946000Y-93534174D01*
X140946000Y-93665826D01*
X140980075Y-93792993D01*
X141015297Y-93854000D01*
X140188001Y-93854000D01*
X140188001Y-94569123D01*
X140190810Y-94622035D01*
X140190810Y-94622036D01*
X140235514Y-94853181D01*
X140318635Y-95073436D01*
X140437785Y-95276478D01*
X140589535Y-95456464D01*
X140769521Y-95608214D01*
X140972564Y-95727364D01*
X140972563Y-95727364D01*
X141192818Y-95810485D01*
X141423963Y-95855189D01*
X141476876Y-95857999D01*
X142192000Y-95857999D01*
X142192000Y-94100000D01*
X142700000Y-94100000D01*
X142700000Y-95857999D01*
X143415123Y-95857999D01*
X143468035Y-95855189D01*
X143468036Y-95855189D01*
X143699181Y-95810485D01*
X143919436Y-95727364D01*
X144122478Y-95608214D01*
X144302464Y-95456464D01*
X144454214Y-95276478D01*
X144573364Y-95073435D01*
X144573365Y-95073433D01*
X144622535Y-94943142D01*
X144652598Y-94903302D01*
X144827058Y-94903302D01*
X144851239Y-94927670D01*
X144866063Y-94997102D01*
X144864869Y-95007339D01*
X144854401Y-95073433D01*
X144841500Y-95154889D01*
X144841500Y-95345111D01*
X144871257Y-95532991D01*
X144930039Y-95713903D01*
X144930040Y-95713904D01*
X145016400Y-95883395D01*
X145128209Y-96037287D01*
X145262712Y-96171790D01*
X145291075Y-96192397D01*
X145416608Y-96283602D01*
X145586097Y-96369961D01*
X145767009Y-96428743D01*
X145954889Y-96458500D01*
X145954892Y-96458500D01*
X146145108Y-96458500D01*
X146145111Y-96458500D01*
X146332991Y-96428743D01*
X146513903Y-96369961D01*
X146683392Y-96283602D01*
X146837285Y-96171792D01*
X146971792Y-96037285D01*
X147083602Y-95883392D01*
X147169961Y-95713903D01*
X147228743Y-95532991D01*
X147258500Y-95345111D01*
X147258500Y-95154931D01*
X152462000Y-95154931D01*
X152462000Y-95345068D01*
X152491746Y-95532877D01*
X152550502Y-95713709D01*
X152636828Y-95883134D01*
X152654008Y-95906779D01*
X152654009Y-95906779D01*
X153310790Y-95249999D01*
X152654010Y-94593219D01*
X152654008Y-94593219D01*
X152636824Y-94616871D01*
X152550503Y-94786287D01*
X152491746Y-94967122D01*
X152462000Y-95154931D01*
X147258500Y-95154931D01*
X147258500Y-95154889D01*
X147228743Y-94967009D01*
X147169961Y-94786097D01*
X147083602Y-94616608D01*
X146971792Y-94462715D01*
X146971790Y-94462712D01*
X146837287Y-94328209D01*
X146683395Y-94216400D01*
X146683394Y-94216399D01*
X146683392Y-94216398D01*
X146513903Y-94130039D01*
X146332991Y-94071257D01*
X146145111Y-94041500D01*
X145954889Y-94041500D01*
X145767009Y-94071257D01*
X145767006Y-94071257D01*
X145767005Y-94071258D01*
X145586097Y-94130039D01*
X145586095Y-94130040D01*
X145416604Y-94216400D01*
X145262712Y-94328209D01*
X145128209Y-94462712D01*
X145016400Y-94616604D01*
X144985448Y-94677350D01*
X144930039Y-94786097D01*
X144929185Y-94788725D01*
X144917981Y-94823208D01*
X144877906Y-94881814D01*
X144827058Y-94903302D01*
X144652598Y-94903302D01*
X144665300Y-94886470D01*
X144711965Y-94869269D01*
X144690247Y-94849336D01*
X144672199Y-94780672D01*
X144674440Y-94760345D01*
X144701189Y-94622036D01*
X144704000Y-94569123D01*
X144704000Y-93854000D01*
X143876703Y-93854000D01*
X143911925Y-93792993D01*
X143946000Y-93665826D01*
X143946000Y-93534174D01*
X143926795Y-93462500D01*
X147370860Y-93462500D01*
X147449407Y-93519568D01*
X147453351Y-93522553D01*
X147476844Y-93541073D01*
X147480667Y-93544210D01*
X147510954Y-93570076D01*
X147514653Y-93573364D01*
X147536638Y-93593686D01*
X147540206Y-93597117D01*
X147702883Y-93759794D01*
X147706314Y-93763362D01*
X147726636Y-93785347D01*
X147729924Y-93789046D01*
X147755790Y-93819333D01*
X147758927Y-93823156D01*
X147777447Y-93846649D01*
X147780432Y-93850593D01*
X147915652Y-94036707D01*
X147918482Y-94040767D01*
X147935114Y-94065659D01*
X147937782Y-94069827D01*
X147958592Y-94103787D01*
X147961092Y-94108054D01*
X147975711Y-94134158D01*
X147978044Y-94138522D01*
X148082484Y-94343499D01*
X148084643Y-94347950D01*
X148097176Y-94375136D01*
X148099160Y-94379671D01*
X148114401Y-94416468D01*
X148116203Y-94421074D01*
X148126558Y-94449143D01*
X148128179Y-94453817D01*
X148199270Y-94672612D01*
X148200707Y-94677350D01*
X148208835Y-94706173D01*
X148210084Y-94710960D01*
X148219381Y-94749689D01*
X148220442Y-94754524D01*
X148226276Y-94783860D01*
X148227145Y-94788725D01*
X148258786Y-94988500D01*
X148582500Y-94988500D01*
X149596500Y-94988500D01*
X151122500Y-94988500D01*
X151122500Y-93462500D01*
X149596500Y-93462500D01*
X149596500Y-94988500D01*
X148582500Y-94988500D01*
X148582500Y-93462500D01*
X147370860Y-93462500D01*
X143926795Y-93462500D01*
X143911925Y-93407007D01*
X143876703Y-93346000D01*
X144703999Y-93346000D01*
X144703999Y-92630876D01*
X144701189Y-92577964D01*
X144701189Y-92577963D01*
X144656485Y-92346818D01*
X144590700Y-92172500D01*
X147056500Y-92172500D01*
X147056500Y-92448500D01*
X148582500Y-92448500D01*
X149596500Y-92448500D01*
X151122500Y-92448500D01*
X151122500Y-91576000D01*
X152136500Y-91576000D01*
X152136500Y-92448500D01*
X153425500Y-92448500D01*
X153425500Y-91097274D01*
X153421655Y-91101712D01*
X153415526Y-91108294D01*
X153364294Y-91159526D01*
X153357712Y-91165655D01*
X153316578Y-91201298D01*
X153309574Y-91206942D01*
X153134624Y-91337908D01*
X153127234Y-91343039D01*
X153081431Y-91372474D01*
X153073693Y-91377065D01*
X153010100Y-91411786D01*
X153002059Y-91415810D01*
X152952561Y-91438414D01*
X152944253Y-91441856D01*
X152743753Y-91516638D01*
X152736298Y-91519156D01*
X152690724Y-91532981D01*
X152683123Y-91535030D01*
X152621439Y-91549606D01*
X152613726Y-91551176D01*
X152566796Y-91559211D01*
X152559004Y-91560296D01*
X152453486Y-91571642D01*
X152450122Y-91571958D01*
X152429768Y-91573596D01*
X152426398Y-91573822D01*
X152399282Y-91575274D01*
X152395919Y-91575409D01*
X152375535Y-91575955D01*
X152372161Y-91576000D01*
X152136500Y-91576000D01*
X151122500Y-91576000D01*
X150447839Y-91576000D01*
X150444465Y-91575955D01*
X150424081Y-91575409D01*
X150420718Y-91575274D01*
X150393602Y-91573822D01*
X150390232Y-91573596D01*
X150369878Y-91571958D01*
X150366514Y-91571642D01*
X150260996Y-91560296D01*
X150253204Y-91559211D01*
X150206274Y-91551176D01*
X150198561Y-91549606D01*
X150136877Y-91535030D01*
X150129276Y-91532981D01*
X150083702Y-91519156D01*
X150076247Y-91516638D01*
X149875747Y-91441856D01*
X149867439Y-91438414D01*
X149817941Y-91415810D01*
X149809900Y-91411786D01*
X149746307Y-91377065D01*
X149738569Y-91372474D01*
X149692766Y-91343039D01*
X149685376Y-91337908D01*
X149596500Y-91271376D01*
X149596500Y-92448500D01*
X148582500Y-92448500D01*
X148582500Y-91288834D01*
X148580856Y-91292804D01*
X148558254Y-91342300D01*
X148554228Y-91350344D01*
X148519507Y-91413935D01*
X148514917Y-91421671D01*
X148485482Y-91467475D01*
X148480351Y-91474866D01*
X148349299Y-91649930D01*
X148343656Y-91656933D01*
X148308013Y-91698068D01*
X148301883Y-91704651D01*
X148250651Y-91755883D01*
X148244068Y-91762013D01*
X148202933Y-91797656D01*
X148195930Y-91803299D01*
X148020866Y-91934351D01*
X148013475Y-91939482D01*
X147967671Y-91968917D01*
X147959935Y-91973507D01*
X147896344Y-92008228D01*
X147888300Y-92012254D01*
X147838804Y-92034856D01*
X147830499Y-92038296D01*
X147629874Y-92113127D01*
X147622421Y-92115645D01*
X147576862Y-92129467D01*
X147569261Y-92131516D01*
X147507572Y-92146095D01*
X147499861Y-92147665D01*
X147452906Y-92155706D01*
X147445106Y-92156792D01*
X147339519Y-92168143D01*
X147336156Y-92168459D01*
X147315809Y-92170096D01*
X147312442Y-92170322D01*
X147285330Y-92171774D01*
X147281966Y-92171909D01*
X147261582Y-92172455D01*
X147258208Y-92172500D01*
X147056500Y-92172500D01*
X144590700Y-92172500D01*
X144573364Y-92126563D01*
X144454214Y-91923521D01*
X144302464Y-91743535D01*
X144122478Y-91591785D01*
X143919435Y-91472635D01*
X143919436Y-91472635D01*
X143733286Y-91402385D01*
X143676615Y-91359619D01*
X143652061Y-91293003D01*
X143667420Y-91223688D01*
X143717816Y-91173680D01*
X143777774Y-91158500D01*
X147244632Y-91158500D01*
X147244638Y-91158500D01*
X147244645Y-91158499D01*
X147244649Y-91158499D01*
X147305196Y-91151990D01*
X147305199Y-91151989D01*
X147305201Y-91151989D01*
X147442204Y-91100889D01*
X147453805Y-91092205D01*
X147559261Y-91013261D01*
X147646887Y-90896207D01*
X147646887Y-90896206D01*
X147646889Y-90896204D01*
X147697989Y-90759201D01*
X147703334Y-90709490D01*
X147704499Y-90698649D01*
X147704500Y-90698632D01*
X147704500Y-87101367D01*
X147704499Y-87101350D01*
X147697990Y-87040803D01*
X147697988Y-87040795D01*
X147656815Y-86930408D01*
X147646889Y-86903796D01*
X147646888Y-86903794D01*
X147646887Y-86903792D01*
X147559261Y-86786738D01*
X147442207Y-86699112D01*
X147442202Y-86699110D01*
X147305204Y-86648011D01*
X147305196Y-86648009D01*
X147244649Y-86641500D01*
X147244638Y-86641500D01*
X143647362Y-86641500D01*
X143647350Y-86641500D01*
X143586803Y-86648009D01*
X143586795Y-86648011D01*
X143449797Y-86699110D01*
X143449792Y-86699112D01*
X143332738Y-86786738D01*
X143245112Y-86903792D01*
X143245110Y-86903797D01*
X143194011Y-87040795D01*
X143194009Y-87040803D01*
X143187500Y-87101350D01*
X143187500Y-90698649D01*
X143194009Y-90759196D01*
X143194011Y-90759204D01*
X143245110Y-90896202D01*
X143245112Y-90896207D01*
X143332738Y-91013261D01*
X143449792Y-91100887D01*
X143457701Y-91105205D01*
X143455929Y-91108450D01*
X143498721Y-91140469D01*
X143523547Y-91206983D01*
X143508471Y-91276361D01*
X143458280Y-91326574D01*
X143397870Y-91342000D01*
X142700000Y-91342000D01*
X142700000Y-93100000D01*
X142192000Y-93100000D01*
X142192000Y-91342000D01*
X141476876Y-91342000D01*
X141423964Y-91344810D01*
X141423963Y-91344810D01*
X141192818Y-91389514D01*
X140972563Y-91472635D01*
X140769521Y-91591785D01*
X140589535Y-91743535D01*
X140437785Y-91923521D01*
X140318635Y-92126563D01*
X140235514Y-92346818D01*
X140190810Y-92577963D01*
X140188000Y-92630876D01*
X133671000Y-92630876D01*
X133671000Y-92448500D01*
X134685000Y-92448500D01*
X135882500Y-92448500D01*
X136896500Y-92448500D01*
X138422500Y-92448500D01*
X138422500Y-92158695D01*
X138397584Y-92156734D01*
X138392311Y-92156207D01*
X138360494Y-92152351D01*
X138355250Y-92151603D01*
X138313140Y-92144693D01*
X138307926Y-92143724D01*
X138276517Y-92137202D01*
X138271347Y-92136015D01*
X138008994Y-92069908D01*
X138003543Y-92068403D01*
X137970778Y-92058564D01*
X137965398Y-92056816D01*
X137922431Y-92041780D01*
X137917140Y-92039795D01*
X137885402Y-92027064D01*
X137880203Y-92024841D01*
X137632588Y-91912369D01*
X137627494Y-91909916D01*
X137597020Y-91894389D01*
X137592042Y-91891710D01*
X137552449Y-91869245D01*
X137547593Y-91866344D01*
X137518628Y-91848144D01*
X137513909Y-91845029D01*
X137290356Y-91690151D01*
X137285782Y-91686828D01*
X137258574Y-91666112D01*
X137254155Y-91662588D01*
X137219210Y-91633415D01*
X137214950Y-91629694D01*
X137189698Y-91606613D01*
X137185611Y-91602704D01*
X136993296Y-91410389D01*
X136989387Y-91406302D01*
X136966306Y-91381050D01*
X136962585Y-91376790D01*
X136933412Y-91341845D01*
X136929888Y-91337426D01*
X136909172Y-91310218D01*
X136905849Y-91305644D01*
X136896500Y-91292149D01*
X136896500Y-92448500D01*
X135882500Y-92448500D01*
X135882500Y-90922500D01*
X134685000Y-90922500D01*
X134685000Y-92448500D01*
X133671000Y-92448500D01*
X133671000Y-89908500D01*
X134685000Y-89908500D01*
X135882500Y-89908500D01*
X135882500Y-88382500D01*
X134685000Y-88382500D01*
X134685000Y-89908500D01*
X133671000Y-89908500D01*
X133671000Y-87835393D01*
X137438000Y-87835393D01*
X137438000Y-88646000D01*
X138946000Y-88646000D01*
X138946000Y-89154000D01*
X137438000Y-89154000D01*
X137438000Y-89964606D01*
X137448467Y-90097594D01*
X137503794Y-90317167D01*
X137503797Y-90317176D01*
X137597441Y-90523340D01*
X137597444Y-90523346D01*
X137726394Y-90709473D01*
X137726408Y-90709490D01*
X137886509Y-90869591D01*
X137886526Y-90869605D01*
X138072653Y-90998555D01*
X138072659Y-90998558D01*
X138278823Y-91092202D01*
X138278832Y-91092205D01*
X138498405Y-91147532D01*
X138631393Y-91158000D01*
X139192000Y-91158000D01*
X139192000Y-90330702D01*
X139253007Y-90365925D01*
X139380174Y-90400000D01*
X139511826Y-90400000D01*
X139638993Y-90365925D01*
X139700000Y-90330702D01*
X139700000Y-91158000D01*
X140260607Y-91158000D01*
X140393594Y-91147532D01*
X140613167Y-91092205D01*
X140613176Y-91092202D01*
X140819340Y-90998558D01*
X140819346Y-90998555D01*
X141005473Y-90869605D01*
X141005490Y-90869591D01*
X141165591Y-90709490D01*
X141165605Y-90709473D01*
X141294555Y-90523346D01*
X141294558Y-90523340D01*
X141388202Y-90317176D01*
X141388205Y-90317167D01*
X141443532Y-90097594D01*
X141454000Y-89964606D01*
X141454000Y-89154000D01*
X139946000Y-89154000D01*
X139946000Y-88646000D01*
X141454000Y-88646000D01*
X141454000Y-87835393D01*
X141443532Y-87702405D01*
X141388205Y-87482832D01*
X141388202Y-87482823D01*
X141294558Y-87276659D01*
X141294555Y-87276653D01*
X141165605Y-87090526D01*
X141165591Y-87090509D01*
X141005490Y-86930408D01*
X141005473Y-86930394D01*
X140819346Y-86801444D01*
X140819340Y-86801441D01*
X140613176Y-86707797D01*
X140613167Y-86707794D01*
X140393594Y-86652467D01*
X140260607Y-86642000D01*
X139700000Y-86642000D01*
X139700000Y-87469297D01*
X139638993Y-87434075D01*
X139511826Y-87400000D01*
X139380174Y-87400000D01*
X139253007Y-87434075D01*
X139192000Y-87469297D01*
X139192000Y-86642000D01*
X138631393Y-86642000D01*
X138498405Y-86652467D01*
X138278832Y-86707794D01*
X138278823Y-86707797D01*
X138072659Y-86801441D01*
X138072653Y-86801444D01*
X137886526Y-86930394D01*
X137886509Y-86930408D01*
X137726408Y-87090509D01*
X137726394Y-87090526D01*
X137597444Y-87276653D01*
X137597441Y-87276659D01*
X137503797Y-87482823D01*
X137503794Y-87482832D01*
X137448467Y-87702405D01*
X137438000Y-87835393D01*
X133671000Y-87835393D01*
X133671000Y-86135625D01*
X134685000Y-86135625D01*
X134685000Y-87368500D01*
X135882500Y-87368500D01*
X135882500Y-86481470D01*
X141976500Y-86481470D01*
X141982828Y-86489782D01*
X141986151Y-86494356D01*
X142141029Y-86717909D01*
X142144144Y-86722628D01*
X142162344Y-86751593D01*
X142165245Y-86756449D01*
X142187710Y-86796042D01*
X142190389Y-86801020D01*
X142202929Y-86825631D01*
X142214484Y-86776739D01*
X142216533Y-86769138D01*
X142230355Y-86723579D01*
X142232873Y-86716126D01*
X142307704Y-86515501D01*
X142311144Y-86507196D01*
X142312992Y-86503149D01*
X150001500Y-86503149D01*
X150001500Y-86724851D01*
X150034055Y-86930394D01*
X150036183Y-86943829D01*
X150104690Y-87154671D01*
X150104692Y-87154676D01*
X150205343Y-87352215D01*
X150205345Y-87352218D01*
X150335658Y-87531578D01*
X150375658Y-87571578D01*
X150409684Y-87633890D01*
X150404619Y-87704705D01*
X150362072Y-87761541D01*
X150330597Y-87778728D01*
X150264037Y-87803554D01*
X150264034Y-87803555D01*
X150147095Y-87891095D01*
X150059555Y-88008034D01*
X150059555Y-88008035D01*
X150008505Y-88144906D01*
X150002000Y-88205402D01*
X150002000Y-88900000D01*
X151037032Y-88900000D01*
X150990667Y-88980306D01*
X150960000Y-89094756D01*
X150960000Y-89213244D01*
X150990667Y-89327694D01*
X151037032Y-89408000D01*
X150002000Y-89408000D01*
X150002000Y-90102597D01*
X150008505Y-90163093D01*
X150059555Y-90299964D01*
X150059555Y-90299965D01*
X150147095Y-90416904D01*
X150264034Y-90504444D01*
X150400906Y-90555494D01*
X150461402Y-90561999D01*
X150461415Y-90562000D01*
X151156000Y-90562000D01*
X151156000Y-89526968D01*
X151236306Y-89573333D01*
X151350756Y-89604000D01*
X151469244Y-89604000D01*
X151583694Y-89573333D01*
X151664000Y-89526968D01*
X151664000Y-90562000D01*
X152358585Y-90562000D01*
X152358597Y-90561999D01*
X152419093Y-90555494D01*
X152555964Y-90504444D01*
X152555965Y-90504444D01*
X152672904Y-90416904D01*
X152760444Y-90299965D01*
X152760444Y-90299964D01*
X152811494Y-90163093D01*
X152817999Y-90102597D01*
X152818000Y-90102585D01*
X152818000Y-89408000D01*
X151782968Y-89408000D01*
X151829333Y-89327694D01*
X151860000Y-89213244D01*
X151860000Y-89094756D01*
X151829333Y-88980306D01*
X151782968Y-88900000D01*
X152818000Y-88900000D01*
X152818000Y-88205414D01*
X152817999Y-88205402D01*
X152811494Y-88144906D01*
X152760444Y-88008035D01*
X152760444Y-88008034D01*
X152672904Y-87891095D01*
X152555965Y-87803555D01*
X152555960Y-87803553D01*
X152489403Y-87778728D01*
X152432567Y-87736181D01*
X152407757Y-87669661D01*
X152422849Y-87600287D01*
X152444342Y-87571577D01*
X152484341Y-87531578D01*
X152484343Y-87531576D01*
X152614657Y-87352215D01*
X152715308Y-87154676D01*
X152783818Y-86943824D01*
X152818500Y-86724851D01*
X152818500Y-86503149D01*
X152783818Y-86284176D01*
X152715308Y-86073324D01*
X152614657Y-85875785D01*
X152484343Y-85696424D01*
X152484341Y-85696421D01*
X152327578Y-85539658D01*
X152148218Y-85409345D01*
X152148217Y-85409344D01*
X152148215Y-85409343D01*
X151950676Y-85308692D01*
X151950673Y-85308691D01*
X151950671Y-85308690D01*
X151739829Y-85240183D01*
X151739825Y-85240182D01*
X151739824Y-85240182D01*
X151520851Y-85205500D01*
X151299149Y-85205500D01*
X151080176Y-85240182D01*
X151080170Y-85240183D01*
X150869328Y-85308690D01*
X150869322Y-85308693D01*
X150671781Y-85409345D01*
X150492421Y-85539658D01*
X150335658Y-85696421D01*
X150205345Y-85875781D01*
X150104693Y-86073322D01*
X150104690Y-86073328D01*
X150036183Y-86284170D01*
X150036182Y-86284175D01*
X150036182Y-86284176D01*
X150001500Y-86503149D01*
X142312992Y-86503149D01*
X142333746Y-86457700D01*
X142337772Y-86449656D01*
X142372493Y-86386065D01*
X142377083Y-86378329D01*
X142406518Y-86332525D01*
X142411649Y-86325134D01*
X142542701Y-86150070D01*
X142548344Y-86143067D01*
X142583987Y-86101932D01*
X142590117Y-86095349D01*
X142641349Y-86044117D01*
X142647932Y-86037987D01*
X142689067Y-86002344D01*
X142696070Y-85996701D01*
X142871134Y-85865649D01*
X142878525Y-85860518D01*
X142906563Y-85842500D01*
X141976500Y-85842500D01*
X141976500Y-86481470D01*
X135882500Y-86481470D01*
X135882500Y-85842500D01*
X134978125Y-85842500D01*
X134685000Y-86135625D01*
X133671000Y-86135625D01*
X133671000Y-85767805D01*
X133691002Y-85699684D01*
X133707905Y-85678710D01*
X135462491Y-83924124D01*
X136896500Y-83924124D01*
X136896500Y-84828500D01*
X138422500Y-84828500D01*
X139436500Y-84828500D01*
X140962500Y-84828500D01*
X141976500Y-84828500D01*
X143502500Y-84828500D01*
X144516500Y-84828500D01*
X146042500Y-84828500D01*
X147056500Y-84828500D01*
X148582500Y-84828500D01*
X149596500Y-84828500D01*
X149769569Y-84828500D01*
X149789503Y-84808566D01*
X149793071Y-84805135D01*
X149815056Y-84784813D01*
X149818756Y-84781525D01*
X149849042Y-84755660D01*
X149852866Y-84752522D01*
X149876360Y-84734002D01*
X149880301Y-84731018D01*
X150091882Y-84577293D01*
X150095945Y-84574462D01*
X150120838Y-84557830D01*
X150125004Y-84555163D01*
X150158964Y-84534353D01*
X150163232Y-84531852D01*
X150189337Y-84517233D01*
X150193699Y-84514901D01*
X150426725Y-84396169D01*
X150431177Y-84394010D01*
X150458363Y-84381477D01*
X150462898Y-84379493D01*
X150499695Y-84364252D01*
X150504301Y-84362450D01*
X150532370Y-84352095D01*
X150537044Y-84350474D01*
X150683502Y-84302887D01*
X152136500Y-84302887D01*
X152282956Y-84350474D01*
X152287630Y-84352095D01*
X152315699Y-84362450D01*
X152320305Y-84364252D01*
X152357102Y-84379493D01*
X152361637Y-84381477D01*
X152388823Y-84394010D01*
X152393275Y-84396169D01*
X152626301Y-84514901D01*
X152630663Y-84517233D01*
X152656768Y-84531852D01*
X152661036Y-84534353D01*
X152694996Y-84555163D01*
X152699162Y-84557830D01*
X152724055Y-84574462D01*
X152728118Y-84577293D01*
X152939699Y-84731018D01*
X152943640Y-84734002D01*
X152967134Y-84752522D01*
X152970958Y-84755660D01*
X153001244Y-84781525D01*
X153004944Y-84784813D01*
X153026929Y-84805135D01*
X153030497Y-84808566D01*
X153050431Y-84828500D01*
X153425500Y-84828500D01*
X153425500Y-83302500D01*
X152136500Y-83302500D01*
X152136500Y-84302887D01*
X150683502Y-84302887D01*
X150785780Y-84269655D01*
X150790513Y-84268219D01*
X150819335Y-84260090D01*
X150824130Y-84258839D01*
X150862859Y-84249543D01*
X150867690Y-84248483D01*
X150897025Y-84242649D01*
X150901891Y-84241780D01*
X151122500Y-84206838D01*
X151122500Y-83302500D01*
X149596500Y-83302500D01*
X149596500Y-84828500D01*
X148582500Y-84828500D01*
X148582500Y-83302500D01*
X147056500Y-83302500D01*
X147056500Y-84828500D01*
X146042500Y-84828500D01*
X146042500Y-83302500D01*
X144516500Y-83302500D01*
X144516500Y-84828500D01*
X143502500Y-84828500D01*
X143502500Y-83302500D01*
X141976500Y-83302500D01*
X141976500Y-84828500D01*
X140962500Y-84828500D01*
X140962500Y-83302500D01*
X139436500Y-83302500D01*
X139436500Y-84828500D01*
X138422500Y-84828500D01*
X138422500Y-83302500D01*
X137518124Y-83302500D01*
X136896500Y-83924124D01*
X135462491Y-83924124D01*
X138002491Y-81384124D01*
X139436500Y-81384124D01*
X139436500Y-82288500D01*
X140962500Y-82288500D01*
X141976500Y-82288500D01*
X143502500Y-82288500D01*
X143502500Y-82221479D01*
X144516500Y-82221479D01*
X144516500Y-82288500D01*
X146042500Y-82288500D01*
X147056500Y-82288500D01*
X148582500Y-82288500D01*
X149596500Y-82288500D01*
X151122500Y-82288500D01*
X151122500Y-82096848D01*
X151095817Y-82088179D01*
X151091143Y-82086558D01*
X151063074Y-82076203D01*
X151058468Y-82074401D01*
X151021671Y-82059160D01*
X151017136Y-82057176D01*
X150989950Y-82044643D01*
X150985499Y-82042484D01*
X150780522Y-81938044D01*
X150776158Y-81935711D01*
X150750054Y-81921092D01*
X150745787Y-81918592D01*
X150711827Y-81897782D01*
X150707659Y-81895114D01*
X150682767Y-81878482D01*
X150678707Y-81875652D01*
X150492593Y-81740432D01*
X150488649Y-81737447D01*
X150465156Y-81718927D01*
X150461333Y-81715790D01*
X150431046Y-81689924D01*
X150427347Y-81686636D01*
X150405362Y-81666314D01*
X150401794Y-81662883D01*
X150239117Y-81500206D01*
X150235686Y-81496638D01*
X150215364Y-81474653D01*
X150212076Y-81470954D01*
X150186210Y-81440667D01*
X150183073Y-81436844D01*
X150164553Y-81413351D01*
X150161568Y-81409407D01*
X150026348Y-81223293D01*
X150023518Y-81219233D01*
X150006886Y-81194341D01*
X150004218Y-81190173D01*
X149983408Y-81156213D01*
X149980908Y-81151946D01*
X149966289Y-81125842D01*
X149963956Y-81121478D01*
X149859516Y-80916501D01*
X149857357Y-80912050D01*
X149844824Y-80884864D01*
X149842840Y-80880329D01*
X149827599Y-80843532D01*
X149825797Y-80838926D01*
X149815442Y-80810857D01*
X149813821Y-80806183D01*
X149799628Y-80762500D01*
X149596500Y-80762500D01*
X149596500Y-82288500D01*
X148582500Y-82288500D01*
X148582500Y-80762500D01*
X147056500Y-80762500D01*
X147056500Y-82288500D01*
X146042500Y-82288500D01*
X146042500Y-81354258D01*
X146002432Y-81409407D01*
X145999447Y-81413351D01*
X145980927Y-81436844D01*
X145977790Y-81440667D01*
X145951924Y-81470954D01*
X145948636Y-81474653D01*
X145928314Y-81496638D01*
X145924883Y-81500206D01*
X145762206Y-81662883D01*
X145758638Y-81666314D01*
X145736653Y-81686636D01*
X145732954Y-81689924D01*
X145702667Y-81715790D01*
X145698844Y-81718927D01*
X145675351Y-81737447D01*
X145671407Y-81740432D01*
X145485293Y-81875652D01*
X145481233Y-81878482D01*
X145456341Y-81895114D01*
X145452173Y-81897782D01*
X145418213Y-81918592D01*
X145413946Y-81921092D01*
X145387842Y-81935711D01*
X145383478Y-81938044D01*
X145178501Y-82042484D01*
X145174050Y-82044643D01*
X145146864Y-82057176D01*
X145142329Y-82059160D01*
X145105532Y-82074401D01*
X145100926Y-82076203D01*
X145072857Y-82086558D01*
X145068183Y-82088179D01*
X144849388Y-82159270D01*
X144844650Y-82160707D01*
X144815827Y-82168835D01*
X144811040Y-82170084D01*
X144772311Y-82179381D01*
X144767476Y-82180442D01*
X144738140Y-82186276D01*
X144733275Y-82187145D01*
X144516500Y-82221479D01*
X143502500Y-82221479D01*
X143502500Y-82096848D01*
X143475817Y-82088179D01*
X143471143Y-82086558D01*
X143443074Y-82076203D01*
X143438468Y-82074401D01*
X143401671Y-82059160D01*
X143397136Y-82057176D01*
X143369950Y-82044643D01*
X143365499Y-82042484D01*
X143160522Y-81938044D01*
X143156158Y-81935711D01*
X143130054Y-81921092D01*
X143125787Y-81918592D01*
X143091827Y-81897782D01*
X143087659Y-81895114D01*
X143062767Y-81878482D01*
X143058707Y-81875652D01*
X142872593Y-81740432D01*
X142868649Y-81737447D01*
X142845156Y-81718927D01*
X142841333Y-81715790D01*
X142811046Y-81689924D01*
X142807347Y-81686636D01*
X142785362Y-81666314D01*
X142781794Y-81662883D01*
X142619117Y-81500206D01*
X142615686Y-81496638D01*
X142595364Y-81474653D01*
X142592076Y-81470954D01*
X142566210Y-81440667D01*
X142563073Y-81436844D01*
X142544553Y-81413351D01*
X142541568Y-81409407D01*
X142406348Y-81223293D01*
X142403518Y-81219233D01*
X142386886Y-81194341D01*
X142384218Y-81190173D01*
X142363408Y-81156213D01*
X142360908Y-81151946D01*
X142346289Y-81125842D01*
X142343956Y-81121478D01*
X142239516Y-80916501D01*
X142237357Y-80912050D01*
X142224824Y-80884864D01*
X142222840Y-80880329D01*
X142207599Y-80843532D01*
X142205797Y-80838926D01*
X142195442Y-80810857D01*
X142193821Y-80806183D01*
X142179628Y-80762500D01*
X141976500Y-80762500D01*
X141976500Y-82288500D01*
X140962500Y-82288500D01*
X140962500Y-80762500D01*
X140058124Y-80762500D01*
X139436500Y-81384124D01*
X138002491Y-81384124D01*
X139471726Y-79914889D01*
X143063500Y-79914889D01*
X143063500Y-80105111D01*
X143093257Y-80292991D01*
X143152039Y-80473903D01*
X143152040Y-80473904D01*
X143238400Y-80643395D01*
X143350209Y-80797287D01*
X143484712Y-80931790D01*
X143484715Y-80931792D01*
X143638608Y-81043602D01*
X143808097Y-81129961D01*
X143989009Y-81188743D01*
X144176889Y-81218500D01*
X144176892Y-81218500D01*
X144367108Y-81218500D01*
X144367111Y-81218500D01*
X144554991Y-81188743D01*
X144735903Y-81129961D01*
X144905392Y-81043602D01*
X145059285Y-80931792D01*
X145193792Y-80797285D01*
X145305602Y-80643392D01*
X145391961Y-80473903D01*
X145450743Y-80292991D01*
X145480500Y-80105111D01*
X145480500Y-79914889D01*
X150683500Y-79914889D01*
X150683500Y-80105111D01*
X150713257Y-80292991D01*
X150772039Y-80473903D01*
X150772040Y-80473904D01*
X150858400Y-80643395D01*
X150970209Y-80797287D01*
X151104712Y-80931790D01*
X151104715Y-80931792D01*
X151258608Y-81043602D01*
X151428097Y-81129961D01*
X151609009Y-81188743D01*
X151796889Y-81218500D01*
X151796892Y-81218500D01*
X151987108Y-81218500D01*
X151987111Y-81218500D01*
X152174991Y-81188743D01*
X152355903Y-81129961D01*
X152525392Y-81043602D01*
X152679285Y-80931792D01*
X152813792Y-80797285D01*
X152925602Y-80643392D01*
X153011961Y-80473903D01*
X153070743Y-80292991D01*
X153100500Y-80105111D01*
X153100500Y-79914889D01*
X153070743Y-79727009D01*
X153011961Y-79546097D01*
X152925602Y-79376608D01*
X152813792Y-79222715D01*
X152813790Y-79222712D01*
X152679287Y-79088209D01*
X152525395Y-78976400D01*
X152525394Y-78976399D01*
X152525392Y-78976398D01*
X152355903Y-78890039D01*
X152174991Y-78831257D01*
X151987111Y-78801500D01*
X151796889Y-78801500D01*
X151609009Y-78831257D01*
X151609006Y-78831257D01*
X151609005Y-78831258D01*
X151428097Y-78890039D01*
X151428095Y-78890040D01*
X151258604Y-78976400D01*
X151104712Y-79088209D01*
X150970209Y-79222712D01*
X150858400Y-79376604D01*
X150772040Y-79546095D01*
X150772039Y-79546097D01*
X150729019Y-79678500D01*
X150713257Y-79727009D01*
X150683500Y-79914889D01*
X145480500Y-79914889D01*
X145454147Y-79748500D01*
X147056500Y-79748500D01*
X148582500Y-79748500D01*
X149596500Y-79748500D01*
X149683214Y-79748500D01*
X149714855Y-79548725D01*
X149715724Y-79543860D01*
X149721558Y-79514524D01*
X149722619Y-79509689D01*
X149731916Y-79470960D01*
X149733165Y-79466173D01*
X149741293Y-79437350D01*
X149742730Y-79432612D01*
X149813821Y-79213817D01*
X149815442Y-79209143D01*
X149825797Y-79181074D01*
X149827599Y-79176468D01*
X149842840Y-79139671D01*
X149844824Y-79135136D01*
X149857357Y-79107950D01*
X149859516Y-79103499D01*
X149963956Y-78898522D01*
X149966289Y-78894158D01*
X149980908Y-78868054D01*
X149983408Y-78863787D01*
X150004218Y-78829827D01*
X150006886Y-78825659D01*
X150023518Y-78800767D01*
X150026348Y-78796707D01*
X150161568Y-78610593D01*
X150164553Y-78606649D01*
X150183073Y-78583156D01*
X150186210Y-78579333D01*
X150212076Y-78549046D01*
X150215364Y-78545347D01*
X150235686Y-78523362D01*
X150239117Y-78519794D01*
X150401794Y-78357117D01*
X150405362Y-78353686D01*
X150427347Y-78333364D01*
X150431046Y-78330076D01*
X150461333Y-78304210D01*
X150465156Y-78301073D01*
X150488649Y-78282553D01*
X150492593Y-78279568D01*
X150571140Y-78222500D01*
X149596500Y-78222500D01*
X149596500Y-79748500D01*
X148582500Y-79748500D01*
X148582500Y-78222500D01*
X147056500Y-78222500D01*
X147056500Y-79748500D01*
X145454147Y-79748500D01*
X145450743Y-79727009D01*
X145391961Y-79546097D01*
X145305602Y-79376608D01*
X145193792Y-79222715D01*
X145193790Y-79222712D01*
X145059287Y-79088209D01*
X144905395Y-78976400D01*
X144905394Y-78976399D01*
X144905392Y-78976398D01*
X144735903Y-78890039D01*
X144554991Y-78831257D01*
X144367111Y-78801500D01*
X144176889Y-78801500D01*
X143989009Y-78831257D01*
X143989006Y-78831257D01*
X143989005Y-78831258D01*
X143808097Y-78890039D01*
X143808095Y-78890040D01*
X143638604Y-78976400D01*
X143484712Y-79088209D01*
X143350209Y-79222712D01*
X143238400Y-79376604D01*
X143152040Y-79546095D01*
X143152039Y-79546097D01*
X143109019Y-79678500D01*
X143093257Y-79727009D01*
X143063500Y-79914889D01*
X139471726Y-79914889D01*
X139638115Y-79748500D01*
X141976500Y-79748500D01*
X142063214Y-79748500D01*
X142094855Y-79548725D01*
X142095724Y-79543860D01*
X142101558Y-79514524D01*
X142102619Y-79509689D01*
X142111916Y-79470960D01*
X142113165Y-79466173D01*
X142121293Y-79437350D01*
X142122730Y-79432612D01*
X142193821Y-79213817D01*
X142195442Y-79209143D01*
X142205797Y-79181074D01*
X142207599Y-79176468D01*
X142222840Y-79139671D01*
X142224824Y-79135136D01*
X142237357Y-79107950D01*
X142239516Y-79103499D01*
X142343956Y-78898522D01*
X142346289Y-78894158D01*
X142360908Y-78868054D01*
X142363408Y-78863787D01*
X142384218Y-78829827D01*
X142386886Y-78825659D01*
X142403518Y-78800767D01*
X142406348Y-78796707D01*
X142541568Y-78610593D01*
X142544553Y-78606649D01*
X142563073Y-78583156D01*
X142566210Y-78579333D01*
X142592076Y-78549046D01*
X142595364Y-78545347D01*
X142615686Y-78523362D01*
X142619117Y-78519794D01*
X142781794Y-78357117D01*
X142785362Y-78353686D01*
X142807347Y-78333364D01*
X142811046Y-78330076D01*
X142841333Y-78304210D01*
X142845156Y-78301073D01*
X142868649Y-78282553D01*
X142872593Y-78279568D01*
X142951140Y-78222500D01*
X141976500Y-78222500D01*
X141976500Y-79748500D01*
X139638115Y-79748500D01*
X139671210Y-79715405D01*
X139733522Y-79681379D01*
X139760305Y-79678500D01*
X139794403Y-79678500D01*
X139794404Y-79678500D01*
X139979584Y-79641666D01*
X140154020Y-79569412D01*
X140311008Y-79464516D01*
X140444516Y-79331008D01*
X140549412Y-79174020D01*
X140621666Y-78999584D01*
X140658500Y-78814404D01*
X140658500Y-78625596D01*
X140621666Y-78440416D01*
X140549412Y-78265980D01*
X140444516Y-78108992D01*
X140311008Y-77975484D01*
X140154020Y-77870588D01*
X139979584Y-77798334D01*
X139794407Y-77761500D01*
X139794404Y-77761500D01*
X139605596Y-77761500D01*
X139605592Y-77761500D01*
X139420415Y-77798334D01*
X139420410Y-77798336D01*
X139245980Y-77870588D01*
X139088996Y-77975481D01*
X139088989Y-77975486D01*
X138955486Y-78108989D01*
X138955481Y-78108996D01*
X138850588Y-78265980D01*
X138778336Y-78440410D01*
X138778334Y-78440415D01*
X138741500Y-78625592D01*
X138741500Y-78659695D01*
X138721498Y-78727816D01*
X138704595Y-78748790D01*
X132551794Y-84901591D01*
X132504192Y-84949193D01*
X132456590Y-84996794D01*
X132381095Y-85109779D01*
X132379420Y-85114463D01*
X132330268Y-85233125D01*
X132330266Y-85233130D01*
X132304000Y-85365178D01*
X132304000Y-101569324D01*
X132330264Y-101701365D01*
X132331333Y-101703943D01*
X132331336Y-101703962D01*
X132331340Y-101703961D01*
X132381790Y-101825759D01*
X132456590Y-101937705D01*
X132456595Y-101937711D01*
X133753417Y-103234532D01*
X134954590Y-104435705D01*
X134954591Y-104435706D01*
X135049794Y-104530909D01*
X135161741Y-104605710D01*
X135286130Y-104657233D01*
X135418181Y-104683500D01*
X135552818Y-104683500D01*
X135584883Y-104683500D01*
X135653004Y-104703502D01*
X135699497Y-104757158D01*
X135710494Y-104819389D01*
X135709625Y-104830416D01*
X136397209Y-105518000D01*
X136385339Y-105518000D01*
X136283606Y-105545259D01*
X136192394Y-105597920D01*
X136117920Y-105672394D01*
X136065259Y-105763606D01*
X136038000Y-105865339D01*
X136038000Y-105877209D01*
X135350416Y-105189625D01*
X135319301Y-105232452D01*
X135225829Y-105415900D01*
X135225826Y-105415906D01*
X135162208Y-105611703D01*
X135130000Y-105815061D01*
X135130000Y-106020938D01*
X135162208Y-106224296D01*
X135225826Y-106420093D01*
X135225829Y-106420099D01*
X135319297Y-106603540D01*
X135319298Y-106603541D01*
X135350416Y-106646372D01*
X136038000Y-105958788D01*
X136038000Y-105970661D01*
X136065259Y-106072394D01*
X136117920Y-106163606D01*
X136192394Y-106238080D01*
X136283606Y-106290741D01*
X136385339Y-106318000D01*
X136397210Y-106318000D01*
X135709626Y-107005582D01*
X135709626Y-107005583D01*
X135752454Y-107036699D01*
X135935900Y-107130170D01*
X135935906Y-107130173D01*
X136131705Y-107193791D01*
X136131701Y-107193791D01*
X136335061Y-107226000D01*
X136540939Y-107226000D01*
X136744296Y-107193791D01*
X136940093Y-107130173D01*
X136940099Y-107130170D01*
X137123541Y-107036701D01*
X137166372Y-107005582D01*
X137166372Y-107005581D01*
X136478791Y-106318000D01*
X136490661Y-106318000D01*
X136592394Y-106290741D01*
X136683606Y-106238080D01*
X136758080Y-106163606D01*
X136810741Y-106072394D01*
X136838000Y-105970661D01*
X136838000Y-105958791D01*
X137525581Y-106646372D01*
X137525582Y-106646372D01*
X137556701Y-106603541D01*
X137575453Y-106566740D01*
X137624201Y-106515125D01*
X137693116Y-106498059D01*
X137760318Y-106520960D01*
X137799985Y-106566738D01*
X137818871Y-106603803D01*
X137939932Y-106770430D01*
X137939934Y-106770432D01*
X137939936Y-106770435D01*
X138085564Y-106916063D01*
X138085567Y-106916065D01*
X138085570Y-106916068D01*
X138252197Y-107037129D01*
X138435710Y-107130634D01*
X138631592Y-107194280D01*
X138835019Y-107226500D01*
X138835022Y-107226500D01*
X139040978Y-107226500D01*
X139040981Y-107226500D01*
X139244408Y-107194280D01*
X139440290Y-107130634D01*
X139623803Y-107037129D01*
X139790430Y-106916068D01*
X139936068Y-106770430D01*
X140057129Y-106603803D01*
X140150634Y-106420290D01*
X140214280Y-106224408D01*
X140246500Y-106020981D01*
X140246500Y-105815019D01*
X140214280Y-105611592D01*
X140150634Y-105415710D01*
X140057129Y-105232197D01*
X139996320Y-105148500D01*
X144665978Y-105148500D01*
X146042500Y-105148500D01*
X147056500Y-105148500D01*
X148582500Y-105148500D01*
X149596500Y-105148500D01*
X151122500Y-105148500D01*
X152136500Y-105148500D01*
X153425500Y-105148500D01*
X153425500Y-103622500D01*
X152136500Y-103622500D01*
X152136500Y-105148500D01*
X151122500Y-105148500D01*
X151122500Y-103622500D01*
X149596500Y-103622500D01*
X149596500Y-105148500D01*
X148582500Y-105148500D01*
X148582500Y-103622500D01*
X147056500Y-103622500D01*
X147056500Y-105148500D01*
X146042500Y-105148500D01*
X146042500Y-103622500D01*
X145622519Y-103622500D01*
X145622514Y-103622594D01*
X145622060Y-103628762D01*
X145617181Y-103678314D01*
X145616424Y-103684453D01*
X145610933Y-103721474D01*
X145609875Y-103727571D01*
X145584937Y-103852936D01*
X145586493Y-103860757D01*
X145580167Y-103931471D01*
X145579324Y-103933559D01*
X145530599Y-104051194D01*
X145530568Y-104051278D01*
X145506453Y-104109490D01*
X145506454Y-104109491D01*
X145460000Y-104221648D01*
X145457492Y-104227306D01*
X145441485Y-104261149D01*
X145438701Y-104266680D01*
X145415224Y-104310595D01*
X145412179Y-104315969D01*
X145392954Y-104348043D01*
X145389646Y-104353267D01*
X145337128Y-104431865D01*
X145287186Y-104506609D01*
X145283624Y-104511667D01*
X145261336Y-104541718D01*
X145257532Y-104546592D01*
X145225944Y-104585082D01*
X145221903Y-104589766D01*
X145196780Y-104617484D01*
X145192517Y-104621961D01*
X144665978Y-105148500D01*
X139996320Y-105148500D01*
X139936068Y-105065570D01*
X139936065Y-105065567D01*
X139936063Y-105065564D01*
X139790435Y-104919936D01*
X139790432Y-104919934D01*
X139790430Y-104919932D01*
X139778735Y-104911435D01*
X139735382Y-104855214D01*
X139729307Y-104784478D01*
X139762438Y-104721686D01*
X139824258Y-104686774D01*
X139852797Y-104683500D01*
X143481170Y-104683500D01*
X143481171Y-104683500D01*
X143613221Y-104657234D01*
X143686087Y-104627051D01*
X143737611Y-104605710D01*
X143849558Y-104530909D01*
X143944761Y-104435706D01*
X143944762Y-104435705D01*
X144457909Y-103922558D01*
X144494019Y-103868516D01*
X144532710Y-103810611D01*
X144554051Y-103759087D01*
X144584234Y-103686221D01*
X144610500Y-103554171D01*
X144610500Y-103419533D01*
X144610500Y-102693829D01*
X144590462Y-102593091D01*
X144584980Y-102565532D01*
X147056500Y-102565532D01*
X147056500Y-102608500D01*
X148582500Y-102608500D01*
X149596500Y-102608500D01*
X151122500Y-102608500D01*
X151122500Y-101728411D01*
X151007957Y-101556985D01*
X151004648Y-101551759D01*
X150985418Y-101519675D01*
X150982372Y-101514298D01*
X150958900Y-101470388D01*
X150956117Y-101464861D01*
X150940120Y-101431038D01*
X150937614Y-101425385D01*
X150850067Y-101214030D01*
X150847841Y-101208257D01*
X150835227Y-101173001D01*
X150833284Y-101167120D01*
X150818834Y-101119469D01*
X150817188Y-101113517D01*
X150809419Y-101082500D01*
X149596500Y-101082500D01*
X149596500Y-102608500D01*
X148582500Y-102608500D01*
X148582500Y-101082500D01*
X148219778Y-101082500D01*
X148219381Y-101084311D01*
X148210084Y-101123040D01*
X148208835Y-101127827D01*
X148200707Y-101156650D01*
X148199270Y-101161388D01*
X148128179Y-101380183D01*
X148126558Y-101384857D01*
X148116203Y-101412926D01*
X148114401Y-101417532D01*
X148099160Y-101454329D01*
X148097176Y-101458864D01*
X148084643Y-101486050D01*
X148082484Y-101490501D01*
X147978044Y-101695478D01*
X147975711Y-101699842D01*
X147961092Y-101725946D01*
X147958592Y-101730213D01*
X147937782Y-101764173D01*
X147935114Y-101768341D01*
X147918482Y-101793233D01*
X147915652Y-101797293D01*
X147780432Y-101983407D01*
X147777447Y-101987351D01*
X147758927Y-102010844D01*
X147755790Y-102014667D01*
X147729924Y-102044954D01*
X147726636Y-102048653D01*
X147706314Y-102070638D01*
X147702883Y-102074206D01*
X147540206Y-102236883D01*
X147536638Y-102240314D01*
X147514653Y-102260636D01*
X147510954Y-102263924D01*
X147480667Y-102289790D01*
X147476844Y-102292927D01*
X147453351Y-102311447D01*
X147449407Y-102314432D01*
X147263293Y-102449652D01*
X147259233Y-102452482D01*
X147234341Y-102469114D01*
X147230173Y-102471782D01*
X147196213Y-102492592D01*
X147191946Y-102495092D01*
X147165842Y-102509711D01*
X147161478Y-102512044D01*
X147056500Y-102565532D01*
X144584980Y-102565532D01*
X144584234Y-102561779D01*
X144554051Y-102488913D01*
X144532710Y-102437389D01*
X144457909Y-102325442D01*
X144362706Y-102230239D01*
X143146803Y-101014336D01*
X141681063Y-99548595D01*
X141647037Y-99486283D01*
X141652102Y-99415467D01*
X141694649Y-99358632D01*
X141761169Y-99333821D01*
X141770158Y-99333500D01*
X145327354Y-99333500D01*
X145395475Y-99353502D01*
X145441968Y-99407158D01*
X145452072Y-99477432D01*
X145422578Y-99542012D01*
X145401415Y-99561436D01*
X145262712Y-99662209D01*
X145128209Y-99796712D01*
X145016400Y-99950604D01*
X145016398Y-99950608D01*
X144930039Y-100120097D01*
X144871257Y-100301009D01*
X144841500Y-100488889D01*
X144841500Y-100679111D01*
X144871257Y-100866991D01*
X144930039Y-101047903D01*
X145014685Y-101214030D01*
X145016400Y-101217395D01*
X145128209Y-101371287D01*
X145262712Y-101505790D01*
X145299087Y-101532218D01*
X145416608Y-101617602D01*
X145586097Y-101703961D01*
X145767009Y-101762743D01*
X145954889Y-101792500D01*
X145954892Y-101792500D01*
X146145108Y-101792500D01*
X146145111Y-101792500D01*
X146332991Y-101762743D01*
X146513903Y-101703961D01*
X146683392Y-101617602D01*
X146837285Y-101505792D01*
X146971792Y-101371285D01*
X147083602Y-101217392D01*
X147169961Y-101047903D01*
X147228743Y-100866991D01*
X147258500Y-100679111D01*
X147258500Y-100488889D01*
X147228743Y-100301009D01*
X147169961Y-100120097D01*
X147083602Y-99950608D01*
X146971792Y-99796715D01*
X146971790Y-99796712D01*
X146837287Y-99662209D01*
X146698585Y-99561436D01*
X146655231Y-99505213D01*
X146649156Y-99434477D01*
X146682288Y-99371686D01*
X146744108Y-99336774D01*
X146772646Y-99333500D01*
X150471406Y-99333500D01*
X150539527Y-99353502D01*
X150560501Y-99370405D01*
X151724595Y-100534499D01*
X151758621Y-100596811D01*
X151761500Y-100623594D01*
X151761500Y-100673479D01*
X151796413Y-100849000D01*
X151864898Y-101014336D01*
X151964322Y-101163135D01*
X152090865Y-101289678D01*
X152239664Y-101389102D01*
X152405000Y-101457587D01*
X152580521Y-101492500D01*
X152580522Y-101492500D01*
X152759478Y-101492500D01*
X152759479Y-101492500D01*
X152759480Y-101492499D01*
X152759486Y-101492499D01*
X152787808Y-101486865D01*
X152858522Y-101493191D01*
X152886448Y-101508504D01*
X153036608Y-101617602D01*
X153206097Y-101703961D01*
X153387009Y-101762743D01*
X153574889Y-101792500D01*
X153574892Y-101792500D01*
X153765108Y-101792500D01*
X153765111Y-101792500D01*
X153952991Y-101762743D01*
X154133903Y-101703961D01*
X154256300Y-101641596D01*
X154326073Y-101628493D01*
X154391858Y-101655193D01*
X154432765Y-101713220D01*
X154439500Y-101753864D01*
X154439500Y-105344108D01*
X154439500Y-105410000D01*
X154439500Y-105509361D01*
X154465322Y-105672394D01*
X154470588Y-105705641D01*
X154489062Y-105762497D01*
X154531995Y-105894632D01*
X154622213Y-106071694D01*
X154622215Y-106071697D01*
X154642298Y-106099339D01*
X154739019Y-106232464D01*
X154739021Y-106232466D01*
X154739023Y-106232469D01*
X154879530Y-106372976D01*
X154879533Y-106372978D01*
X154879536Y-106372981D01*
X155040306Y-106489787D01*
X155217368Y-106580005D01*
X155406358Y-106641411D01*
X155406359Y-106641411D01*
X155406364Y-106641413D01*
X155602639Y-106672500D01*
X155636108Y-106672500D01*
X160663500Y-106672500D01*
X160731621Y-106692502D01*
X160778114Y-106746158D01*
X160789500Y-106798500D01*
X160789500Y-112004081D01*
X160787948Y-112023794D01*
X160779821Y-112075101D01*
X160767640Y-112112590D01*
X160748617Y-112149925D01*
X160725445Y-112181818D01*
X160695818Y-112211445D01*
X160663925Y-112234617D01*
X160626590Y-112253640D01*
X160589101Y-112265821D01*
X160537794Y-112273948D01*
X160518081Y-112275500D01*
X159202909Y-112275500D01*
X159134788Y-112255498D01*
X159088295Y-112201842D01*
X159078191Y-112131568D01*
X159107685Y-112066988D01*
X159167411Y-112028604D01*
X159183189Y-112025052D01*
X159322116Y-112003049D01*
X159525483Y-111936972D01*
X159716009Y-111839894D01*
X159889004Y-111714206D01*
X160040206Y-111563004D01*
X160165894Y-111390009D01*
X160262972Y-111199483D01*
X160329049Y-110996116D01*
X160362500Y-110784916D01*
X160362500Y-110571084D01*
X160329049Y-110359884D01*
X160262972Y-110156517D01*
X160165894Y-109965991D01*
X160040206Y-109792996D01*
X160040203Y-109792993D01*
X160040201Y-109792990D01*
X159889009Y-109641798D01*
X159889006Y-109641796D01*
X159889004Y-109641794D01*
X159716009Y-109516106D01*
X159525483Y-109419028D01*
X159525480Y-109419027D01*
X159525478Y-109419026D01*
X159322120Y-109352952D01*
X159322123Y-109352952D01*
X159282801Y-109346724D01*
X159110916Y-109319500D01*
X158897084Y-109319500D01*
X158685884Y-109352951D01*
X158685878Y-109352952D01*
X158482521Y-109419026D01*
X158482515Y-109419029D01*
X158291987Y-109516108D01*
X158118993Y-109641796D01*
X158118990Y-109641798D01*
X157967798Y-109792990D01*
X157967796Y-109792993D01*
X157842108Y-109965987D01*
X157745029Y-110156515D01*
X157745026Y-110156521D01*
X157678952Y-110359878D01*
X157678951Y-110359883D01*
X157678951Y-110359884D01*
X157645500Y-110571084D01*
X157645500Y-110784916D01*
X157676009Y-110977541D01*
X157678952Y-110996121D01*
X157733346Y-111163530D01*
X157745028Y-111199483D01*
X157842106Y-111390009D01*
X157967794Y-111563004D01*
X157967796Y-111563006D01*
X157967798Y-111563009D01*
X158118990Y-111714201D01*
X158118993Y-111714203D01*
X158118996Y-111714206D01*
X158291991Y-111839894D01*
X158482517Y-111936972D01*
X158685878Y-112003047D01*
X158685879Y-112003047D01*
X158685884Y-112003049D01*
X158824803Y-112025051D01*
X158888955Y-112055464D01*
X158926482Y-112115732D01*
X158925468Y-112186721D01*
X158886235Y-112245893D01*
X158821240Y-112274461D01*
X158805091Y-112275500D01*
X132340187Y-112275500D01*
X132327838Y-112274893D01*
X132279653Y-112270147D01*
X132196226Y-112261930D01*
X132172001Y-112257111D01*
X132051401Y-112220527D01*
X132028581Y-112211075D01*
X131917434Y-112151666D01*
X131896897Y-112137944D01*
X131799474Y-112057992D01*
X131782007Y-112040525D01*
X131768276Y-112023794D01*
X131702054Y-111943101D01*
X131688333Y-111922565D01*
X131645264Y-111841989D01*
X131628923Y-111811416D01*
X131619472Y-111788598D01*
X131607452Y-111748973D01*
X131582886Y-111667992D01*
X131578070Y-111643778D01*
X131565107Y-111512162D01*
X131564500Y-111499812D01*
X131564500Y-110228500D01*
X132578500Y-110228500D01*
X133342500Y-110228500D01*
X133342500Y-109591350D01*
X134785500Y-109591350D01*
X134785500Y-111388649D01*
X134792009Y-111449196D01*
X134792011Y-111449204D01*
X134843110Y-111586202D01*
X134843112Y-111586207D01*
X134930738Y-111703261D01*
X135047792Y-111790887D01*
X135047794Y-111790888D01*
X135047796Y-111790889D01*
X135073497Y-111800475D01*
X135184795Y-111841988D01*
X135184803Y-111841990D01*
X135245350Y-111848499D01*
X135245355Y-111848499D01*
X135245362Y-111848500D01*
X135245368Y-111848500D01*
X137042632Y-111848500D01*
X137042638Y-111848500D01*
X137042645Y-111848499D01*
X137042649Y-111848499D01*
X137103196Y-111841990D01*
X137103199Y-111841989D01*
X137103201Y-111841989D01*
X137240204Y-111790889D01*
X137243265Y-111788598D01*
X137357261Y-111703261D01*
X137444887Y-111586207D01*
X137444887Y-111586206D01*
X137444889Y-111586204D01*
X137488869Y-111468288D01*
X137531414Y-111411456D01*
X137597934Y-111386645D01*
X137667308Y-111401736D01*
X137696018Y-111423229D01*
X137798990Y-111526201D01*
X137798993Y-111526203D01*
X137798996Y-111526206D01*
X137971991Y-111651894D01*
X138162517Y-111748972D01*
X138365878Y-111815047D01*
X138365879Y-111815047D01*
X138365884Y-111815049D01*
X138577084Y-111848500D01*
X138577087Y-111848500D01*
X138790913Y-111848500D01*
X138790916Y-111848500D01*
X139002116Y-111815049D01*
X139205483Y-111748972D01*
X139396009Y-111651894D01*
X139569004Y-111526206D01*
X139720206Y-111375004D01*
X139845894Y-111202009D01*
X139845899Y-111201997D01*
X139846561Y-111200920D01*
X139846924Y-111200591D01*
X139848804Y-111198004D01*
X139849347Y-111198398D01*
X139899204Y-111153283D01*
X139969244Y-111141670D01*
X140034445Y-111169766D01*
X140059021Y-111198130D01*
X140059196Y-111198004D01*
X140060668Y-111200030D01*
X140061439Y-111200920D01*
X140062105Y-111202007D01*
X140062106Y-111202009D01*
X140187794Y-111375004D01*
X140187796Y-111375006D01*
X140187798Y-111375009D01*
X140338990Y-111526201D01*
X140338993Y-111526203D01*
X140338996Y-111526206D01*
X140511991Y-111651894D01*
X140702517Y-111748972D01*
X140905878Y-111815047D01*
X140905879Y-111815047D01*
X140905884Y-111815049D01*
X141117084Y-111848500D01*
X141117087Y-111848500D01*
X141330913Y-111848500D01*
X141330916Y-111848500D01*
X141542116Y-111815049D01*
X141745483Y-111748972D01*
X141936009Y-111651894D01*
X142109004Y-111526206D01*
X142260206Y-111375004D01*
X142385894Y-111202009D01*
X142482972Y-111011483D01*
X142549049Y-110808116D01*
X142582500Y-110596916D01*
X142582500Y-110383084D01*
X142549049Y-110171884D01*
X142482972Y-109968517D01*
X142385894Y-109777991D01*
X142260206Y-109604996D01*
X142260203Y-109604993D01*
X142260201Y-109604990D01*
X142109009Y-109453798D01*
X142109006Y-109453796D01*
X142109004Y-109453794D01*
X141936009Y-109328106D01*
X141745483Y-109231028D01*
X141745480Y-109231027D01*
X141745478Y-109231026D01*
X141542120Y-109164952D01*
X141542123Y-109164952D01*
X141502801Y-109158724D01*
X141330916Y-109131500D01*
X141117084Y-109131500D01*
X140905884Y-109164951D01*
X140905878Y-109164952D01*
X140702521Y-109231026D01*
X140702515Y-109231029D01*
X140511987Y-109328108D01*
X140338993Y-109453796D01*
X140338990Y-109453798D01*
X140187798Y-109604990D01*
X140187796Y-109604993D01*
X140062108Y-109777987D01*
X140061434Y-109779088D01*
X140061068Y-109779418D01*
X140059196Y-109781996D01*
X140058654Y-109781602D01*
X140008787Y-109826721D01*
X139938745Y-109838328D01*
X139873547Y-109810226D01*
X139848976Y-109781870D01*
X139848804Y-109781996D01*
X139847341Y-109779982D01*
X139846566Y-109779088D01*
X139845896Y-109777996D01*
X139845894Y-109777991D01*
X139720206Y-109604996D01*
X139720203Y-109604993D01*
X139720201Y-109604990D01*
X139569009Y-109453798D01*
X139569006Y-109453796D01*
X139569004Y-109453794D01*
X139396009Y-109328106D01*
X139205483Y-109231028D01*
X139205480Y-109231027D01*
X139205478Y-109231026D01*
X139002120Y-109164952D01*
X139002123Y-109164952D01*
X138962801Y-109158724D01*
X138790916Y-109131500D01*
X138577084Y-109131500D01*
X138365884Y-109164951D01*
X138365878Y-109164952D01*
X138162521Y-109231026D01*
X138162515Y-109231029D01*
X137971987Y-109328108D01*
X137798995Y-109453794D01*
X137696018Y-109556771D01*
X137633706Y-109590796D01*
X137562890Y-109585730D01*
X137506054Y-109543184D01*
X137488871Y-109511715D01*
X137444889Y-109393796D01*
X137444886Y-109393792D01*
X137444886Y-109393791D01*
X137357261Y-109276738D01*
X137240207Y-109189112D01*
X137240202Y-109189110D01*
X137103204Y-109138011D01*
X137103196Y-109138009D01*
X137042649Y-109131500D01*
X137042638Y-109131500D01*
X135245362Y-109131500D01*
X135245350Y-109131500D01*
X135184803Y-109138009D01*
X135184795Y-109138011D01*
X135047797Y-109189110D01*
X135047792Y-109189112D01*
X134930738Y-109276738D01*
X134843112Y-109393792D01*
X134843110Y-109393797D01*
X134792011Y-109530795D01*
X134792009Y-109530803D01*
X134785500Y-109591350D01*
X133342500Y-109591350D01*
X133342500Y-108702500D01*
X132578500Y-108702500D01*
X132578500Y-110228500D01*
X131564500Y-110228500D01*
X131564500Y-107688500D01*
X132578500Y-107688500D01*
X133342500Y-107688500D01*
X141976500Y-107688500D01*
X143502500Y-107688500D01*
X143502500Y-106909402D01*
X144804000Y-106909402D01*
X144804000Y-108204000D01*
X146094593Y-108204000D01*
X146081207Y-108236316D01*
X146052000Y-108383147D01*
X146052000Y-108532853D01*
X146081207Y-108679684D01*
X146094593Y-108712000D01*
X144804000Y-108712000D01*
X144804000Y-110006597D01*
X144810505Y-110067093D01*
X144861555Y-110203964D01*
X144861555Y-110203965D01*
X144949095Y-110320904D01*
X145066034Y-110408444D01*
X145202906Y-110459494D01*
X145263402Y-110465999D01*
X145263415Y-110466000D01*
X146558000Y-110466000D01*
X146558000Y-109175407D01*
X146590316Y-109188793D01*
X146737147Y-109218000D01*
X146886853Y-109218000D01*
X147033684Y-109188793D01*
X147066000Y-109175407D01*
X147066000Y-110466000D01*
X148360585Y-110466000D01*
X148360597Y-110465999D01*
X148421093Y-110459494D01*
X148557964Y-110408444D01*
X148557965Y-110408444D01*
X148674904Y-110320904D01*
X148762444Y-110203965D01*
X148762444Y-110203964D01*
X148813494Y-110067093D01*
X148819999Y-110006597D01*
X148820000Y-110006585D01*
X148820000Y-108712000D01*
X147529407Y-108712000D01*
X147542793Y-108679684D01*
X147572000Y-108532853D01*
X147572000Y-108383147D01*
X147560703Y-108326353D01*
X149883500Y-108326353D01*
X149883500Y-108589646D01*
X149917864Y-108850672D01*
X149917865Y-108850678D01*
X149917866Y-108850680D01*
X149986010Y-109104997D01*
X150086766Y-109348243D01*
X150086767Y-109348244D01*
X150086772Y-109348255D01*
X150218407Y-109576253D01*
X150218409Y-109576256D01*
X150218410Y-109576257D01*
X150240460Y-109604993D01*
X150378689Y-109785138D01*
X150378698Y-109785148D01*
X150564851Y-109971301D01*
X150564861Y-109971310D01*
X150564862Y-109971311D01*
X150689688Y-110067093D01*
X150773746Y-110131592D01*
X151001744Y-110263227D01*
X151001748Y-110263228D01*
X151001757Y-110263234D01*
X151245003Y-110363990D01*
X151499320Y-110432134D01*
X151499326Y-110432134D01*
X151499327Y-110432135D01*
X151529281Y-110436078D01*
X151760356Y-110466500D01*
X151760363Y-110466500D01*
X152023637Y-110466500D01*
X152023644Y-110466500D01*
X152284680Y-110432134D01*
X152538997Y-110363990D01*
X152782243Y-110263234D01*
X153010257Y-110131590D01*
X153219138Y-109971311D01*
X153405311Y-109785138D01*
X153521441Y-109633794D01*
X154676500Y-109633794D01*
X154676500Y-110228500D01*
X156202500Y-110228500D01*
X156202500Y-108702500D01*
X154908341Y-108702500D01*
X154907989Y-108705554D01*
X154869292Y-108999497D01*
X154868686Y-109003580D01*
X154864618Y-109028214D01*
X154863879Y-109032275D01*
X154857402Y-109064825D01*
X154856532Y-109068852D01*
X154850874Y-109093113D01*
X154849874Y-109097107D01*
X154773143Y-109383471D01*
X154772010Y-109387437D01*
X154764768Y-109411310D01*
X154763507Y-109415234D01*
X154752839Y-109446661D01*
X154751448Y-109450550D01*
X154742665Y-109473882D01*
X154741152Y-109477710D01*
X154676500Y-109633794D01*
X153521441Y-109633794D01*
X153565590Y-109576257D01*
X153697234Y-109348243D01*
X153797990Y-109104997D01*
X153866134Y-108850680D01*
X153900500Y-108589644D01*
X153900500Y-108326356D01*
X153866134Y-108065320D01*
X153797990Y-107811003D01*
X153697234Y-107567757D01*
X153697228Y-107567748D01*
X153697227Y-107567744D01*
X153565592Y-107339746D01*
X153405310Y-107130861D01*
X153405301Y-107130851D01*
X153219148Y-106944698D01*
X153219138Y-106944689D01*
X153094310Y-106848906D01*
X153010257Y-106784410D01*
X153010256Y-106784409D01*
X153010253Y-106784407D01*
X152782255Y-106652772D01*
X152782247Y-106652768D01*
X152782243Y-106652766D01*
X152538997Y-106552010D01*
X152284680Y-106483866D01*
X152284678Y-106483865D01*
X152284672Y-106483864D01*
X152023646Y-106449500D01*
X152023644Y-106449500D01*
X151760356Y-106449500D01*
X151760353Y-106449500D01*
X151499327Y-106483864D01*
X151446351Y-106498059D01*
X151245003Y-106552010D01*
X151017194Y-106646372D01*
X151001755Y-106652767D01*
X151001744Y-106652772D01*
X150773746Y-106784407D01*
X150564861Y-106944689D01*
X150564851Y-106944698D01*
X150378698Y-107130851D01*
X150378689Y-107130861D01*
X150218407Y-107339746D01*
X150086772Y-107567744D01*
X150086767Y-107567755D01*
X150086766Y-107567757D01*
X150020720Y-107727207D01*
X149986010Y-107811003D01*
X149917864Y-108065327D01*
X149883500Y-108326353D01*
X147560703Y-108326353D01*
X147542793Y-108236316D01*
X147529407Y-108204000D01*
X148820000Y-108204000D01*
X148820000Y-106909414D01*
X148819999Y-106909402D01*
X148813494Y-106848906D01*
X148762444Y-106712035D01*
X148762444Y-106712034D01*
X148674904Y-106595095D01*
X148557965Y-106507555D01*
X148421093Y-106456505D01*
X148360597Y-106450000D01*
X147066000Y-106450000D01*
X147066000Y-107740592D01*
X147033684Y-107727207D01*
X146886853Y-107698000D01*
X146737147Y-107698000D01*
X146590316Y-107727207D01*
X146558000Y-107740592D01*
X146558000Y-106450000D01*
X145263402Y-106450000D01*
X145202906Y-106456505D01*
X145066035Y-106507555D01*
X145066034Y-106507555D01*
X144949095Y-106595095D01*
X144861555Y-106712034D01*
X144861555Y-106712035D01*
X144810505Y-106848906D01*
X144804000Y-106909402D01*
X143502500Y-106909402D01*
X143502500Y-106162500D01*
X141976500Y-106162500D01*
X141976500Y-107688500D01*
X133342500Y-107688500D01*
X133342500Y-106162500D01*
X132578500Y-106162500D01*
X132578500Y-107688500D01*
X131564500Y-107688500D01*
X131564500Y-105148500D01*
X132578500Y-105148500D01*
X133342500Y-105148500D01*
X133342500Y-104257626D01*
X132707373Y-103622500D01*
X132578500Y-103622500D01*
X132578500Y-105148500D01*
X131564500Y-105148500D01*
X131564500Y-82288500D01*
X132578500Y-82288500D01*
X133342500Y-82288500D01*
X133342500Y-80762500D01*
X132578500Y-80762500D01*
X132578500Y-82288500D01*
X131564500Y-82288500D01*
X131564500Y-79748500D01*
X132578500Y-79748500D01*
X133342500Y-79748500D01*
X134356500Y-79748500D01*
X135882500Y-79748500D01*
X135882500Y-78222500D01*
X134356500Y-78222500D01*
X134356500Y-79748500D01*
X133342500Y-79748500D01*
X133342500Y-78222500D01*
X132578500Y-78222500D01*
X132578500Y-79748500D01*
X131564500Y-79748500D01*
X131564500Y-77201032D01*
X141976500Y-77201032D01*
X141976500Y-77208500D01*
X143502500Y-77208500D01*
X144516500Y-77208500D01*
X146042500Y-77208500D01*
X146042500Y-76132500D01*
X145815295Y-76132500D01*
X145810345Y-76132403D01*
X145780432Y-76131227D01*
X145775496Y-76130936D01*
X145735791Y-76127811D01*
X145730866Y-76127325D01*
X145701154Y-76123808D01*
X145696254Y-76123131D01*
X145430182Y-76080989D01*
X145425316Y-76080120D01*
X145395981Y-76074286D01*
X145391150Y-76073226D01*
X145352421Y-76063930D01*
X145347630Y-76062680D01*
X145318808Y-76054552D01*
X145314071Y-76053115D01*
X145057850Y-75969863D01*
X145053176Y-75968242D01*
X145025107Y-75957887D01*
X145020502Y-75956085D01*
X144983704Y-75940844D01*
X144979166Y-75938859D01*
X144951981Y-75926326D01*
X144947532Y-75924168D01*
X144843499Y-75871161D01*
X147056500Y-75871161D01*
X147056500Y-77208500D01*
X148582500Y-77208500D01*
X149596500Y-77208500D01*
X151122500Y-77208500D01*
X151122500Y-76132500D01*
X149937792Y-76132500D01*
X149934418Y-76132455D01*
X149914034Y-76131909D01*
X149910670Y-76131774D01*
X149883558Y-76130322D01*
X149880191Y-76130096D01*
X149859844Y-76128459D01*
X149856481Y-76128143D01*
X149763498Y-76118147D01*
X152136500Y-76118147D01*
X152136500Y-77208500D01*
X153425500Y-77208500D01*
X153425500Y-75682500D01*
X152988034Y-75682500D01*
X152954651Y-75715883D01*
X152948068Y-75722013D01*
X152906933Y-75757656D01*
X152899930Y-75763299D01*
X152724866Y-75894351D01*
X152717475Y-75899482D01*
X152671671Y-75928917D01*
X152663935Y-75933507D01*
X152600344Y-75968228D01*
X152592300Y-75972254D01*
X152542804Y-75994856D01*
X152534499Y-75998296D01*
X152333874Y-76073127D01*
X152326421Y-76075645D01*
X152280862Y-76089467D01*
X152273261Y-76091516D01*
X152211572Y-76106095D01*
X152203861Y-76107665D01*
X152156906Y-76115706D01*
X152149106Y-76116792D01*
X152136500Y-76118147D01*
X149763498Y-76118147D01*
X149750894Y-76116792D01*
X149743094Y-76115706D01*
X149696139Y-76107665D01*
X149688428Y-76106095D01*
X149626739Y-76091516D01*
X149619138Y-76089467D01*
X149596500Y-76082598D01*
X149596500Y-77208500D01*
X148582500Y-77208500D01*
X148582500Y-76132500D01*
X148315295Y-76132500D01*
X148310345Y-76132403D01*
X148280432Y-76131227D01*
X148275496Y-76130936D01*
X148235791Y-76127811D01*
X148230866Y-76127325D01*
X148201154Y-76123808D01*
X148196254Y-76123131D01*
X147930182Y-76080989D01*
X147925316Y-76080120D01*
X147895981Y-76074286D01*
X147891150Y-76073226D01*
X147852421Y-76063930D01*
X147847630Y-76062680D01*
X147818808Y-76054552D01*
X147814071Y-76053115D01*
X147557850Y-75969863D01*
X147553176Y-75968242D01*
X147525107Y-75957887D01*
X147520502Y-75956085D01*
X147483704Y-75940844D01*
X147479166Y-75938859D01*
X147451981Y-75926326D01*
X147447532Y-75924168D01*
X147207493Y-75801863D01*
X147203129Y-75799530D01*
X147200000Y-75797777D01*
X147196871Y-75799530D01*
X147192507Y-75801863D01*
X147056500Y-75871161D01*
X144843499Y-75871161D01*
X144707493Y-75801863D01*
X144703129Y-75799530D01*
X144677025Y-75784911D01*
X144672758Y-75782411D01*
X144638798Y-75761601D01*
X144634631Y-75758933D01*
X144609740Y-75742302D01*
X144605679Y-75739472D01*
X144527263Y-75682500D01*
X144516500Y-75682500D01*
X144516500Y-77208500D01*
X143502500Y-77208500D01*
X143502500Y-75682500D01*
X142175000Y-75682500D01*
X142175000Y-76500208D01*
X142174955Y-76503582D01*
X142174409Y-76523966D01*
X142174274Y-76527330D01*
X142172822Y-76554442D01*
X142172596Y-76557809D01*
X142170959Y-76578156D01*
X142170643Y-76581519D01*
X142159292Y-76687106D01*
X142158206Y-76694906D01*
X142150165Y-76741861D01*
X142148595Y-76749572D01*
X142134016Y-76811261D01*
X142131967Y-76818862D01*
X142118145Y-76864421D01*
X142115627Y-76871874D01*
X142040796Y-77072499D01*
X142037356Y-77080804D01*
X142014754Y-77130300D01*
X142010728Y-77138344D01*
X141976500Y-77201032D01*
X131564500Y-77201032D01*
X131564500Y-75275519D01*
X133159000Y-75275519D01*
X133159000Y-75600480D01*
X133194974Y-75827620D01*
X133209122Y-75871161D01*
X133266038Y-76046329D01*
X133266039Y-76046332D01*
X133266041Y-76046336D01*
X133309921Y-76132455D01*
X133370440Y-76251231D01*
X133505611Y-76437278D01*
X133505613Y-76437280D01*
X133505615Y-76437283D01*
X133668216Y-76599884D01*
X133668219Y-76599886D01*
X133668222Y-76599889D01*
X133854269Y-76735060D01*
X134059171Y-76839462D01*
X134277882Y-76910526D01*
X134505017Y-76946500D01*
X134505019Y-76946500D01*
X134734981Y-76946500D01*
X134734983Y-76946500D01*
X134962118Y-76910526D01*
X135180829Y-76839462D01*
X135385731Y-76735060D01*
X135571778Y-76599889D01*
X135734389Y-76437278D01*
X135788374Y-76362972D01*
X135844594Y-76319620D01*
X135915331Y-76313544D01*
X135978123Y-76346676D01*
X135992245Y-76362974D01*
X136045995Y-76436954D01*
X136045997Y-76436957D01*
X136208542Y-76599502D01*
X136208545Y-76599504D01*
X136394527Y-76734628D01*
X136599361Y-76838996D01*
X136599367Y-76838999D01*
X136817993Y-76910035D01*
X136906000Y-76923974D01*
X136906000Y-75926438D01*
X136947708Y-75950518D01*
X137087591Y-75988000D01*
X137232409Y-75988000D01*
X137372292Y-75950518D01*
X137414000Y-75926438D01*
X137414000Y-76923974D01*
X137502006Y-76910035D01*
X137720632Y-76838999D01*
X137720638Y-76838996D01*
X137925472Y-76734628D01*
X138098115Y-76609196D01*
X138164983Y-76585338D01*
X138234134Y-76601418D01*
X138283614Y-76652332D01*
X138290226Y-76667087D01*
X138296611Y-76684204D01*
X138296612Y-76684205D01*
X138296613Y-76684208D01*
X138384238Y-76801261D01*
X138501292Y-76888887D01*
X138501294Y-76888888D01*
X138501296Y-76888889D01*
X138557990Y-76910035D01*
X138638295Y-76939988D01*
X138638303Y-76939990D01*
X138698850Y-76946499D01*
X138698855Y-76946499D01*
X138698862Y-76946500D01*
X138698868Y-76946500D01*
X140701132Y-76946500D01*
X140701138Y-76946500D01*
X140701145Y-76946499D01*
X140701149Y-76946499D01*
X140761696Y-76939990D01*
X140761699Y-76939989D01*
X140761701Y-76939989D01*
X140898704Y-76888889D01*
X140921434Y-76871874D01*
X141015761Y-76801261D01*
X141103387Y-76684207D01*
X141103387Y-76684206D01*
X141103389Y-76684204D01*
X141154489Y-76547201D01*
X141156626Y-76527330D01*
X141160999Y-76486649D01*
X141161000Y-76486632D01*
X141161000Y-74389367D01*
X141160999Y-74389350D01*
X141154490Y-74328803D01*
X141154488Y-74328795D01*
X141125424Y-74250875D01*
X141103389Y-74191796D01*
X141103388Y-74191794D01*
X141103387Y-74191792D01*
X141015761Y-74074738D01*
X140898707Y-73987112D01*
X140898702Y-73987110D01*
X140761704Y-73936011D01*
X140761696Y-73936009D01*
X140701149Y-73929500D01*
X140701138Y-73929500D01*
X138698862Y-73929500D01*
X138698850Y-73929500D01*
X138638303Y-73936009D01*
X138638295Y-73936011D01*
X138501297Y-73987110D01*
X138501292Y-73987112D01*
X138384238Y-74074738D01*
X138296612Y-74191792D01*
X138296611Y-74191795D01*
X138290231Y-74208901D01*
X138247683Y-74265736D01*
X138181163Y-74290546D01*
X138111789Y-74275454D01*
X138098115Y-74266803D01*
X137925472Y-74141371D01*
X137720638Y-74037003D01*
X137720632Y-74037000D01*
X137502000Y-73965962D01*
X137414000Y-73952023D01*
X137414000Y-74949561D01*
X137372292Y-74925482D01*
X137232409Y-74888000D01*
X137087591Y-74888000D01*
X136947708Y-74925482D01*
X136906000Y-74949561D01*
X136906000Y-73952023D01*
X136817999Y-73965962D01*
X136599367Y-74037000D01*
X136599361Y-74037003D01*
X136394527Y-74141371D01*
X136208545Y-74276495D01*
X136208542Y-74276497D01*
X136045998Y-74439041D01*
X135992245Y-74513026D01*
X135936022Y-74556379D01*
X135865286Y-74562454D01*
X135802494Y-74529322D01*
X135788373Y-74513025D01*
X135787443Y-74511745D01*
X135734389Y-74438722D01*
X135734386Y-74438719D01*
X135734384Y-74438716D01*
X135571783Y-74276115D01*
X135571780Y-74276113D01*
X135571778Y-74276111D01*
X135385731Y-74140940D01*
X135372383Y-74134139D01*
X135180836Y-74036541D01*
X135180832Y-74036539D01*
X135180829Y-74036538D01*
X135071473Y-74001006D01*
X134962120Y-73965474D01*
X134848550Y-73947487D01*
X134734983Y-73929500D01*
X134505017Y-73929500D01*
X134414163Y-73943889D01*
X134277879Y-73965474D01*
X134135986Y-74011579D01*
X134059171Y-74036538D01*
X134059169Y-74036538D01*
X134059163Y-74036541D01*
X133854268Y-74140940D01*
X133668219Y-74276113D01*
X133668216Y-74276115D01*
X133505615Y-74438716D01*
X133505613Y-74438719D01*
X133370440Y-74624768D01*
X133266041Y-74829663D01*
X133266038Y-74829669D01*
X133266038Y-74829671D01*
X133257417Y-74856204D01*
X133194974Y-75048379D01*
X133159000Y-75275519D01*
X131564500Y-75275519D01*
X131564500Y-73674967D01*
X141976500Y-73674967D01*
X142010728Y-73737656D01*
X142014754Y-73745700D01*
X142037356Y-73795196D01*
X142040796Y-73803501D01*
X142115627Y-74004126D01*
X142118145Y-74011579D01*
X142131967Y-74057138D01*
X142134016Y-74064739D01*
X142148595Y-74126428D01*
X142150165Y-74134139D01*
X142158206Y-74181094D01*
X142159292Y-74188894D01*
X142170643Y-74294481D01*
X142170959Y-74297844D01*
X142172596Y-74318191D01*
X142172822Y-74321558D01*
X142174274Y-74348670D01*
X142174409Y-74352034D01*
X142174955Y-74372418D01*
X142175000Y-74375792D01*
X142175000Y-74668500D01*
X143502500Y-74668500D01*
X143502500Y-74012435D01*
X143486869Y-73913746D01*
X143486192Y-73908846D01*
X143482675Y-73879134D01*
X143482189Y-73874209D01*
X143479064Y-73834504D01*
X143478773Y-73829568D01*
X143477597Y-73799655D01*
X143477500Y-73794705D01*
X143477500Y-73545214D01*
X144491500Y-73545214D01*
X144491500Y-73774786D01*
X144521702Y-73965474D01*
X144527414Y-74001538D01*
X144594791Y-74208901D01*
X144598355Y-74219870D01*
X144702579Y-74424421D01*
X144837518Y-74610149D01*
X144837520Y-74610151D01*
X144837522Y-74610154D01*
X144999845Y-74772477D01*
X144999848Y-74772479D01*
X144999851Y-74772482D01*
X145185579Y-74907421D01*
X145390130Y-75011645D01*
X145608467Y-75082587D01*
X145835214Y-75118500D01*
X145835217Y-75118500D01*
X146064783Y-75118500D01*
X146064786Y-75118500D01*
X146291533Y-75082587D01*
X146509870Y-75011645D01*
X146714421Y-74907421D01*
X146900149Y-74772482D01*
X147062482Y-74610149D01*
X147098064Y-74561173D01*
X147154286Y-74517820D01*
X147225022Y-74511745D01*
X147287814Y-74544876D01*
X147301933Y-74561171D01*
X147337518Y-74610149D01*
X147337520Y-74610151D01*
X147337522Y-74610154D01*
X147499845Y-74772477D01*
X147499848Y-74772479D01*
X147499851Y-74772482D01*
X147685579Y-74907421D01*
X147890130Y-75011645D01*
X148108467Y-75082587D01*
X148335214Y-75118500D01*
X148335217Y-75118500D01*
X148564783Y-75118500D01*
X148564786Y-75118500D01*
X148791533Y-75082587D01*
X149009870Y-75011645D01*
X149214421Y-74907421D01*
X149358620Y-74802654D01*
X149425485Y-74778797D01*
X149494637Y-74794877D01*
X149544117Y-74845790D01*
X149547287Y-74852864D01*
X149549112Y-74856207D01*
X149636738Y-74973261D01*
X149753792Y-75060887D01*
X149753794Y-75060888D01*
X149753796Y-75060889D01*
X149811965Y-75082585D01*
X149890795Y-75111988D01*
X149890803Y-75111990D01*
X149951350Y-75118499D01*
X149951355Y-75118499D01*
X149951362Y-75118500D01*
X149951368Y-75118500D01*
X151948632Y-75118500D01*
X151948638Y-75118500D01*
X151948645Y-75118499D01*
X151948649Y-75118499D01*
X152009196Y-75111990D01*
X152009199Y-75111989D01*
X152009201Y-75111989D01*
X152146204Y-75060889D01*
X152162912Y-75048382D01*
X152263261Y-74973261D01*
X152350887Y-74856207D01*
X152350887Y-74856206D01*
X152350889Y-74856204D01*
X152401989Y-74719201D01*
X152408500Y-74658638D01*
X152408500Y-72661362D01*
X152406317Y-72641052D01*
X152401990Y-72600803D01*
X152401988Y-72600795D01*
X152350889Y-72463797D01*
X152350887Y-72463792D01*
X152263261Y-72346738D01*
X152146207Y-72259112D01*
X152146202Y-72259110D01*
X152009204Y-72208011D01*
X152009196Y-72208009D01*
X151948649Y-72201500D01*
X151948638Y-72201500D01*
X149951362Y-72201500D01*
X149951350Y-72201500D01*
X149890803Y-72208009D01*
X149890795Y-72208011D01*
X149753797Y-72259110D01*
X149753792Y-72259112D01*
X149636738Y-72346738D01*
X149549112Y-72463792D01*
X149544795Y-72471701D01*
X149542501Y-72470448D01*
X149508161Y-72516297D01*
X149441634Y-72541089D01*
X149372264Y-72525979D01*
X149358618Y-72517344D01*
X149214424Y-72412581D01*
X149214423Y-72412580D01*
X149214421Y-72412579D01*
X149009870Y-72308355D01*
X149009867Y-72308354D01*
X149009865Y-72308353D01*
X148791538Y-72237414D01*
X148791534Y-72237413D01*
X148791533Y-72237413D01*
X148564786Y-72201500D01*
X148335214Y-72201500D01*
X148108467Y-72237413D01*
X148108461Y-72237414D01*
X147890134Y-72308353D01*
X147890128Y-72308356D01*
X147685575Y-72412581D01*
X147499848Y-72547520D01*
X147499845Y-72547522D01*
X147337523Y-72709844D01*
X147301936Y-72758826D01*
X147245713Y-72802179D01*
X147174977Y-72808254D01*
X147112185Y-72775122D01*
X147098064Y-72758826D01*
X147062482Y-72709851D01*
X147062478Y-72709847D01*
X147062476Y-72709844D01*
X146900154Y-72547522D01*
X146900151Y-72547520D01*
X146900149Y-72547518D01*
X146714421Y-72412579D01*
X146509870Y-72308355D01*
X146509867Y-72308354D01*
X146509865Y-72308353D01*
X146291538Y-72237414D01*
X146291534Y-72237413D01*
X146291533Y-72237413D01*
X146064786Y-72201500D01*
X145835214Y-72201500D01*
X145608467Y-72237413D01*
X145608461Y-72237414D01*
X145390134Y-72308353D01*
X145390128Y-72308356D01*
X145185575Y-72412581D01*
X144999848Y-72547520D01*
X144999845Y-72547522D01*
X144837522Y-72709845D01*
X144837520Y-72709848D01*
X144702581Y-72895575D01*
X144598356Y-73100128D01*
X144598353Y-73100134D01*
X144527414Y-73318461D01*
X144527413Y-73318466D01*
X144527413Y-73318467D01*
X144491500Y-73545214D01*
X143477500Y-73545214D01*
X143477500Y-73525295D01*
X143477597Y-73520345D01*
X143478773Y-73490432D01*
X143479064Y-73485496D01*
X143482189Y-73445791D01*
X143482675Y-73440866D01*
X143486192Y-73411154D01*
X143486869Y-73406254D01*
X143502500Y-73307563D01*
X143502500Y-73142500D01*
X141976500Y-73142500D01*
X141976500Y-73674967D01*
X131564500Y-73674967D01*
X131564500Y-72128500D01*
X132578500Y-72128500D01*
X133342500Y-72128500D01*
X134356500Y-72128500D01*
X135882500Y-72128500D01*
X136896500Y-72128500D01*
X138422500Y-72128500D01*
X139436500Y-72128500D01*
X140962500Y-72128500D01*
X141976500Y-72128500D01*
X143502500Y-72128500D01*
X143502500Y-71645320D01*
X144516500Y-71645320D01*
X144605679Y-71580528D01*
X144609740Y-71577698D01*
X144634631Y-71561067D01*
X144638798Y-71558399D01*
X144672758Y-71537589D01*
X144677025Y-71535089D01*
X144703129Y-71520470D01*
X144707493Y-71518137D01*
X144843503Y-71448837D01*
X147056500Y-71448837D01*
X147192508Y-71518137D01*
X147196871Y-71520470D01*
X147200000Y-71522222D01*
X147203129Y-71520470D01*
X147207493Y-71518137D01*
X147447532Y-71395832D01*
X147451981Y-71393674D01*
X147479166Y-71381141D01*
X147483704Y-71379156D01*
X147520502Y-71363915D01*
X147525107Y-71362113D01*
X147553176Y-71351758D01*
X147557850Y-71350137D01*
X147814071Y-71266885D01*
X147818808Y-71265448D01*
X147847630Y-71257320D01*
X147852421Y-71256070D01*
X147891150Y-71246774D01*
X147895981Y-71245714D01*
X147925316Y-71239880D01*
X147930182Y-71239011D01*
X147940347Y-71237401D01*
X149596500Y-71237401D01*
X149619138Y-71230533D01*
X149626739Y-71228484D01*
X149688428Y-71213905D01*
X149696139Y-71212335D01*
X149743094Y-71204294D01*
X149750894Y-71203208D01*
X149763508Y-71201852D01*
X152136500Y-71201852D01*
X152149106Y-71203208D01*
X152156906Y-71204294D01*
X152203861Y-71212335D01*
X152211572Y-71213905D01*
X152273261Y-71228484D01*
X152280862Y-71230533D01*
X152326421Y-71244355D01*
X152333874Y-71246873D01*
X152534499Y-71321704D01*
X152542804Y-71325144D01*
X152592300Y-71347746D01*
X152600344Y-71351772D01*
X152663935Y-71386493D01*
X152671671Y-71391083D01*
X152717475Y-71420518D01*
X152724866Y-71425649D01*
X152899930Y-71556701D01*
X152906933Y-71562344D01*
X152948068Y-71597987D01*
X152954651Y-71604117D01*
X153005883Y-71655349D01*
X153012013Y-71661932D01*
X153047656Y-71703067D01*
X153053299Y-71710070D01*
X153184351Y-71885134D01*
X153189482Y-71892525D01*
X153218917Y-71938329D01*
X153223507Y-71946065D01*
X153258228Y-72009656D01*
X153262254Y-72017700D01*
X153284856Y-72067196D01*
X153288296Y-72075501D01*
X153308064Y-72128500D01*
X153425500Y-72128500D01*
X153425500Y-70602500D01*
X152136500Y-70602500D01*
X152136500Y-71201852D01*
X149763508Y-71201852D01*
X149856481Y-71191857D01*
X149859844Y-71191541D01*
X149880191Y-71189904D01*
X149883558Y-71189678D01*
X149910670Y-71188226D01*
X149914034Y-71188091D01*
X149934418Y-71187545D01*
X149937792Y-71187500D01*
X151122500Y-71187500D01*
X151122500Y-70602500D01*
X149596500Y-70602500D01*
X149596500Y-71237401D01*
X147940347Y-71237401D01*
X148196254Y-71196869D01*
X148201154Y-71196192D01*
X148230866Y-71192675D01*
X148235791Y-71192189D01*
X148275496Y-71189064D01*
X148280432Y-71188773D01*
X148310345Y-71187597D01*
X148315295Y-71187500D01*
X148582500Y-71187500D01*
X148582500Y-70602500D01*
X147056500Y-70602500D01*
X147056500Y-71448837D01*
X144843503Y-71448837D01*
X144947532Y-71395832D01*
X144951981Y-71393674D01*
X144979166Y-71381141D01*
X144983704Y-71379156D01*
X145020502Y-71363915D01*
X145025107Y-71362113D01*
X145053176Y-71351758D01*
X145057850Y-71350137D01*
X145314071Y-71266885D01*
X145318808Y-71265448D01*
X145347630Y-71257320D01*
X145352421Y-71256070D01*
X145391150Y-71246774D01*
X145395981Y-71245714D01*
X145425316Y-71239880D01*
X145430182Y-71239011D01*
X145696254Y-71196869D01*
X145701154Y-71196192D01*
X145730866Y-71192675D01*
X145735791Y-71192189D01*
X145775496Y-71189064D01*
X145780432Y-71188773D01*
X145810345Y-71187597D01*
X145815295Y-71187500D01*
X146042500Y-71187500D01*
X146042500Y-70602500D01*
X144516500Y-70602500D01*
X144516500Y-71645320D01*
X143502500Y-71645320D01*
X143502500Y-70602500D01*
X141976500Y-70602500D01*
X141976500Y-72128500D01*
X140962500Y-72128500D01*
X140962500Y-70602500D01*
X139436500Y-70602500D01*
X139436500Y-72128500D01*
X138422500Y-72128500D01*
X138422500Y-70602500D01*
X136896500Y-70602500D01*
X136896500Y-72128500D01*
X135882500Y-72128500D01*
X135882500Y-70602500D01*
X134356500Y-70602500D01*
X134356500Y-72128500D01*
X133342500Y-72128500D01*
X133342500Y-70602500D01*
X132578500Y-70602500D01*
X132578500Y-72128500D01*
X131564500Y-72128500D01*
X131564500Y-68769534D01*
X134356500Y-68769534D01*
X134356500Y-69588500D01*
X135882500Y-69588500D01*
X135882500Y-69111241D01*
X135857941Y-69115131D01*
X135853041Y-69115808D01*
X135823329Y-69119325D01*
X135818404Y-69119811D01*
X135778699Y-69122936D01*
X135773763Y-69123227D01*
X135743850Y-69124403D01*
X135738900Y-69124500D01*
X135493100Y-69124500D01*
X135488150Y-69124403D01*
X135458237Y-69123227D01*
X135453301Y-69122936D01*
X135413596Y-69119811D01*
X135408671Y-69119325D01*
X135378959Y-69115808D01*
X135374059Y-69115131D01*
X135131301Y-69076681D01*
X135126433Y-69075811D01*
X135097090Y-69069975D01*
X135092257Y-69068915D01*
X135053529Y-69059618D01*
X135048741Y-69058369D01*
X135019927Y-69050243D01*
X135015191Y-69048806D01*
X134781430Y-68972852D01*
X134776756Y-68971231D01*
X134748687Y-68960876D01*
X134744082Y-68959074D01*
X134707284Y-68943833D01*
X134702748Y-68941849D01*
X134675562Y-68929316D01*
X134671110Y-68927157D01*
X134452109Y-68815570D01*
X134447747Y-68813238D01*
X134421644Y-68798620D01*
X134417376Y-68796119D01*
X134383416Y-68775309D01*
X134379249Y-68772641D01*
X134365549Y-68763487D01*
X134356500Y-68769534D01*
X131564500Y-68769534D01*
X131564500Y-68742429D01*
X136896500Y-68742429D01*
X136896500Y-69588500D01*
X138422500Y-69588500D01*
X139436500Y-69588500D01*
X140962500Y-69588500D01*
X141976500Y-69588500D01*
X143502500Y-69588500D01*
X143502500Y-68998868D01*
X143348809Y-69048806D01*
X143344073Y-69050243D01*
X143315259Y-69058369D01*
X143310471Y-69059618D01*
X143271743Y-69068915D01*
X143266910Y-69069975D01*
X143237567Y-69075811D01*
X143232699Y-69076681D01*
X142989941Y-69115131D01*
X142985041Y-69115808D01*
X142955329Y-69119325D01*
X142950404Y-69119811D01*
X142910699Y-69122936D01*
X142905763Y-69123227D01*
X142875850Y-69124403D01*
X142870900Y-69124500D01*
X142625100Y-69124500D01*
X142620150Y-69124403D01*
X142590237Y-69123227D01*
X142585301Y-69122936D01*
X142545596Y-69119811D01*
X142540671Y-69119325D01*
X142510959Y-69115808D01*
X142506059Y-69115131D01*
X142263301Y-69076681D01*
X142258433Y-69075811D01*
X142229090Y-69069975D01*
X142224257Y-69068915D01*
X142185529Y-69059618D01*
X142180741Y-69058369D01*
X142151927Y-69050243D01*
X142147191Y-69048806D01*
X141976500Y-68993344D01*
X141976500Y-69588500D01*
X140962500Y-69588500D01*
X140962500Y-69011340D01*
X140848686Y-69048321D01*
X140843950Y-69049758D01*
X140815129Y-69057886D01*
X140810337Y-69059136D01*
X140771608Y-69068432D01*
X140766776Y-69069492D01*
X140737440Y-69075326D01*
X140732575Y-69076195D01*
X140489901Y-69114631D01*
X140485002Y-69115308D01*
X140455291Y-69118825D01*
X140450365Y-69119311D01*
X140410660Y-69122436D01*
X140405724Y-69122727D01*
X140375811Y-69123903D01*
X140370861Y-69124000D01*
X140125139Y-69124000D01*
X140120189Y-69123903D01*
X140090276Y-69122727D01*
X140085340Y-69122436D01*
X140045635Y-69119311D01*
X140040709Y-69118825D01*
X140010998Y-69115308D01*
X140006099Y-69114631D01*
X139763425Y-69076195D01*
X139758560Y-69075326D01*
X139729224Y-69069492D01*
X139724392Y-69068432D01*
X139685663Y-69059136D01*
X139680871Y-69057886D01*
X139652050Y-69049758D01*
X139647314Y-69048321D01*
X139436500Y-68979823D01*
X139436500Y-69588500D01*
X138422500Y-69588500D01*
X138422500Y-68313696D01*
X144516500Y-68313696D01*
X144516500Y-69588500D01*
X146042500Y-69588500D01*
X147056500Y-69588500D01*
X148582500Y-69588500D01*
X149596500Y-69588500D01*
X151122500Y-69588500D01*
X152136500Y-69588500D01*
X153425500Y-69588500D01*
X153425500Y-68062500D01*
X152136500Y-68062500D01*
X152136500Y-69588500D01*
X151122500Y-69588500D01*
X151122500Y-68062500D01*
X149596500Y-68062500D01*
X149596500Y-69588500D01*
X148582500Y-69588500D01*
X148582500Y-68062500D01*
X147056500Y-68062500D01*
X147056500Y-69588500D01*
X146042500Y-69588500D01*
X146042500Y-68062500D01*
X144702773Y-68062500D01*
X144702010Y-68063642D01*
X144699180Y-68067703D01*
X144554709Y-68266551D01*
X144551723Y-68270495D01*
X144533202Y-68293989D01*
X144530066Y-68297812D01*
X144516500Y-68313696D01*
X138422500Y-68313696D01*
X138422500Y-68239840D01*
X138297249Y-68067443D01*
X138294422Y-68063387D01*
X138293829Y-68062500D01*
X137570773Y-68062500D01*
X137570010Y-68063642D01*
X137567180Y-68067703D01*
X137422709Y-68266551D01*
X137419723Y-68270495D01*
X137401202Y-68293989D01*
X137398066Y-68297812D01*
X137372200Y-68328099D01*
X137368912Y-68331798D01*
X137348590Y-68353783D01*
X137345159Y-68357351D01*
X137171351Y-68531159D01*
X137167783Y-68534590D01*
X137145798Y-68554912D01*
X137142099Y-68558200D01*
X137111812Y-68584066D01*
X137107989Y-68587202D01*
X137084495Y-68605723D01*
X137080551Y-68608709D01*
X136896500Y-68742429D01*
X131564500Y-68742429D01*
X131564500Y-66968524D01*
X131584502Y-66900403D01*
X131638158Y-66853910D01*
X131708432Y-66843806D01*
X131773012Y-66873300D01*
X131811396Y-66933026D01*
X131814949Y-66948813D01*
X131840208Y-67108296D01*
X131903826Y-67304093D01*
X131903829Y-67304099D01*
X131997297Y-67487540D01*
X131997298Y-67487541D01*
X132028416Y-67530372D01*
X132716000Y-66842788D01*
X132716000Y-66854661D01*
X132743259Y-66956394D01*
X132795920Y-67047606D01*
X132870394Y-67122080D01*
X132961606Y-67174741D01*
X133063339Y-67202000D01*
X133075210Y-67202000D01*
X132387626Y-67889582D01*
X132387626Y-67889583D01*
X132430454Y-67920699D01*
X132613900Y-68014170D01*
X132613906Y-68014173D01*
X132809705Y-68077791D01*
X132809701Y-68077791D01*
X133013061Y-68110000D01*
X133218939Y-68110000D01*
X133422296Y-68077791D01*
X133618093Y-68014173D01*
X133618099Y-68014170D01*
X133801541Y-67920701D01*
X133844372Y-67889582D01*
X133844372Y-67889581D01*
X133156791Y-67202000D01*
X133168661Y-67202000D01*
X133270394Y-67174741D01*
X133361606Y-67122080D01*
X133436080Y-67047606D01*
X133488741Y-66956394D01*
X133516000Y-66854661D01*
X133516000Y-66842791D01*
X134203581Y-67530372D01*
X134203582Y-67530372D01*
X134234701Y-67487541D01*
X134253453Y-67450740D01*
X134302201Y-67399125D01*
X134371116Y-67382059D01*
X134438318Y-67404960D01*
X134477985Y-67450738D01*
X134496871Y-67487803D01*
X134617932Y-67654430D01*
X134617934Y-67654432D01*
X134617936Y-67654435D01*
X134763564Y-67800063D01*
X134763567Y-67800065D01*
X134763570Y-67800068D01*
X134930197Y-67921129D01*
X135113710Y-68014634D01*
X135309592Y-68078280D01*
X135513019Y-68110500D01*
X135513022Y-68110500D01*
X135718978Y-68110500D01*
X135718981Y-68110500D01*
X135922408Y-68078280D01*
X136118290Y-68014634D01*
X136301803Y-67921129D01*
X136468430Y-67800068D01*
X136614068Y-67654430D01*
X136735129Y-67487803D01*
X136828634Y-67304290D01*
X136892280Y-67108408D01*
X136924500Y-66904981D01*
X136924500Y-66699061D01*
X138940000Y-66699061D01*
X138940000Y-66904938D01*
X138972208Y-67108296D01*
X139035826Y-67304093D01*
X139035829Y-67304099D01*
X139129297Y-67487540D01*
X139129298Y-67487541D01*
X139160416Y-67530372D01*
X139848000Y-66842788D01*
X139848000Y-66854661D01*
X139875259Y-66956394D01*
X139927920Y-67047606D01*
X140002394Y-67122080D01*
X140093606Y-67174741D01*
X140195339Y-67202000D01*
X140207210Y-67202000D01*
X139519626Y-67889582D01*
X139519626Y-67889583D01*
X139562454Y-67920699D01*
X139745900Y-68014170D01*
X139745906Y-68014173D01*
X139941705Y-68077791D01*
X139941701Y-68077791D01*
X140145061Y-68110000D01*
X140350939Y-68110000D01*
X140554296Y-68077791D01*
X140750093Y-68014173D01*
X140750099Y-68014170D01*
X140933541Y-67920701D01*
X140976372Y-67889582D01*
X140976372Y-67889581D01*
X140288791Y-67202000D01*
X140300661Y-67202000D01*
X140402394Y-67174741D01*
X140493606Y-67122080D01*
X140568080Y-67047606D01*
X140620741Y-66956394D01*
X140648000Y-66854661D01*
X140648000Y-66842791D01*
X141335581Y-67530372D01*
X141335582Y-67530372D01*
X141366701Y-67487541D01*
X141385453Y-67450740D01*
X141434201Y-67399125D01*
X141503116Y-67382059D01*
X141570318Y-67404960D01*
X141609985Y-67450738D01*
X141628871Y-67487803D01*
X141749932Y-67654430D01*
X141749934Y-67654432D01*
X141749936Y-67654435D01*
X141895564Y-67800063D01*
X141895567Y-67800065D01*
X141895570Y-67800068D01*
X142062197Y-67921129D01*
X142245710Y-68014634D01*
X142441592Y-68078280D01*
X142645019Y-68110500D01*
X142645022Y-68110500D01*
X142850978Y-68110500D01*
X142850981Y-68110500D01*
X143054408Y-68078280D01*
X143250290Y-68014634D01*
X143433803Y-67921129D01*
X143600430Y-67800068D01*
X143746068Y-67654430D01*
X143867129Y-67487803D01*
X143960634Y-67304290D01*
X144024280Y-67108408D01*
X144056500Y-66904981D01*
X144056500Y-66699019D01*
X144024280Y-66495592D01*
X143971052Y-66331772D01*
X149596500Y-66331772D01*
X149596500Y-67048500D01*
X151122500Y-67048500D01*
X151122500Y-66930934D01*
X150966529Y-66889143D01*
X150962563Y-66888010D01*
X150938690Y-66880768D01*
X150934766Y-66879507D01*
X150903339Y-66868839D01*
X150899450Y-66867448D01*
X150876118Y-66858665D01*
X150872290Y-66857152D01*
X150598400Y-66743704D01*
X150594623Y-66742066D01*
X150571936Y-66731788D01*
X150568209Y-66730026D01*
X150538443Y-66715349D01*
X150534777Y-66713466D01*
X150512753Y-66701696D01*
X150509141Y-66699689D01*
X150252372Y-66551443D01*
X150248832Y-66549321D01*
X150227656Y-66536152D01*
X150224196Y-66533921D01*
X150196602Y-66515484D01*
X150193210Y-66513137D01*
X150172939Y-66498611D01*
X150169627Y-66496155D01*
X149934413Y-66315670D01*
X149931184Y-66313107D01*
X149911902Y-66297283D01*
X149908756Y-66294613D01*
X149883803Y-66272729D01*
X149880750Y-66269962D01*
X149862551Y-66252917D01*
X149859588Y-66250049D01*
X149713964Y-66104425D01*
X149699856Y-66142253D01*
X149696414Y-66150561D01*
X149673810Y-66200059D01*
X149669786Y-66208100D01*
X149635065Y-66271693D01*
X149630474Y-66279431D01*
X149601039Y-66325234D01*
X149596500Y-66331772D01*
X143971052Y-66331772D01*
X143960634Y-66299710D01*
X143867129Y-66116197D01*
X143746068Y-65949570D01*
X143746065Y-65949567D01*
X143746063Y-65949564D01*
X143600435Y-65803936D01*
X143600432Y-65803934D01*
X143600430Y-65803932D01*
X143434391Y-65683298D01*
X143433806Y-65682873D01*
X143433805Y-65682872D01*
X143433803Y-65682871D01*
X143250290Y-65589366D01*
X143250287Y-65589365D01*
X143250285Y-65589364D01*
X143054412Y-65525721D01*
X143054410Y-65525720D01*
X143054408Y-65525720D01*
X142850981Y-65493500D01*
X142645019Y-65493500D01*
X142441592Y-65525720D01*
X142441590Y-65525720D01*
X142441587Y-65525721D01*
X142245714Y-65589364D01*
X142245708Y-65589367D01*
X142062193Y-65682873D01*
X141895567Y-65803934D01*
X141895564Y-65803936D01*
X141749936Y-65949564D01*
X141749934Y-65949567D01*
X141628871Y-66116196D01*
X141609986Y-66153260D01*
X141561238Y-66204875D01*
X141492323Y-66221940D01*
X141425121Y-66199039D01*
X141385454Y-66153260D01*
X141366701Y-66116457D01*
X141335583Y-66073626D01*
X141335582Y-66073626D01*
X140648000Y-66761208D01*
X140648000Y-66749339D01*
X140620741Y-66647606D01*
X140568080Y-66556394D01*
X140493606Y-66481920D01*
X140402394Y-66429259D01*
X140300661Y-66402000D01*
X140288790Y-66402000D01*
X140976372Y-65714416D01*
X140933541Y-65683298D01*
X140933540Y-65683297D01*
X140750099Y-65589829D01*
X140750093Y-65589826D01*
X140554294Y-65526208D01*
X140554298Y-65526208D01*
X140350939Y-65494000D01*
X140145061Y-65494000D01*
X139941703Y-65526208D01*
X139745906Y-65589826D01*
X139745900Y-65589829D01*
X139562452Y-65683301D01*
X139519625Y-65714416D01*
X140207209Y-66402000D01*
X140195339Y-66402000D01*
X140093606Y-66429259D01*
X140002394Y-66481920D01*
X139927920Y-66556394D01*
X139875259Y-66647606D01*
X139848000Y-66749339D01*
X139848000Y-66761209D01*
X139160416Y-66073625D01*
X139129301Y-66116452D01*
X139035829Y-66299900D01*
X139035826Y-66299906D01*
X138972208Y-66495703D01*
X138940000Y-66699061D01*
X136924500Y-66699061D01*
X136924500Y-66699019D01*
X136892280Y-66495592D01*
X136828634Y-66299710D01*
X136735129Y-66116197D01*
X136614068Y-65949570D01*
X136614065Y-65949567D01*
X136614063Y-65949564D01*
X136468435Y-65803936D01*
X136468432Y-65803934D01*
X136468430Y-65803932D01*
X136302391Y-65683298D01*
X136301806Y-65682873D01*
X136301805Y-65682872D01*
X136301803Y-65682871D01*
X136118290Y-65589366D01*
X136118287Y-65589365D01*
X136118285Y-65589364D01*
X135922412Y-65525721D01*
X135922410Y-65525720D01*
X135922408Y-65525720D01*
X135718981Y-65493500D01*
X135513019Y-65493500D01*
X135309592Y-65525720D01*
X135309590Y-65525720D01*
X135309587Y-65525721D01*
X135113714Y-65589364D01*
X135113708Y-65589367D01*
X134930193Y-65682873D01*
X134763567Y-65803934D01*
X134763564Y-65803936D01*
X134617936Y-65949564D01*
X134617934Y-65949567D01*
X134496871Y-66116196D01*
X134477986Y-66153260D01*
X134429238Y-66204875D01*
X134360323Y-66221940D01*
X134293121Y-66199039D01*
X134253454Y-66153260D01*
X134234701Y-66116457D01*
X134203583Y-66073626D01*
X134203582Y-66073626D01*
X133516000Y-66761208D01*
X133516000Y-66749339D01*
X133488741Y-66647606D01*
X133436080Y-66556394D01*
X133361606Y-66481920D01*
X133270394Y-66429259D01*
X133168661Y-66402000D01*
X133156790Y-66402000D01*
X133844372Y-65714416D01*
X133801541Y-65683298D01*
X133801540Y-65683297D01*
X133618099Y-65589829D01*
X133618093Y-65589826D01*
X133422294Y-65526208D01*
X133422298Y-65526208D01*
X133218939Y-65494000D01*
X133013061Y-65494000D01*
X132809703Y-65526208D01*
X132613906Y-65589826D01*
X132613900Y-65589829D01*
X132430452Y-65683301D01*
X132387625Y-65714416D01*
X133075209Y-66402000D01*
X133063339Y-66402000D01*
X132961606Y-66429259D01*
X132870394Y-66481920D01*
X132795920Y-66556394D01*
X132743259Y-66647606D01*
X132716000Y-66749339D01*
X132716000Y-66761209D01*
X132028416Y-66073625D01*
X131997301Y-66116452D01*
X131903829Y-66299900D01*
X131903826Y-66299906D01*
X131840208Y-66495703D01*
X131814949Y-66655186D01*
X131784537Y-66719339D01*
X131724268Y-66756866D01*
X131653279Y-66755852D01*
X131594107Y-66716619D01*
X131565539Y-66651624D01*
X131564500Y-66635475D01*
X131564500Y-64508500D01*
X132578500Y-64508500D01*
X132753312Y-64508500D01*
X134356500Y-64508500D01*
X135250116Y-64508500D01*
X135374059Y-64488869D01*
X135378959Y-64488192D01*
X135408671Y-64484675D01*
X135413596Y-64484189D01*
X135453301Y-64481064D01*
X135458237Y-64480773D01*
X135488150Y-64479597D01*
X135493100Y-64479500D01*
X135738900Y-64479500D01*
X135743850Y-64479597D01*
X135773763Y-64480773D01*
X135778699Y-64481064D01*
X135818404Y-64484189D01*
X135823329Y-64484675D01*
X135853041Y-64488192D01*
X135857941Y-64488869D01*
X135882500Y-64492758D01*
X135882500Y-64094500D01*
X134723792Y-64094500D01*
X134720418Y-64094455D01*
X134700034Y-64093909D01*
X134696670Y-64093774D01*
X134669558Y-64092322D01*
X134666191Y-64092096D01*
X134645844Y-64090459D01*
X134642481Y-64090143D01*
X134536894Y-64078792D01*
X134529094Y-64077706D01*
X134482139Y-64069665D01*
X134474428Y-64068095D01*
X134412739Y-64053516D01*
X134405138Y-64051467D01*
X134375499Y-64042475D01*
X136896500Y-64042475D01*
X136896500Y-64508500D01*
X138422500Y-64508500D01*
X138422500Y-64085032D01*
X138421878Y-64085131D01*
X138416977Y-64085809D01*
X138387264Y-64089326D01*
X138382339Y-64089811D01*
X138342634Y-64092936D01*
X138337698Y-64093227D01*
X138307785Y-64094403D01*
X138302835Y-64094500D01*
X138049165Y-64094500D01*
X138044215Y-64094403D01*
X138014302Y-64093227D01*
X138009366Y-64092936D01*
X137969661Y-64089811D01*
X137964736Y-64089326D01*
X137935023Y-64085809D01*
X137930123Y-64085131D01*
X137679598Y-64045451D01*
X137674731Y-64044582D01*
X137645397Y-64038748D01*
X137640566Y-64037688D01*
X137601838Y-64028392D01*
X137597047Y-64027142D01*
X137568226Y-64019014D01*
X137563490Y-64017577D01*
X137322239Y-63939191D01*
X137317564Y-63937570D01*
X137289493Y-63927214D01*
X137284889Y-63925412D01*
X137248091Y-63910171D01*
X137243555Y-63908187D01*
X137234422Y-63903976D01*
X137186344Y-63930228D01*
X137178300Y-63934254D01*
X137128804Y-63956856D01*
X137120499Y-63960296D01*
X136919874Y-64035127D01*
X136912421Y-64037645D01*
X136896500Y-64042475D01*
X134375499Y-64042475D01*
X134359579Y-64037645D01*
X134356500Y-64036604D01*
X134356500Y-64508500D01*
X132753312Y-64508500D01*
X132874099Y-64489369D01*
X132878998Y-64488692D01*
X132908709Y-64485175D01*
X132913635Y-64484689D01*
X132953340Y-64481564D01*
X132958276Y-64481273D01*
X132988189Y-64480097D01*
X132993139Y-64480000D01*
X133238861Y-64480000D01*
X133243811Y-64480097D01*
X133273724Y-64481273D01*
X133278660Y-64481564D01*
X133318365Y-64484689D01*
X133323291Y-64485175D01*
X133342500Y-64487448D01*
X133342500Y-63736979D01*
X139436500Y-63736979D01*
X139436500Y-64508500D01*
X139885312Y-64508500D01*
X140006099Y-64489369D01*
X140010998Y-64488692D01*
X140040709Y-64485175D01*
X140045635Y-64484689D01*
X140085340Y-64481564D01*
X140090276Y-64481273D01*
X140120189Y-64480097D01*
X140125139Y-64480000D01*
X140370861Y-64480000D01*
X140375811Y-64480097D01*
X140405724Y-64481273D01*
X140410660Y-64481564D01*
X140450365Y-64484689D01*
X140455291Y-64485175D01*
X140485002Y-64488692D01*
X140489901Y-64489369D01*
X140610688Y-64508500D01*
X140962500Y-64508500D01*
X140962500Y-64085032D01*
X140961878Y-64085131D01*
X140956977Y-64085809D01*
X140927264Y-64089326D01*
X140922339Y-64089811D01*
X140882634Y-64092936D01*
X140877698Y-64093227D01*
X140847785Y-64094403D01*
X140842835Y-64094500D01*
X140589165Y-64094500D01*
X140584215Y-64094403D01*
X140554302Y-64093227D01*
X140549366Y-64092936D01*
X140509661Y-64089811D01*
X140504736Y-64089326D01*
X140475023Y-64085809D01*
X140470123Y-64085131D01*
X140219598Y-64045451D01*
X140214731Y-64044582D01*
X140185397Y-64038748D01*
X140180566Y-64037688D01*
X140141838Y-64028392D01*
X140137047Y-64027142D01*
X140108226Y-64019014D01*
X140103490Y-64017577D01*
X139862239Y-63939191D01*
X139857564Y-63937570D01*
X139829493Y-63927214D01*
X139824889Y-63925412D01*
X139788091Y-63910171D01*
X139783555Y-63908187D01*
X139756369Y-63895654D01*
X139751917Y-63893495D01*
X139525904Y-63778335D01*
X139521544Y-63776004D01*
X139495440Y-63761386D01*
X139491170Y-63758884D01*
X139457210Y-63738074D01*
X139455500Y-63736979D01*
X141976500Y-63736979D01*
X141976500Y-64508500D01*
X142382116Y-64508500D01*
X142506059Y-64488869D01*
X142510959Y-64488192D01*
X142540671Y-64484675D01*
X142545596Y-64484189D01*
X142585301Y-64481064D01*
X142590237Y-64480773D01*
X142620150Y-64479597D01*
X142625100Y-64479500D01*
X142870900Y-64479500D01*
X142875850Y-64479597D01*
X142905763Y-64480773D01*
X142910699Y-64481064D01*
X142950404Y-64484189D01*
X142955329Y-64484675D01*
X142985041Y-64488192D01*
X142989941Y-64488869D01*
X143113884Y-64508500D01*
X143502500Y-64508500D01*
X143502500Y-62982500D01*
X142730979Y-62982500D01*
X142729406Y-62984957D01*
X142712775Y-63009848D01*
X142709945Y-63013909D01*
X142560846Y-63219125D01*
X142557862Y-63223067D01*
X142539342Y-63246561D01*
X142536204Y-63250386D01*
X142510338Y-63280673D01*
X142507050Y-63284372D01*
X142486728Y-63306357D01*
X142483297Y-63309925D01*
X142303925Y-63489297D01*
X142300357Y-63492728D01*
X142278372Y-63513050D01*
X142274673Y-63516338D01*
X142244386Y-63542204D01*
X142240561Y-63545342D01*
X142217067Y-63563862D01*
X142213125Y-63566846D01*
X142007909Y-63715945D01*
X142003848Y-63718775D01*
X141978957Y-63735406D01*
X141976500Y-63736979D01*
X139455500Y-63736979D01*
X139453043Y-63735406D01*
X139446000Y-63730700D01*
X139438957Y-63735406D01*
X139436500Y-63736979D01*
X133342500Y-63736979D01*
X133342500Y-63058495D01*
X133322873Y-63005875D01*
X133320355Y-62998421D01*
X133315525Y-62982500D01*
X132578500Y-62982500D01*
X132578500Y-64508500D01*
X131564500Y-64508500D01*
X131564500Y-61968500D01*
X132578500Y-61968500D01*
X133263500Y-61968500D01*
X133263500Y-61204500D01*
X132578500Y-61204500D01*
X132578500Y-61968500D01*
X131564500Y-61968500D01*
X131564500Y-60966187D01*
X131565107Y-60953837D01*
X131570990Y-60894108D01*
X131578070Y-60822219D01*
X131582886Y-60798009D01*
X131619473Y-60677396D01*
X131628921Y-60654586D01*
X131688336Y-60543428D01*
X131702051Y-60522902D01*
X131782014Y-60425466D01*
X131799466Y-60408014D01*
X131896902Y-60328051D01*
X131917428Y-60314336D01*
X132028586Y-60254921D01*
X132051396Y-60245473D01*
X132172009Y-60208886D01*
X132196219Y-60204070D01*
X132327837Y-60191106D01*
X132340187Y-60190500D01*
X132399892Y-60190500D01*
X134469286Y-60190500D01*
X134537407Y-60210502D01*
G37*
%TD.AperFunction*%
%TA.AperFunction,Conductor*%
G36*
X138091324Y-104703502D02*
G01*
X138137817Y-104757158D01*
X138147921Y-104827432D01*
X138118427Y-104892012D01*
X138097264Y-104911436D01*
X138085567Y-104919934D01*
X138085564Y-104919936D01*
X137939936Y-105065564D01*
X137939934Y-105065567D01*
X137818871Y-105232196D01*
X137799986Y-105269260D01*
X137751238Y-105320875D01*
X137682323Y-105337940D01*
X137615121Y-105315039D01*
X137575454Y-105269260D01*
X137556701Y-105232457D01*
X137525583Y-105189626D01*
X137525582Y-105189626D01*
X136838000Y-105877208D01*
X136838000Y-105865339D01*
X136810741Y-105763606D01*
X136758080Y-105672394D01*
X136683606Y-105597920D01*
X136592394Y-105545259D01*
X136490661Y-105518000D01*
X136478790Y-105518000D01*
X137166372Y-104830416D01*
X137165504Y-104819387D01*
X137180100Y-104749906D01*
X137229942Y-104699347D01*
X137291116Y-104683500D01*
X138023203Y-104683500D01*
X138091324Y-104703502D01*
G37*
%TD.AperFunction*%
%TD*%
M02*
