%TF.GenerationSoftware,KiCad,Pcbnew,9.0.4*%
%TF.CreationDate,2026-02-14T22:34:29+05:30*%
%TF.ProjectId,Breadboard_PowerSupply,42726561-6462-46f6-9172-645f506f7765,rev?*%
%TF.SameCoordinates,Original*%
%TF.FileFunction,Copper,L1,Top*%
%TF.FilePolarity,Positive*%
%FSLAX46Y46*%
G04 Gerber Fmt 4.6, Leading zero omitted, Abs format (unit mm)*
G04 Created by KiCad (PCBNEW 9.0.4) date 2026-02-14 22:34:29*
%MOMM*%
%LPD*%
G01*
G04 APERTURE LIST*
G04 Aperture macros list*
%AMRoundRect*
0 Rectangle with rounded corners*
0 $1 Rounding radius*
0 $2 $3 $4 $5 $6 $7 $8 $9 X,Y pos of 4 corners*
0 Add a 4 corners polygon primitive as box body*
4,1,4,$2,$3,$4,$5,$6,$7,$8,$9,$2,$3,0*
0 Add four circle primitives for the rounded corners*
1,1,$1+$1,$2,$3*
1,1,$1+$1,$4,$5*
1,1,$1+$1,$6,$7*
1,1,$1+$1,$8,$9*
0 Add four rect primitives between the rounded corners*
20,1,$1+$1,$2,$3,$4,$5,0*
20,1,$1+$1,$4,$5,$6,$7,0*
20,1,$1+$1,$6,$7,$8,$9,0*
20,1,$1+$1,$8,$9,$2,$3,0*%
G04 Aperture macros list end*
%TA.AperFunction,Conductor*%
%ADD10C,0.350000*%
%TD*%
%TA.AperFunction,ComponentPad*%
%ADD11C,1.400000*%
%TD*%
%TA.AperFunction,ComponentPad*%
%ADD12R,3.000000X3.000000*%
%TD*%
%TA.AperFunction,ComponentPad*%
%ADD13C,3.000000*%
%TD*%
%TA.AperFunction,ComponentPad*%
%ADD14R,1.900000X1.900000*%
%TD*%
%TA.AperFunction,ComponentPad*%
%ADD15C,1.900000*%
%TD*%
%TA.AperFunction,ComponentPad*%
%ADD16C,1.600000*%
%TD*%
%TA.AperFunction,ComponentPad*%
%ADD17R,1.700000X1.700000*%
%TD*%
%TA.AperFunction,ComponentPad*%
%ADD18C,1.700000*%
%TD*%
%TA.AperFunction,ComponentPad*%
%ADD19R,1.905000X2.000000*%
%TD*%
%TA.AperFunction,ComponentPad*%
%ADD20O,1.905000X2.000000*%
%TD*%
%TA.AperFunction,ComponentPad*%
%ADD21R,3.500000X3.500000*%
%TD*%
%TA.AperFunction,ComponentPad*%
%ADD22RoundRect,0.750000X-0.750000X-1.000000X0.750000X-1.000000X0.750000X1.000000X-0.750000X1.000000X0*%
%TD*%
%TA.AperFunction,ComponentPad*%
%ADD23RoundRect,0.875000X-0.875000X-0.875000X0.875000X-0.875000X0.875000X0.875000X-0.875000X0.875000X0*%
%TD*%
%TA.AperFunction,ComponentPad*%
%ADD24R,1.800000X1.800000*%
%TD*%
%TA.AperFunction,ComponentPad*%
%ADD25C,1.800000*%
%TD*%
%TA.AperFunction,ViaPad*%
%ADD26C,0.900000*%
%TD*%
%TA.AperFunction,ViaPad*%
%ADD27C,0.800000*%
%TD*%
%TA.AperFunction,Conductor*%
%ADD28C,0.250000*%
%TD*%
G04 APERTURE END LIST*
D10*
%TO.N,/12V*%
X139700000Y-78740000D02*
X139700000Y-75438000D01*
X139700000Y-68834000D02*
X142748000Y-66802000D01*
X139700000Y-75438000D02*
X139700000Y-68834000D01*
%TD*%
D11*
%TO.P,R2,1*%
%TO.N,Net-(D1-A)*%
X151892000Y-80010000D03*
%TO.P,R2,2*%
%TO.N,/12V*%
X144272000Y-80010000D03*
%TD*%
D12*
%TO.P,J5,1,Pin_1*%
%TO.N,GND*%
X146812000Y-64008000D03*
D13*
%TO.P,J5,2,Pin_2*%
%TO.N,/PWR_OUT_TOP*%
X151892000Y-64008000D03*
%TD*%
D14*
%TO.P,S1,1*%
%TO.N,/12V*%
X150950000Y-73660000D03*
D15*
%TO.P,S1,2*%
%TO.N,/PWR_Input*%
X148450000Y-73660000D03*
%TO.P,S1,3*%
%TO.N,unconnected-(S1-Pad3)*%
X145950000Y-73660000D03*
%TD*%
D11*
%TO.P,R1,2*%
%TO.N,/3.3V*%
X146050000Y-100584000D03*
%TO.P,R1,1*%
%TO.N,Net-(U2-ADJ)*%
X153670000Y-100584000D03*
%TD*%
%TO.P,R3,2*%
%TO.N,Net-(U2-ADJ)*%
X146050000Y-95250000D03*
%TO.P,R3,1*%
%TO.N,GND*%
X153670000Y-95250000D03*
%TD*%
D13*
%TO.P,J7,2,Pin_2*%
%TO.N,/PWR_OUT_BOT*%
X151892000Y-108458000D03*
D12*
%TO.P,J7,1,Pin_1*%
%TO.N,GND*%
X146812000Y-108458000D03*
%TD*%
D16*
%TO.P,C1,1*%
%TO.N,/12V*%
X142748000Y-66802000D03*
%TO.P,C1,2*%
%TO.N,GND*%
X140248000Y-66802000D03*
%TD*%
%TO.P,C3,1*%
%TO.N,/3.3V*%
X138938000Y-105918000D03*
%TO.P,C3,2*%
%TO.N,GND*%
X136438000Y-105918000D03*
%TD*%
%TO.P,C2,1*%
%TO.N,/5V*%
X135616000Y-66802000D03*
%TO.P,C2,2*%
%TO.N,GND*%
X133116000Y-66802000D03*
%TD*%
D17*
%TO.P,J1,1,Pin_1*%
%TO.N,GND*%
X159004000Y-61778000D03*
D18*
%TO.P,J1,2,Pin_2*%
%TO.N,/PWR_OUT_TOP*%
X159004000Y-64318000D03*
%TD*%
D17*
%TO.P,J2,1,Pin_1*%
%TO.N,GND*%
X159004000Y-108138000D03*
D18*
%TO.P,J2,2,Pin_2*%
%TO.N,/PWR_OUT_BOT*%
X159004000Y-110678000D03*
%TD*%
D17*
%TO.P,J3,1,Pin_1*%
%TO.N,/3.3V*%
X135636000Y-61722000D03*
D18*
%TO.P,J3,2,Pin_2*%
%TO.N,/PWR_OUT_TOP*%
X138176000Y-61722000D03*
%TO.P,J3,3,Pin_3*%
%TO.N,/5V*%
X140716000Y-61722000D03*
%TD*%
D17*
%TO.P,J4,1,Pin_1*%
%TO.N,/3.3V*%
X136144000Y-110490000D03*
D18*
%TO.P,J4,2,Pin_2*%
%TO.N,/PWR_OUT_BOT*%
X138684000Y-110490000D03*
%TO.P,J4,3,Pin_3*%
%TO.N,/5V*%
X141224000Y-110490000D03*
%TD*%
D19*
%TO.P,U1,1,VI*%
%TO.N,/12V*%
X139700000Y-75438000D03*
D20*
%TO.P,U1,2,GND*%
%TO.N,GND*%
X137160000Y-75438000D03*
%TO.P,U1,3,VO*%
%TO.N,/5V*%
X134620000Y-75438000D03*
%TD*%
D21*
%TO.P,J6,1*%
%TO.N,/PWR_Input*%
X145446000Y-88900000D03*
D22*
%TO.P,J6,2*%
%TO.N,GND*%
X139446000Y-88900000D03*
D23*
%TO.P,J6,3*%
X142446000Y-93600000D03*
%TD*%
D19*
%TO.P,U2,1,ADJ*%
%TO.N,Net-(U2-ADJ)*%
X134366000Y-100076000D03*
D20*
%TO.P,U2,2,VO*%
%TO.N,/3.3V*%
X136906000Y-100076000D03*
%TO.P,U2,3,VI*%
%TO.N,/12V*%
X139446000Y-100076000D03*
%TD*%
D24*
%TO.P,D1,1,K*%
%TO.N,GND*%
X151410000Y-89154000D03*
D25*
%TO.P,D1,2,A*%
%TO.N,Net-(D1-A)*%
X151410000Y-86614000D03*
%TD*%
D26*
%TO.N,/12V*%
X139700000Y-78720000D03*
D27*
%TO.N,Net-(U2-ADJ)*%
X152670000Y-100584000D03*
D26*
%TO.N,/3.3V*%
X143051000Y-103124000D03*
%TD*%
D10*
%TO.N,/3.3V*%
X131826000Y-65532000D02*
X135636000Y-61722000D01*
X131826000Y-94948500D02*
X131826000Y-65532000D01*
X136906000Y-100028500D02*
X131826000Y-94948500D01*
X136906000Y-100076000D02*
X136906000Y-100028500D01*
%TO.N,/5V*%
X140696000Y-61722000D02*
X140716000Y-61722000D01*
X135616000Y-66802000D02*
X140696000Y-61722000D01*
%TO.N,/PWR_OUT_TOP*%
X148330000Y-60446000D02*
X139452000Y-60446000D01*
X139452000Y-60446000D02*
X138176000Y-61722000D01*
X151892000Y-64008000D02*
X148330000Y-60446000D01*
%TO.N,/3.3V*%
X138704000Y-107930000D02*
X136144000Y-110490000D01*
X138938000Y-107930000D02*
X138704000Y-107930000D01*
%TO.N,/PWR_OUT_BOT*%
X139706000Y-111512000D02*
X138684000Y-110490000D01*
X139706000Y-112020000D02*
X139706000Y-111512000D01*
%TO.N,/5V*%
X142176000Y-109538000D02*
X141224000Y-110490000D01*
%TO.N,/3.3V*%
X136124000Y-110744000D02*
X135890000Y-110744000D01*
X138938000Y-103632000D02*
X136906000Y-101600000D01*
X138938000Y-105918000D02*
X138938000Y-103632000D01*
X138938000Y-105918000D02*
X138938000Y-107930000D01*
X136906000Y-101600000D02*
X136906000Y-100076000D01*
%TO.N,/5V*%
X135616000Y-74442000D02*
X134620000Y-75438000D01*
X135616000Y-66802000D02*
X135616000Y-74442000D01*
X135890000Y-66802000D02*
X135616000Y-66802000D01*
%TO.N,/12V*%
X145108000Y-67818000D02*
X150950000Y-73660000D01*
X143764000Y-67818000D02*
X145108000Y-67818000D01*
X142748000Y-66802000D02*
X143764000Y-67818000D01*
%TO.N,/5V*%
X142176000Y-96964000D02*
X142176000Y-109538000D01*
X134620000Y-89408000D02*
X142176000Y-96964000D01*
X134620000Y-75438000D02*
X134620000Y-89408000D01*
D28*
%TO.N,Net-(U2-ADJ)*%
X153670000Y-100584000D02*
X152670000Y-100584000D01*
D10*
%TO.N,/PWR_OUT_BOT*%
X148330000Y-112020000D02*
X151892000Y-108458000D01*
X139706000Y-112020000D02*
X148330000Y-112020000D01*
D28*
%TO.N,Net-(D1-A)*%
X151892000Y-86132000D02*
X151410000Y-86614000D01*
X151892000Y-80010000D02*
X151892000Y-86132000D01*
D10*
%TO.N,/12V*%
X146050000Y-80010000D02*
X144272000Y-80010000D01*
X150950000Y-75110000D02*
X146050000Y-80010000D01*
X150950000Y-73660000D02*
X150950000Y-75110000D01*
%TO.N,/PWR_Input*%
X143002000Y-86456000D02*
X145446000Y-88900000D01*
X143002000Y-79108000D02*
X143002000Y-86456000D01*
X148450000Y-73660000D02*
X143002000Y-79108000D01*
%TO.N,/PWR_OUT_BOT*%
X154112000Y-110678000D02*
X159258000Y-110678000D01*
X151892000Y-108458000D02*
X154112000Y-110678000D01*
%TO.N,/3.3V*%
X143510000Y-103124000D02*
X143051000Y-103124000D01*
X146050000Y-100584000D02*
X143510000Y-103124000D01*
D28*
%TO.N,Net-(U2-ADJ)*%
X148336000Y-95250000D02*
X153670000Y-100584000D01*
X146050000Y-95250000D02*
X148336000Y-95250000D01*
D10*
%TO.N,/PWR_OUT_TOP*%
X152202000Y-64318000D02*
X151892000Y-64008000D01*
X159004000Y-64318000D02*
X152202000Y-64318000D01*
%TD*%
M02*
